<?xml version="1.0" encoding="UTF-8" standalone="no"?><svg xmlns="http://www.w3.org/2000/svg" xmlns:xlink="http://www.w3.org/1999/xlink" contentScriptType="application/ecmascript" contentStyleType="text/css" height="329px" preserveAspectRatio="none" style="width:3788px;height:329px;background:#FFFFFF;" version="1.1" viewBox="0 0 3788 329" width="3788px" zoomAndPan="magnify"><defs><filter height="300%" id="fko0911w7ctn2" width="300%" x="-1" y="-1"><feGaussianBlur result="blurOut" stdDeviation="2.0"/><feColorMatrix in="blurOut" result="blurOut2" type="matrix" values="0 0 0 0 0 0 0 0 0 0 0 0 0 0 0 0 0 0 .4 0"/><feOffset dx="4.0" dy="4.0" in="blurOut2" result="blurOut3"/><feBlend in="SourceGraphic" in2="blurOut3" mode="normal"/></filter></defs><g><!--MD5=[47dc0bd163a720d7b6918333282f0ad2]
class AbstractSystemCommand--><rect codeLine="19" fill="#FFFFFF" filter="url(#fko0911w7ctn2)" height="105.2038" id="AbstractSystemCommand" rx="5" ry="5" style="stroke:#000000;stroke-width:1.5;" width="192" x="1877.5" y="7"/><ellipse cx="1892.5" cy="23" fill="#A9DCDF" rx="11" ry="11" style="stroke:#A80036;stroke-width:1.0;"/><path d="M1887.6719,28.75 L1891.0156,16.5625 L1894.1563,16.5625 L1897.5313,28.75 L1895.0625,28.75 L1894.3281,25.7344 L1890.8125,25.7344 L1890.0625,28.75 L1887.6719,28.75 Z M1892.0781,20.7031 L1891.3281,23.7031 L1893.8438,23.7031 L1893.125,20.7031 Q1892.9844,20.125 1892.8594,19.5781 Q1892.7344,19.0156 1892.5938,18.4375 Q1892.4844,19.0156 1892.3438,19.5781 Q1892.2031,20.125 1892.0781,20.7031 Z " fill="#000000"/><text fill="#000000" font-family="sans-serif" font-size="14" font-style="italic" lengthAdjust="spacing" textLength="160" x="1906.5" y="28.432">AbstractSystemCommand</text><line style="stroke:#000000;stroke-width:1.5;" x1="1878.5" x2="2068.5" y1="39" y2="39"/><text fill="#000000" font-family="sans-serif" font-size="14" lengthAdjust="spacing" textLength="101" x="1883.5" y="57.9659">hash_value: int</text><text fill="#000000" font-family="sans-serif" font-size="14" lengthAdjust="spacing" textLength="99" x="1883.5" y="77.0339">response: bool</text><text fill="#000000" font-family="sans-serif" font-size="14" lengthAdjust="spacing" textLength="39" x="1883.5" y="96.1018">id: int</text><line style="stroke:#000000;stroke-width:1.5;" x1="1878.5" x2="2068.5" y1="104.2038" y2="104.2038"/><!--MD5=[6b7bffa552fc70b913f36cfb18abcf74]
class SystemStopCommand--><rect codeLine="20" fill="#FFFFFF" filter="url(#fko0911w7ctn2)" height="105.2038" id="SystemStopCommand" rx="5" ry="5" style="stroke:#000000;stroke-width:1.5;" width="179" x="7" y="191"/><ellipse cx="22" cy="207" fill="#ADD1B2" rx="11" ry="11" style="stroke:#A80036;stroke-width:1.0;"/><path d="M21.4688,213.9219 Q19.7188,213.9219 18.5781,213.1875 Q17.4531,212.4375 16.8906,211.0938 Q16.3438,209.7344 16.3438,207.9375 Q16.3438,205.9063 17,204.4531 Q17.6563,203 18.9375,202.2188 Q20.2188,201.4375 22.0938,201.4375 Q22.9844,201.4375 23.6563,201.625 Q24.3281,201.7969 25.0156,202.1406 L24.2031,204.1563 Q23.5781,203.8438 23.0313,203.7188 Q22.5,203.5938 22.0156,203.5938 Q20.8438,203.5938 20.1406,204.125 Q19.4375,204.6563 19.1406,205.6094 Q18.8438,206.5625 18.8438,207.8281 Q18.8438,209.8438 19.5625,210.8125 Q20.2813,211.7656 21.875,211.7656 Q22.4688,211.7656 23.0938,211.6094 Q23.7188,211.4531 24.5469,211.0781 L24.5469,213.2969 Q23.8125,213.6094 23.0156,213.7656 Q22.2344,213.9219 21.4688,213.9219 Z " fill="#000000"/><text fill="#000000" font-family="sans-serif" font-size="14" lengthAdjust="spacing" textLength="147" x="36" y="212.432">SystemStopCommand</text><line style="stroke:#000000;stroke-width:1.5;" x1="8" x2="185" y1="223" y2="223"/><text fill="#000000" font-family="sans-serif" font-size="14" lengthAdjust="spacing" textLength="101" x="13" y="241.9659">hash_value: int</text><text fill="#000000" font-family="sans-serif" font-size="14" lengthAdjust="spacing" textLength="99" x="13" y="261.0339">response: bool</text><text fill="#000000" font-family="sans-serif" font-size="14" lengthAdjust="spacing" textLength="39" x="13" y="280.1018">id: int</text><line style="stroke:#000000;stroke-width:1.5;" x1="8" x2="185" y1="288.2038" y2="288.2038"/><!--MD5=[ef25d0e1d341499999685fd83b80eb38]
class SystemGoCommand--><rect codeLine="26" fill="#FFFFFF" filter="url(#fko0911w7ctn2)" height="105.2038" id="SystemGoCommand" rx="5" ry="5" style="stroke:#000000;stroke-width:1.5;" width="167" x="221" y="191"/><ellipse cx="236" cy="207" fill="#ADD1B2" rx="11" ry="11" style="stroke:#A80036;stroke-width:1.0;"/><path d="M235.4688,213.9219 Q233.7188,213.9219 232.5781,213.1875 Q231.4531,212.4375 230.8906,211.0938 Q230.3438,209.7344 230.3438,207.9375 Q230.3438,205.9063 231,204.4531 Q231.6563,203 232.9375,202.2188 Q234.2188,201.4375 236.0938,201.4375 Q236.9844,201.4375 237.6563,201.625 Q238.3281,201.7969 239.0156,202.1406 L238.2031,204.1563 Q237.5781,203.8438 237.0313,203.7188 Q236.5,203.5938 236.0156,203.5938 Q234.8438,203.5938 234.1406,204.125 Q233.4375,204.6563 233.1406,205.6094 Q232.8438,206.5625 232.8438,207.8281 Q232.8438,209.8438 233.5625,210.8125 Q234.2813,211.7656 235.875,211.7656 Q236.4688,211.7656 237.0938,211.6094 Q237.7188,211.4531 238.5469,211.0781 L238.5469,213.2969 Q237.8125,213.6094 237.0156,213.7656 Q236.2344,213.9219 235.4688,213.9219 Z " fill="#000000"/><text fill="#000000" font-family="sans-serif" font-size="14" lengthAdjust="spacing" textLength="135" x="250" y="212.432">SystemGoCommand</text><line style="stroke:#000000;stroke-width:1.5;" x1="222" x2="387" y1="223" y2="223"/><text fill="#000000" font-family="sans-serif" font-size="14" lengthAdjust="spacing" textLength="101" x="227" y="241.9659">hash_value: int</text><text fill="#000000" font-family="sans-serif" font-size="14" lengthAdjust="spacing" textLength="99" x="227" y="261.0339">response: bool</text><text fill="#000000" font-family="sans-serif" font-size="14" lengthAdjust="spacing" textLength="39" x="227" y="280.1018">id: int</text><line style="stroke:#000000;stroke-width:1.5;" x1="222" x2="387" y1="288.2038" y2="288.2038"/><!--MD5=[cb4f949cd1cd77917ef599bcc0dbea58]
class SystemHaltCommand--><rect codeLine="32" fill="#FFFFFF" filter="url(#fko0911w7ctn2)" height="105.2038" id="SystemHaltCommand" rx="5" ry="5" style="stroke:#000000;stroke-width:1.5;" width="176" x="422.5" y="191"/><ellipse cx="437.5" cy="207" fill="#ADD1B2" rx="11" ry="11" style="stroke:#A80036;stroke-width:1.0;"/><path d="M436.9688,213.9219 Q435.2188,213.9219 434.0781,213.1875 Q432.9531,212.4375 432.3906,211.0938 Q431.8438,209.7344 431.8438,207.9375 Q431.8438,205.9063 432.5,204.4531 Q433.1563,203 434.4375,202.2188 Q435.7188,201.4375 437.5938,201.4375 Q438.4844,201.4375 439.1563,201.625 Q439.8281,201.7969 440.5156,202.1406 L439.7031,204.1563 Q439.0781,203.8438 438.5313,203.7188 Q438,203.5938 437.5156,203.5938 Q436.3438,203.5938 435.6406,204.125 Q434.9375,204.6563 434.6406,205.6094 Q434.3438,206.5625 434.3438,207.8281 Q434.3438,209.8438 435.0625,210.8125 Q435.7813,211.7656 437.375,211.7656 Q437.9688,211.7656 438.5938,211.6094 Q439.2188,211.4531 440.0469,211.0781 L440.0469,213.2969 Q439.3125,213.6094 438.5156,213.7656 Q437.7344,213.9219 436.9688,213.9219 Z " fill="#000000"/><text fill="#000000" font-family="sans-serif" font-size="14" lengthAdjust="spacing" textLength="144" x="451.5" y="212.432">SystemHaltCommand</text><line style="stroke:#000000;stroke-width:1.5;" x1="423.5" x2="597.5" y1="223" y2="223"/><text fill="#000000" font-family="sans-serif" font-size="14" lengthAdjust="spacing" textLength="101" x="428.5" y="241.9659">hash_value: int</text><text fill="#000000" font-family="sans-serif" font-size="14" lengthAdjust="spacing" textLength="99" x="428.5" y="261.0339">response: bool</text><text fill="#000000" font-family="sans-serif" font-size="14" lengthAdjust="spacing" textLength="39" x="428.5" y="280.1018">id: int</text><line style="stroke:#000000;stroke-width:1.5;" x1="423.5" x2="597.5" y1="288.2038" y2="288.2038"/><!--MD5=[f3ff02876d736dbe4bfa824fb05feace]
class LocomotiveEmergencyStopCommand--><rect codeLine="38" fill="#FFFFFF" filter="url(#fko0911w7ctn2)" height="105.2038" id="LocomotiveEmergencyStopCommand" rx="5" ry="5" style="stroke:#000000;stroke-width:1.5;" width="281" x="634" y="191"/><ellipse cx="649" cy="207" fill="#ADD1B2" rx="11" ry="11" style="stroke:#A80036;stroke-width:1.0;"/><path d="M648.4688,213.9219 Q646.7188,213.9219 645.5781,213.1875 Q644.4531,212.4375 643.8906,211.0938 Q643.3438,209.7344 643.3438,207.9375 Q643.3438,205.9063 644,204.4531 Q644.6563,203 645.9375,202.2188 Q647.2188,201.4375 649.0938,201.4375 Q649.9844,201.4375 650.6563,201.625 Q651.3281,201.7969 652.0156,202.1406 L651.2031,204.1563 Q650.5781,203.8438 650.0313,203.7188 Q649.5,203.5938 649.0156,203.5938 Q647.8438,203.5938 647.1406,204.125 Q646.4375,204.6563 646.1406,205.6094 Q645.8438,206.5625 645.8438,207.8281 Q645.8438,209.8438 646.5625,210.8125 Q647.2813,211.7656 648.875,211.7656 Q649.4688,211.7656 650.0938,211.6094 Q650.7188,211.4531 651.5469,211.0781 L651.5469,213.2969 Q650.8125,213.6094 650.0156,213.7656 Q649.2344,213.9219 648.4688,213.9219 Z " fill="#000000"/><text fill="#000000" font-family="sans-serif" font-size="14" lengthAdjust="spacing" textLength="249" x="663" y="212.432">LocomotiveEmergencyStopCommand</text><line style="stroke:#000000;stroke-width:1.5;" x1="635" x2="914" y1="223" y2="223"/><text fill="#000000" font-family="sans-serif" font-size="14" lengthAdjust="spacing" textLength="101" x="640" y="241.9659">hash_value: int</text><text fill="#000000" font-family="sans-serif" font-size="14" lengthAdjust="spacing" textLength="99" x="640" y="261.0339">response: bool</text><text fill="#000000" font-family="sans-serif" font-size="14" lengthAdjust="spacing" textLength="39" x="640" y="280.1018">id: int</text><line style="stroke:#000000;stroke-width:1.5;" x1="635" x2="914" y1="288.2038" y2="288.2038"/><!--MD5=[6eb9ceea8875c45322ffc9494ec10432]
class LocomotiveCycleStopCommand--><rect codeLine="44" fill="#FFFFFF" filter="url(#fko0911w7ctn2)" height="105.2038" id="LocomotiveCycleStopCommand" rx="5" ry="5" style="stroke:#000000;stroke-width:1.5;" width="241" x="950" y="191"/><ellipse cx="965" cy="207" fill="#ADD1B2" rx="11" ry="11" style="stroke:#A80036;stroke-width:1.0;"/><path d="M964.4688,213.9219 Q962.7188,213.9219 961.5781,213.1875 Q960.4531,212.4375 959.8906,211.0938 Q959.3438,209.7344 959.3438,207.9375 Q959.3438,205.9063 960,204.4531 Q960.6563,203 961.9375,202.2188 Q963.2188,201.4375 965.0938,201.4375 Q965.9844,201.4375 966.6563,201.625 Q967.3281,201.7969 968.0156,202.1406 L967.2031,204.1563 Q966.5781,203.8438 966.0313,203.7188 Q965.5,203.5938 965.0156,203.5938 Q963.8438,203.5938 963.1406,204.125 Q962.4375,204.6563 962.1406,205.6094 Q961.8438,206.5625 961.8438,207.8281 Q961.8438,209.8438 962.5625,210.8125 Q963.2813,211.7656 964.875,211.7656 Q965.4688,211.7656 966.0938,211.6094 Q966.7188,211.4531 967.5469,211.0781 L967.5469,213.2969 Q966.8125,213.6094 966.0156,213.7656 Q965.2344,213.9219 964.4688,213.9219 Z " fill="#000000"/><text fill="#000000" font-family="sans-serif" font-size="14" lengthAdjust="spacing" textLength="209" x="979" y="212.432">LocomotiveCycleStopCommand</text><line style="stroke:#000000;stroke-width:1.5;" x1="951" x2="1190" y1="223" y2="223"/><text fill="#000000" font-family="sans-serif" font-size="14" lengthAdjust="spacing" textLength="101" x="956" y="241.9659">hash_value: int</text><text fill="#000000" font-family="sans-serif" font-size="14" lengthAdjust="spacing" textLength="99" x="956" y="261.0339">response: bool</text><text fill="#000000" font-family="sans-serif" font-size="14" lengthAdjust="spacing" textLength="39" x="956" y="280.1018">id: int</text><line style="stroke:#000000;stroke-width:1.5;" x1="951" x2="1190" y1="288.2038" y2="288.2038"/><!--MD5=[f495b9a053b0718189a6e51ea5428ac5]
class LocomotiveDataProtocolCommand--><rect codeLine="50" fill="#FFFFFF" filter="url(#fko0911w7ctn2)" height="124.2717" id="LocomotiveDataProtocolCommand" rx="5" ry="5" style="stroke:#000000;stroke-width:1.5;" width="261" x="1226" y="181.5"/><ellipse cx="1241" cy="197.5" fill="#ADD1B2" rx="11" ry="11" style="stroke:#A80036;stroke-width:1.0;"/><path d="M1240.4688,204.4219 Q1238.7188,204.4219 1237.5781,203.6875 Q1236.4531,202.9375 1235.8906,201.5938 Q1235.3438,200.2344 1235.3438,198.4375 Q1235.3438,196.4063 1236,194.9531 Q1236.6563,193.5 1237.9375,192.7188 Q1239.2188,191.9375 1241.0938,191.9375 Q1241.9844,191.9375 1242.6563,192.125 Q1243.3281,192.2969 1244.0156,192.6406 L1243.2031,194.6563 Q1242.5781,194.3438 1242.0313,194.2188 Q1241.5,194.0938 1241.0156,194.0938 Q1239.8438,194.0938 1239.1406,194.625 Q1238.4375,195.1563 1238.1406,196.1094 Q1237.8438,197.0625 1237.8438,198.3281 Q1237.8438,200.3438 1238.5625,201.3125 Q1239.2813,202.2656 1240.875,202.2656 Q1241.4688,202.2656 1242.0938,202.1094 Q1242.7188,201.9531 1243.5469,201.5781 L1243.5469,203.7969 Q1242.8125,204.1094 1242.0156,204.2656 Q1241.2344,204.4219 1240.4688,204.4219 Z " fill="#000000"/><text fill="#000000" font-family="sans-serif" font-size="14" lengthAdjust="spacing" textLength="229" x="1255" y="202.932">LocomotiveDataProtocolCommand</text><line style="stroke:#000000;stroke-width:1.5;" x1="1227" x2="1486" y1="213.5" y2="213.5"/><text fill="#000000" font-family="sans-serif" font-size="14" lengthAdjust="spacing" textLength="101" x="1232" y="232.4659">hash_value: int</text><text fill="#000000" font-family="sans-serif" font-size="14" lengthAdjust="spacing" textLength="99" x="1232" y="251.5339">response: bool</text><text fill="#000000" font-family="sans-serif" font-size="14" lengthAdjust="spacing" textLength="39" x="1232" y="270.6018">id: int</text><text fill="#000000" font-family="sans-serif" font-size="14" lengthAdjust="spacing" textLength="195" x="1232" y="289.6697">protocol: RailProtocolSchema</text><line style="stroke:#000000;stroke-width:1.5;" x1="1227" x2="1486" y1="297.7717" y2="297.7717"/><!--MD5=[da185d839d5b65e5ab6975d9128e7036]
class AccessoryDecoderSwitchingTimeCommand--><rect codeLine="57" fill="#FFFFFF" filter="url(#fko0911w7ctn2)" height="124.2717" id="AccessoryDecoderSwitchingTimeCommand" rx="5" ry="5" style="stroke:#000000;stroke-width:1.5;" width="322" x="1522.5" y="181.5"/><ellipse cx="1537.5" cy="197.5" fill="#ADD1B2" rx="11" ry="11" style="stroke:#A80036;stroke-width:1.0;"/><path d="M1536.9688,204.4219 Q1535.2188,204.4219 1534.0781,203.6875 Q1532.9531,202.9375 1532.3906,201.5938 Q1531.8438,200.2344 1531.8438,198.4375 Q1531.8438,196.4063 1532.5,194.9531 Q1533.1563,193.5 1534.4375,192.7188 Q1535.7188,191.9375 1537.5938,191.9375 Q1538.4844,191.9375 1539.1563,192.125 Q1539.8281,192.2969 1540.5156,192.6406 L1539.7031,194.6563 Q1539.0781,194.3438 1538.5313,194.2188 Q1538,194.0938 1537.5156,194.0938 Q1536.3438,194.0938 1535.6406,194.625 Q1534.9375,195.1563 1534.6406,196.1094 Q1534.3438,197.0625 1534.3438,198.3281 Q1534.3438,200.3438 1535.0625,201.3125 Q1535.7813,202.2656 1537.375,202.2656 Q1537.9688,202.2656 1538.5938,202.1094 Q1539.2188,201.9531 1540.0469,201.5781 L1540.0469,203.7969 Q1539.3125,204.1094 1538.5156,204.2656 Q1537.7344,204.4219 1536.9688,204.4219 Z " fill="#000000"/><text fill="#000000" font-family="sans-serif" font-size="14" lengthAdjust="spacing" textLength="290" x="1551.5" y="202.932">AccessoryDecoderSwitchingTimeCommand</text><line style="stroke:#000000;stroke-width:1.5;" x1="1523.5" x2="1843.5" y1="213.5" y2="213.5"/><text fill="#000000" font-family="sans-serif" font-size="14" lengthAdjust="spacing" textLength="101" x="1528.5" y="232.4659">hash_value: int</text><text fill="#000000" font-family="sans-serif" font-size="14" lengthAdjust="spacing" textLength="99" x="1528.5" y="251.5339">response: bool</text><text fill="#000000" font-family="sans-serif" font-size="14" lengthAdjust="spacing" textLength="39" x="1528.5" y="270.6018">id: int</text><text fill="#000000" font-family="sans-serif" font-size="14" lengthAdjust="spacing" textLength="56" x="1528.5" y="289.6697">time: int</text><line style="stroke:#000000;stroke-width:1.5;" x1="1523.5" x2="1843.5" y1="297.7717" y2="297.7717"/><!--MD5=[ed3b4f61ae4357413f6a4acdb75d0542]
class MfxFastReadCommand--><rect codeLine="64" fill="#FFFFFF" filter="url(#fko0911w7ctn2)" height="124.2717" id="MfxFastReadCommand" rx="5" ry="5" style="stroke:#000000;stroke-width:1.5;" width="187" x="1880" y="181.5"/><ellipse cx="1895" cy="197.5" fill="#ADD1B2" rx="11" ry="11" style="stroke:#A80036;stroke-width:1.0;"/><path d="M1894.4688,204.4219 Q1892.7188,204.4219 1891.5781,203.6875 Q1890.4531,202.9375 1889.8906,201.5938 Q1889.3438,200.2344 1889.3438,198.4375 Q1889.3438,196.4063 1890,194.9531 Q1890.6563,193.5 1891.9375,192.7188 Q1893.2188,191.9375 1895.0938,191.9375 Q1895.9844,191.9375 1896.6563,192.125 Q1897.3281,192.2969 1898.0156,192.6406 L1897.2031,194.6563 Q1896.5781,194.3438 1896.0313,194.2188 Q1895.5,194.0938 1895.0156,194.0938 Q1893.8438,194.0938 1893.1406,194.625 Q1892.4375,195.1563 1892.1406,196.1094 Q1891.8438,197.0625 1891.8438,198.3281 Q1891.8438,200.3438 1892.5625,201.3125 Q1893.2813,202.2656 1894.875,202.2656 Q1895.4688,202.2656 1896.0938,202.1094 Q1896.7188,201.9531 1897.5469,201.5781 L1897.5469,203.7969 Q1896.8125,204.1094 1896.0156,204.2656 Q1895.2344,204.4219 1894.4688,204.4219 Z " fill="#000000"/><text fill="#000000" font-family="sans-serif" font-size="14" lengthAdjust="spacing" textLength="155" x="1909" y="202.932">MfxFastReadCommand</text><line style="stroke:#000000;stroke-width:1.5;" x1="1881" x2="2066" y1="213.5" y2="213.5"/><text fill="#000000" font-family="sans-serif" font-size="14" lengthAdjust="spacing" textLength="101" x="1886" y="232.4659">hash_value: int</text><text fill="#000000" font-family="sans-serif" font-size="14" lengthAdjust="spacing" textLength="99" x="1886" y="251.5339">response: bool</text><text fill="#000000" font-family="sans-serif" font-size="14" lengthAdjust="spacing" textLength="39" x="1886" y="270.6018">id: int</text><text fill="#000000" font-family="sans-serif" font-size="14" lengthAdjust="spacing" textLength="77" x="1886" y="289.6697">mfx_sid: int</text><line style="stroke:#000000;stroke-width:1.5;" x1="1881" x2="2066" y1="297.7717" y2="297.7717"/><!--MD5=[297b166ca97c314190acb907b8b7e088]
class EnableRailProtocolCommand--><rect codeLine="71" fill="#FFFFFF" filter="url(#fko0911w7ctn2)" height="124.2717" id="EnableRailProtocolCommand" rx="5" ry="5" style="stroke:#000000;stroke-width:1.5;" width="226" x="2102.5" y="181.5"/><ellipse cx="2117.5" cy="197.5" fill="#ADD1B2" rx="11" ry="11" style="stroke:#A80036;stroke-width:1.0;"/><path d="M2116.9688,204.4219 Q2115.2188,204.4219 2114.0781,203.6875 Q2112.9531,202.9375 2112.3906,201.5938 Q2111.8438,200.2344 2111.8438,198.4375 Q2111.8438,196.4063 2112.5,194.9531 Q2113.1563,193.5 2114.4375,192.7188 Q2115.7188,191.9375 2117.5938,191.9375 Q2118.4844,191.9375 2119.1563,192.125 Q2119.8281,192.2969 2120.5156,192.6406 L2119.7031,194.6563 Q2119.0781,194.3438 2118.5313,194.2188 Q2118,194.0938 2117.5156,194.0938 Q2116.3438,194.0938 2115.6406,194.625 Q2114.9375,195.1563 2114.6406,196.1094 Q2114.3438,197.0625 2114.3438,198.3281 Q2114.3438,200.3438 2115.0625,201.3125 Q2115.7813,202.2656 2117.375,202.2656 Q2117.9688,202.2656 2118.5938,202.1094 Q2119.2188,201.9531 2120.0469,201.5781 L2120.0469,203.7969 Q2119.3125,204.1094 2118.5156,204.2656 Q2117.7344,204.4219 2116.9688,204.4219 Z " fill="#000000"/><text fill="#000000" font-family="sans-serif" font-size="14" lengthAdjust="spacing" textLength="194" x="2131.5" y="202.932">EnableRailProtocolCommand</text><line style="stroke:#000000;stroke-width:1.5;" x1="2103.5" x2="2327.5" y1="213.5" y2="213.5"/><text fill="#000000" font-family="sans-serif" font-size="14" lengthAdjust="spacing" textLength="101" x="2108.5" y="232.4659">hash_value: int</text><text fill="#000000" font-family="sans-serif" font-size="14" lengthAdjust="spacing" textLength="99" x="2108.5" y="251.5339">response: bool</text><text fill="#000000" font-family="sans-serif" font-size="14" lengthAdjust="spacing" textLength="39" x="2108.5" y="270.6018">id: int</text><text fill="#000000" font-family="sans-serif" font-size="14" lengthAdjust="spacing" textLength="64" x="2108.5" y="289.6697">bitset: int</text><line style="stroke:#000000;stroke-width:1.5;" x1="2103.5" x2="2327.5" y1="297.7717" y2="297.7717"/><!--MD5=[b0f4a013a1db7fcc26d3efe1d721b769]
class SetMfxRegisterCounterCommand--><rect codeLine="78" fill="#FFFFFF" filter="url(#fko0911w7ctn2)" height="124.2717" id="SetMfxRegisterCounterCommand" rx="5" ry="5" style="stroke:#000000;stroke-width:1.5;" width="257" x="2364" y="181.5"/><ellipse cx="2379" cy="197.5" fill="#ADD1B2" rx="11" ry="11" style="stroke:#A80036;stroke-width:1.0;"/><path d="M2378.4688,204.4219 Q2376.7188,204.4219 2375.5781,203.6875 Q2374.4531,202.9375 2373.8906,201.5938 Q2373.3438,200.2344 2373.3438,198.4375 Q2373.3438,196.4063 2374,194.9531 Q2374.6563,193.5 2375.9375,192.7188 Q2377.2188,191.9375 2379.0938,191.9375 Q2379.9844,191.9375 2380.6563,192.125 Q2381.3281,192.2969 2382.0156,192.6406 L2381.2031,194.6563 Q2380.5781,194.3438 2380.0313,194.2188 Q2379.5,194.0938 2379.0156,194.0938 Q2377.8438,194.0938 2377.1406,194.625 Q2376.4375,195.1563 2376.1406,196.1094 Q2375.8438,197.0625 2375.8438,198.3281 Q2375.8438,200.3438 2376.5625,201.3125 Q2377.2813,202.2656 2378.875,202.2656 Q2379.4688,202.2656 2380.0938,202.1094 Q2380.7188,201.9531 2381.5469,201.5781 L2381.5469,203.7969 Q2380.8125,204.1094 2380.0156,204.2656 Q2379.2344,204.4219 2378.4688,204.4219 Z " fill="#000000"/><text fill="#000000" font-family="sans-serif" font-size="14" lengthAdjust="spacing" textLength="225" x="2393" y="202.932">SetMfxRegisterCounterCommand</text><line style="stroke:#000000;stroke-width:1.5;" x1="2365" x2="2620" y1="213.5" y2="213.5"/><text fill="#000000" font-family="sans-serif" font-size="14" lengthAdjust="spacing" textLength="101" x="2370" y="232.4659">hash_value: int</text><text fill="#000000" font-family="sans-serif" font-size="14" lengthAdjust="spacing" textLength="99" x="2370" y="251.5339">response: bool</text><text fill="#000000" font-family="sans-serif" font-size="14" lengthAdjust="spacing" textLength="39" x="2370" y="270.6018">id: int</text><text fill="#000000" font-family="sans-serif" font-size="14" lengthAdjust="spacing" textLength="78" x="2370" y="289.6697">counter: int</text><line style="stroke:#000000;stroke-width:1.5;" x1="2365" x2="2620" y1="297.7717" y2="297.7717"/><!--MD5=[5c538678d3787317aa66a81f263d33a5]
class SystemOverloadCommand--><rect codeLine="85" fill="#FFFFFF" filter="url(#fko0911w7ctn2)" height="124.2717" id="SystemOverloadCommand" rx="5" ry="5" style="stroke:#000000;stroke-width:1.5;" width="210" x="2656.5" y="181.5"/><ellipse cx="2671.5" cy="197.5" fill="#ADD1B2" rx="11" ry="11" style="stroke:#A80036;stroke-width:1.0;"/><path d="M2670.9688,204.4219 Q2669.2188,204.4219 2668.0781,203.6875 Q2666.9531,202.9375 2666.3906,201.5938 Q2665.8438,200.2344 2665.8438,198.4375 Q2665.8438,196.4063 2666.5,194.9531 Q2667.1563,193.5 2668.4375,192.7188 Q2669.7188,191.9375 2671.5938,191.9375 Q2672.4844,191.9375 2673.1563,192.125 Q2673.8281,192.2969 2674.5156,192.6406 L2673.7031,194.6563 Q2673.0781,194.3438 2672.5313,194.2188 Q2672,194.0938 2671.5156,194.0938 Q2670.3438,194.0938 2669.6406,194.625 Q2668.9375,195.1563 2668.6406,196.1094 Q2668.3438,197.0625 2668.3438,198.3281 Q2668.3438,200.3438 2669.0625,201.3125 Q2669.7813,202.2656 2671.375,202.2656 Q2671.9688,202.2656 2672.5938,202.1094 Q2673.2188,201.9531 2674.0469,201.5781 L2674.0469,203.7969 Q2673.3125,204.1094 2672.5156,204.2656 Q2671.7344,204.4219 2670.9688,204.4219 Z " fill="#000000"/><text fill="#000000" font-family="sans-serif" font-size="14" lengthAdjust="spacing" textLength="178" x="2685.5" y="202.932">SystemOverloadCommand</text><line style="stroke:#000000;stroke-width:1.5;" x1="2657.5" x2="2865.5" y1="213.5" y2="213.5"/><text fill="#000000" font-family="sans-serif" font-size="14" lengthAdjust="spacing" textLength="101" x="2662.5" y="232.4659">hash_value: int</text><text fill="#000000" font-family="sans-serif" font-size="14" lengthAdjust="spacing" textLength="99" x="2662.5" y="251.5339">response: bool</text><text fill="#000000" font-family="sans-serif" font-size="14" lengthAdjust="spacing" textLength="39" x="2662.5" y="270.6018">id: int</text><text fill="#000000" font-family="sans-serif" font-size="14" lengthAdjust="spacing" textLength="80" x="2662.5" y="289.6697">channel: int</text><line style="stroke:#000000;stroke-width:1.5;" x1="2657.5" x2="2865.5" y1="297.7717" y2="297.7717"/><!--MD5=[b79251e180e62c81ebfaa7ba25a33a57]
class SystemStatusCommand--><rect codeLine="92" fill="#FFFFFF" filter="url(#fko0911w7ctn2)" height="143.3396" id="SystemStatusCommand" rx="5" ry="5" style="stroke:#000000;stroke-width:1.5;" width="191" x="2902" y="172"/><ellipse cx="2917" cy="188" fill="#ADD1B2" rx="11" ry="11" style="stroke:#A80036;stroke-width:1.0;"/><path d="M2916.4688,194.9219 Q2914.7188,194.9219 2913.5781,194.1875 Q2912.4531,193.4375 2911.8906,192.0938 Q2911.3438,190.7344 2911.3438,188.9375 Q2911.3438,186.9063 2912,185.4531 Q2912.6563,184 2913.9375,183.2188 Q2915.2188,182.4375 2917.0938,182.4375 Q2917.9844,182.4375 2918.6563,182.625 Q2919.3281,182.7969 2920.0156,183.1406 L2919.2031,185.1563 Q2918.5781,184.8438 2918.0313,184.7188 Q2917.5,184.5938 2917.0156,184.5938 Q2915.8438,184.5938 2915.1406,185.125 Q2914.4375,185.6563 2914.1406,186.6094 Q2913.8438,187.5625 2913.8438,188.8281 Q2913.8438,190.8438 2914.5625,191.8125 Q2915.2813,192.7656 2916.875,192.7656 Q2917.4688,192.7656 2918.0938,192.6094 Q2918.7188,192.4531 2919.5469,192.0781 L2919.5469,194.2969 Q2918.8125,194.6094 2918.0156,194.7656 Q2917.2344,194.9219 2916.4688,194.9219 Z " fill="#000000"/><text fill="#000000" font-family="sans-serif" font-size="14" lengthAdjust="spacing" textLength="159" x="2931" y="193.432">SystemStatusCommand</text><line style="stroke:#000000;stroke-width:1.5;" x1="2903" x2="3092" y1="204" y2="204"/><text fill="#000000" font-family="sans-serif" font-size="14" lengthAdjust="spacing" textLength="101" x="2908" y="222.9659">hash_value: int</text><text fill="#000000" font-family="sans-serif" font-size="14" lengthAdjust="spacing" textLength="99" x="2908" y="242.0339">response: bool</text><text fill="#000000" font-family="sans-serif" font-size="14" lengthAdjust="spacing" textLength="39" x="2908" y="261.1018">id: int</text><text fill="#000000" font-family="sans-serif" font-size="14" lengthAdjust="spacing" textLength="80" x="2908" y="280.1697">channel: int</text><text fill="#000000" font-family="sans-serif" font-size="14" lengthAdjust="spacing" textLength="136" x="2908" y="299.2376">measured_value: int</text><line style="stroke:#000000;stroke-width:1.5;" x1="2903" x2="3092" y1="307.3396" y2="307.3396"/><!--MD5=[89529e7a4ae7dbd880e894799192621b]
class SetSystemIdentifierCommand--><rect codeLine="100" fill="#FFFFFF" filter="url(#fko0911w7ctn2)" height="124.2717" id="SetSystemIdentifierCommand" rx="5" ry="5" style="stroke:#000000;stroke-width:1.5;" width="233" x="3128" y="181.5"/><ellipse cx="3143" cy="197.5" fill="#ADD1B2" rx="11" ry="11" style="stroke:#A80036;stroke-width:1.0;"/><path d="M3142.4688,204.4219 Q3140.7188,204.4219 3139.5781,203.6875 Q3138.4531,202.9375 3137.8906,201.5938 Q3137.3438,200.2344 3137.3438,198.4375 Q3137.3438,196.4063 3138,194.9531 Q3138.6563,193.5 3139.9375,192.7188 Q3141.2188,191.9375 3143.0938,191.9375 Q3143.9844,191.9375 3144.6563,192.125 Q3145.3281,192.2969 3146.0156,192.6406 L3145.2031,194.6563 Q3144.5781,194.3438 3144.0313,194.2188 Q3143.5,194.0938 3143.0156,194.0938 Q3141.8438,194.0938 3141.1406,194.625 Q3140.4375,195.1563 3140.1406,196.1094 Q3139.8438,197.0625 3139.8438,198.3281 Q3139.8438,200.3438 3140.5625,201.3125 Q3141.2813,202.2656 3142.875,202.2656 Q3143.4688,202.2656 3144.0938,202.1094 Q3144.7188,201.9531 3145.5469,201.5781 L3145.5469,203.7969 Q3144.8125,204.1094 3144.0156,204.2656 Q3143.2344,204.4219 3142.4688,204.4219 Z " fill="#000000"/><text fill="#000000" font-family="sans-serif" font-size="14" lengthAdjust="spacing" textLength="201" x="3157" y="202.932">SetSystemIdentifierCommand</text><line style="stroke:#000000;stroke-width:1.5;" x1="3129" x2="3360" y1="213.5" y2="213.5"/><text fill="#000000" font-family="sans-serif" font-size="14" lengthAdjust="spacing" textLength="101" x="3134" y="232.4659">hash_value: int</text><text fill="#000000" font-family="sans-serif" font-size="14" lengthAdjust="spacing" textLength="99" x="3134" y="251.5339">response: bool</text><text fill="#000000" font-family="sans-serif" font-size="14" lengthAdjust="spacing" textLength="39" x="3134" y="270.6018">id: int</text><text fill="#000000" font-family="sans-serif" font-size="14" lengthAdjust="spacing" textLength="92" x="3134" y="289.6697">system_id: int</text><line style="stroke:#000000;stroke-width:1.5;" x1="3129" x2="3360" y1="297.7717" y2="297.7717"/><!--MD5=[ff0d372f427625d027117a5ea2e3ea14]
class MfxSeekCommand--><rect codeLine="107" fill="#FFFFFF" filter="url(#fko0911w7ctn2)" height="105.2038" id="MfxSeekCommand" rx="5" ry="5" style="stroke:#000000;stroke-width:1.5;" width="157" x="3396" y="191"/><ellipse cx="3411" cy="207" fill="#ADD1B2" rx="11" ry="11" style="stroke:#A80036;stroke-width:1.0;"/><path d="M3410.4688,213.9219 Q3408.7188,213.9219 3407.5781,213.1875 Q3406.4531,212.4375 3405.8906,211.0938 Q3405.3438,209.7344 3405.3438,207.9375 Q3405.3438,205.9063 3406,204.4531 Q3406.6563,203 3407.9375,202.2188 Q3409.2188,201.4375 3411.0938,201.4375 Q3411.9844,201.4375 3412.6563,201.625 Q3413.3281,201.7969 3414.0156,202.1406 L3413.2031,204.1563 Q3412.5781,203.8438 3412.0313,203.7188 Q3411.5,203.5938 3411.0156,203.5938 Q3409.8438,203.5938 3409.1406,204.125 Q3408.4375,204.6563 3408.1406,205.6094 Q3407.8438,206.5625 3407.8438,207.8281 Q3407.8438,209.8438 3408.5625,210.8125 Q3409.2813,211.7656 3410.875,211.7656 Q3411.4688,211.7656 3412.0938,211.6094 Q3412.7188,211.4531 3413.5469,211.0781 L3413.5469,213.2969 Q3412.8125,213.6094 3412.0156,213.7656 Q3411.2344,213.9219 3410.4688,213.9219 Z " fill="#000000"/><text fill="#000000" font-family="sans-serif" font-size="14" lengthAdjust="spacing" textLength="125" x="3425" y="212.432">MfxSeekCommand</text><line style="stroke:#000000;stroke-width:1.5;" x1="3397" x2="3552" y1="223" y2="223"/><text fill="#000000" font-family="sans-serif" font-size="14" lengthAdjust="spacing" textLength="101" x="3402" y="241.9659">hash_value: int</text><text fill="#000000" font-family="sans-serif" font-size="14" lengthAdjust="spacing" textLength="99" x="3402" y="261.0339">response: bool</text><text fill="#000000" font-family="sans-serif" font-size="14" lengthAdjust="spacing" textLength="39" x="3402" y="280.1018">id: int</text><line style="stroke:#000000;stroke-width:1.5;" x1="3397" x2="3552" y1="288.2038" y2="288.2038"/><!--MD5=[ef531ae1998bc563ee6c004ea0122abc]
class SystemResetCommand--><rect codeLine="113" fill="#FFFFFF" filter="url(#fko0911w7ctn2)" height="124.2717" id="SystemResetCommand" rx="5" ry="5" style="stroke:#000000;stroke-width:1.5;" width="186" x="3588.5" y="181.5"/><ellipse cx="3603.5" cy="197.5" fill="#ADD1B2" rx="11" ry="11" style="stroke:#A80036;stroke-width:1.0;"/><path d="M3602.9688,204.4219 Q3601.2188,204.4219 3600.0781,203.6875 Q3598.9531,202.9375 3598.3906,201.5938 Q3597.8438,200.2344 3597.8438,198.4375 Q3597.8438,196.4063 3598.5,194.9531 Q3599.1563,193.5 3600.4375,192.7188 Q3601.7188,191.9375 3603.5938,191.9375 Q3604.4844,191.9375 3605.1563,192.125 Q3605.8281,192.2969 3606.5156,192.6406 L3605.7031,194.6563 Q3605.0781,194.3438 3604.5313,194.2188 Q3604,194.0938 3603.5156,194.0938 Q3602.3438,194.0938 3601.6406,194.625 Q3600.9375,195.1563 3600.6406,196.1094 Q3600.3438,197.0625 3600.3438,198.3281 Q3600.3438,200.3438 3601.0625,201.3125 Q3601.7813,202.2656 3603.375,202.2656 Q3603.9688,202.2656 3604.5938,202.1094 Q3605.2188,201.9531 3606.0469,201.5781 L3606.0469,203.7969 Q3605.3125,204.1094 3604.5156,204.2656 Q3603.7344,204.4219 3602.9688,204.4219 Z " fill="#000000"/><text fill="#000000" font-family="sans-serif" font-size="14" lengthAdjust="spacing" textLength="154" x="3617.5" y="202.932">SystemResetCommand</text><line style="stroke:#000000;stroke-width:1.5;" x1="3589.5" x2="3773.5" y1="213.5" y2="213.5"/><text fill="#000000" font-family="sans-serif" font-size="14" lengthAdjust="spacing" textLength="101" x="3594.5" y="232.4659">hash_value: int</text><text fill="#000000" font-family="sans-serif" font-size="14" lengthAdjust="spacing" textLength="99" x="3594.5" y="251.5339">response: bool</text><text fill="#000000" font-family="sans-serif" font-size="14" lengthAdjust="spacing" textLength="39" x="3594.5" y="270.6018">id: int</text><text fill="#000000" font-family="sans-serif" font-size="14" lengthAdjust="spacing" textLength="67" x="3594.5" y="289.6697">target: int</text><line style="stroke:#000000;stroke-width:1.5;" x1="3589.5" x2="3773.5" y1="297.7717" y2="297.7717"/><!--MD5=[001b1b3bd6ff73201d6f136f13d5549c]
reverse link AbstractSystemCommand to SystemStopCommand--><path codeLine="25" d="M1857.19,21 C1857.19,21 96.5,21 96.5,21 C96.5,21 96.5,124.97 96.5,190.77 " fill="none" id="AbstractSystemCommand-backto-SystemStopCommand" style="stroke:#000000;stroke-width:2.0;"/><polygon fill="none" points="1857.19,14,1877.19,21,1857.19,28,1857.19,14" style="stroke:#000000;stroke-width:2.0;"/><!--MD5=[33e9635075af9bba82eca77ec0b8b999]
reverse link AbstractSystemCommand to SystemGoCommand--><path codeLine="31" d="M1857.47,34 C1857.47,34 304.5,34 304.5,34 C304.5,34 304.5,128.85 304.5,190.9 " fill="none" id="AbstractSystemCommand-backto-SystemGoCommand" style="stroke:#000000;stroke-width:2.0;"/><polygon fill="none" points="1857.47,27,1877.47,34,1857.47,41,1857.47,27" style="stroke:#000000;stroke-width:2.0;"/><!--MD5=[c674e439ad6ab0e3b25628d07c44026e]
reverse link AbstractSystemCommand to SystemHaltCommand--><path codeLine="37" d="M1857.23,47 C1857.23,47 510.5,47 510.5,47 C510.5,47 510.5,132.64 510.5,190.84 " fill="none" id="AbstractSystemCommand-backto-SystemHaltCommand" style="stroke:#000000;stroke-width:2.0;"/><polygon fill="none" points="1857.23,40,1877.23,47,1857.23,54,1857.23,40" style="stroke:#000000;stroke-width:2.0;"/><!--MD5=[8ec0d567976f5869c79bbf5cf7cdd06b]
reverse link AbstractSystemCommand to LocomotiveEmergencyStopCommand--><path codeLine="43" d="M1857.41,60 C1857.41,60 774.5,60 774.5,60 C774.5,60 774.5,136.69 774.5,190.92 " fill="none" id="AbstractSystemCommand-backto-LocomotiveEmergencyStopCommand" style="stroke:#000000;stroke-width:2.0;"/><polygon fill="none" points="1857.41,53,1877.41,60,1857.41,67,1857.41,53" style="stroke:#000000;stroke-width:2.0;"/><!--MD5=[fac4452db2b2d15b752415b55f2205a3]
reverse link AbstractSystemCommand to LocomotiveCycleStopCommand--><path codeLine="49" d="M1857.29,73 C1857.29,73 1070.5,73 1070.5,73 C1070.5,73 1070.5,140.86 1070.5,190.95 " fill="none" id="AbstractSystemCommand-backto-LocomotiveCycleStopCommand" style="stroke:#000000;stroke-width:2.0;"/><polygon fill="none" points="1857.29,66,1877.29,73,1857.29,80,1857.29,66" style="stroke:#000000;stroke-width:2.0;"/><!--MD5=[899c6fac741151934c49ca1ff5dc164a]
reverse link AbstractSystemCommand to LocomotiveDataProtocolCommand--><path codeLine="56" d="M1857.43,86 C1857.43,86 1356.5,86 1356.5,86 C1356.5,86 1356.5,137.23 1356.5,181.25 " fill="none" id="AbstractSystemCommand-backto-LocomotiveDataProtocolCommand" style="stroke:#000000;stroke-width:2.0;"/><polygon fill="none" points="1857.43,79,1877.43,86,1857.43,93,1857.43,79" style="stroke:#000000;stroke-width:2.0;"/><!--MD5=[d58764a450fae621a209092dc2640293]
reverse link AbstractSystemCommand to AccessoryDecoderSwitchingTimeCommand--><path codeLine="63" d="M1857.34,99 C1857.34,99 1683.5,99 1683.5,99 C1683.5,99 1683.5,142.22 1683.5,181.38 " fill="none" id="AbstractSystemCommand-backto-AccessoryDecoderSwitchingTimeCommand" style="stroke:#000000;stroke-width:2.0;"/><polygon fill="none" points="1857.34,92,1877.34,99,1857.34,106,1857.34,92" style="stroke:#000000;stroke-width:2.0;"/><!--MD5=[7312639be904cabc822f8c5b2e2dc5aa]
reverse link AbstractSystemCommand to MfxFastReadCommand--><path codeLine="70" d="M1942.33,132.23 C1942.33,132.23 1942.33,181.33 1942.33,181.33 " fill="none" id="AbstractSystemCommand-backto-MfxFastReadCommand" style="stroke:#000000;stroke-width:2.0;"/><polygon fill="none" points="1935.33,132.23,1942.33,112.23,1949.33,132.23,1935.33,132.23" style="stroke:#000000;stroke-width:2.0;"/><!--MD5=[1b814146325b13505fe7044033fea172]
reverse link AbstractSystemCommand to EnableRailProtocolCommand--><path codeLine="77" d="M2089.84,97 C2089.84,97 2215.5,97 2215.5,97 C2215.5,97 2215.5,141.44 2215.5,181.37 " fill="none" id="AbstractSystemCommand-backto-EnableRailProtocolCommand" style="stroke:#000000;stroke-width:2.0;"/><polygon fill="none" points="2089.84,104,2069.84,97,2089.84,90,2089.84,104" style="stroke:#000000;stroke-width:2.0;"/><!--MD5=[4d1341958f7dc2cff32a6982211681a6]
reverse link AbstractSystemCommand to SetMfxRegisterCounterCommand--><path codeLine="84" d="M2089.6,82 C2089.6,82 2492.5,82 2492.5,82 C2492.5,82 2492.5,135.61 2492.5,181.06 " fill="none" id="AbstractSystemCommand-backto-SetMfxRegisterCounterCommand" style="stroke:#000000;stroke-width:2.0;"/><polygon fill="none" points="2089.6,89,2069.6,82,2089.6,75,2089.6,89" style="stroke:#000000;stroke-width:2.0;"/><!--MD5=[24d5bd415721a7026e8f775cd764bb16]
reverse link AbstractSystemCommand to SystemOverloadCommand--><path codeLine="91" d="M2089.73,67 C2089.73,67 2761.5,67 2761.5,67 C2761.5,67 2761.5,130.46 2761.5,181.27 " fill="none" id="AbstractSystemCommand-backto-SystemOverloadCommand" style="stroke:#000000;stroke-width:2.0;"/><polygon fill="none" points="2089.73,74,2069.73,67,2089.73,60,2089.73,74" style="stroke:#000000;stroke-width:2.0;"/><!--MD5=[2d399aafa0ac570bd6e8892e23428b56]
reverse link AbstractSystemCommand to SystemStatusCommand--><path codeLine="99" d="M2004.67,132.06 C2004.67,132.06 2004.67,177 2004.67,177 C2004.67,177 2653.02,177 2901.85,177 " fill="none" id="AbstractSystemCommand-backto-SystemStatusCommand" style="stroke:#000000;stroke-width:2.0;"/><polygon fill="none" points="1997.67,132.06,2004.67,112.06,2011.67,132.06,1997.67,132.06" style="stroke:#000000;stroke-width:2.0;"/><!--MD5=[21f0670f2940500637477cd5c3d084f5]
reverse link AbstractSystemCommand to SetSystemIdentifierCommand--><path codeLine="106" d="M2089.55,52 C2089.55,52 3244.5,52 3244.5,52 C3244.5,52 3244.5,125.41 3244.5,181.33 " fill="none" id="AbstractSystemCommand-backto-SetSystemIdentifierCommand" style="stroke:#000000;stroke-width:2.0;"/><polygon fill="none" points="2089.55,59,2069.55,52,2089.55,45,2089.55,59" style="stroke:#000000;stroke-width:2.0;"/><!--MD5=[ac0b3754faa8bf350c5b4a0acaf3747f]
reverse link AbstractSystemCommand to MfxSeekCommand--><path codeLine="112" d="M2089.68,37 C2089.68,37 3474.5,37 3474.5,37 C3474.5,37 3474.5,129.68 3474.5,190.86 " fill="none" id="AbstractSystemCommand-backto-MfxSeekCommand" style="stroke:#000000;stroke-width:2.0;"/><polygon fill="none" points="2089.68,44,2069.68,37,2089.68,30,2089.68,44" style="stroke:#000000;stroke-width:2.0;"/><!--MD5=[a7ed9c90e7db4d4eb58b6ae7ed1611b2]
reverse link AbstractSystemCommand to SystemResetCommand--><path codeLine="119" d="M2089.61,22 C2089.61,22 3681.5,22 3681.5,22 C3681.5,22 3681.5,115.7 3681.5,181.21 " fill="none" id="AbstractSystemCommand-backto-SystemResetCommand" style="stroke:#000000;stroke-width:2.0;"/><polygon fill="none" points="2089.61,29,2069.61,22,2089.61,15,2089.61,29" style="stroke:#000000;stroke-width:2.0;"/><!--MD5=[f280b23817bd850692f661228e1484f6]
@startuml
skinparam useBetaStyle true
skinparam linetype ortho

<style>
    classDiagram{
        FontColor Black
        BackgroundColor White
        LineThickness 2
        LineColor Black
        RoundCorner 10
    }
</style>

class AbstractSystemCommand {
hash_value: int
response: bool
id: int
}
abstract class AbstractSystemCommand
class SystemStopCommand {
hash_value: int
response: bool
id: int
}
AbstractSystemCommand <|- - SystemStopCommand
class SystemGoCommand {
hash_value: int
response: bool
id: int
}
AbstractSystemCommand <|- - SystemGoCommand
class SystemHaltCommand {
hash_value: int
response: bool
id: int
}
AbstractSystemCommand <|- - SystemHaltCommand
class LocomotiveEmergencyStopCommand {
hash_value: int
response: bool
id: int
}
AbstractSystemCommand <|- - LocomotiveEmergencyStopCommand
class LocomotiveCycleStopCommand {
hash_value: int
response: bool
id: int
}
AbstractSystemCommand <|- - LocomotiveCycleStopCommand
class LocomotiveDataProtocolCommand {
hash_value: int
response: bool
id: int
protocol: RailProtocolSchema
}
AbstractSystemCommand <|- - LocomotiveDataProtocolCommand
class AccessoryDecoderSwitchingTimeCommand {
hash_value: int
response: bool
id: int
time: int
}
AbstractSystemCommand <|- - AccessoryDecoderSwitchingTimeCommand
class MfxFastReadCommand {
hash_value: int
response: bool
id: int
mfx_sid: int
}
AbstractSystemCommand <|- - MfxFastReadCommand
class EnableRailProtocolCommand {
hash_value: int
response: bool
id: int
bitset: int
}
AbstractSystemCommand <|- - EnableRailProtocolCommand
class SetMfxRegisterCounterCommand {
hash_value: int
response: bool
id: int
counter: int
}
AbstractSystemCommand <|- - SetMfxRegisterCounterCommand
class SystemOverloadCommand {
hash_value: int
response: bool
id: int
channel: int
}
AbstractSystemCommand <|- - SystemOverloadCommand
class SystemStatusCommand {
hash_value: int
response: bool
id: int
channel: int
measured_value: int
}
AbstractSystemCommand <|- - SystemStatusCommand
class SetSystemIdentifierCommand {
hash_value: int
response: bool
id: int
system_id: int
}
AbstractSystemCommand <|- - SetSystemIdentifierCommand
class MfxSeekCommand {
hash_value: int
response: bool
id: int
}
AbstractSystemCommand <|- - MfxSeekCommand
class SystemResetCommand {
hash_value: int
response: bool
id: int
target: int
}
AbstractSystemCommand <|- - SystemResetCommand
@enduml

PlantUML version 1.2021.16(Wed Dec 08 18:25:22 CET 2021)
(GPL source distribution)
Java Runtime: OpenJDK Runtime Environment
JVM: OpenJDK 64-Bit Server VM
Default Encoding: UTF-8
Language: en
Country: US
--></g></svg>