<?xml version="1.0" encoding="UTF-8" standalone="no"?><svg xmlns="http://www.w3.org/2000/svg" xmlns:xlink="http://www.w3.org/1999/xlink" contentScriptType="application/ecmascript" contentStyleType="text/css" height="386px" preserveAspectRatio="none" style="width:1741px;height:386px;background:#FFFFFF;" version="1.1" viewBox="0 0 1741 386" width="1741px" zoomAndPan="magnify"><defs><filter height="300%" id="fs6q77ru42219" width="300%" x="-1" y="-1"><feGaussianBlur result="blurOut" stdDeviation="2.0"/><feColorMatrix in="blurOut" result="blurOut2" type="matrix" values="0 0 0 0 0 0 0 0 0 0 0 0 0 0 0 0 0 0 .4 0"/><feOffset dx="4.0" dy="4.0" in="blurOut2" result="blurOut3"/><feBlend in="SourceGraphic" in2="blurOut3" mode="normal"/></filter></defs><g><!--MD5=[99d70f749ab1b015a79e4fc14cb87d50]
class AbstractLocIDCommand--><rect codeLine="19" fill="#FFFFFF" filter="url(#fs6q77ru42219)" height="105.2038" id="AbstractLocIDCommand" rx="5" ry="5" style="stroke:#000000;stroke-width:1.5;" width="183" x="800.5" y="7"/><ellipse cx="815.5" cy="23" fill="#A9DCDF" rx="11" ry="11" style="stroke:#A80036;stroke-width:1.0;"/><path d="M810.6719,28.75 L814.0156,16.5625 L817.1563,16.5625 L820.5313,28.75 L818.0625,28.75 L817.3281,25.7344 L813.8125,25.7344 L813.0625,28.75 L810.6719,28.75 Z M815.0781,20.7031 L814.3281,23.7031 L816.8438,23.7031 L816.125,20.7031 Q815.9844,20.125 815.8594,19.5781 Q815.7344,19.0156 815.5938,18.4375 Q815.4844,19.0156 815.3438,19.5781 Q815.2031,20.125 815.0781,20.7031 Z " fill="#000000"/><text fill="#000000" font-family="sans-serif" font-size="14" font-style="italic" lengthAdjust="spacing" textLength="151" x="829.5" y="28.432">AbstractLocIDCommand</text><line style="stroke:#000000;stroke-width:1.5;" x1="801.5" x2="982.5" y1="39" y2="39"/><text fill="#000000" font-family="sans-serif" font-size="14" lengthAdjust="spacing" textLength="101" x="806.5" y="57.9659">hash_value: int</text><text fill="#000000" font-family="sans-serif" font-size="14" lengthAdjust="spacing" textLength="99" x="806.5" y="77.0339">response: bool</text><text fill="#000000" font-family="sans-serif" font-size="14" lengthAdjust="spacing" textLength="64" x="806.5" y="96.1018">loc_id: int</text><line style="stroke:#000000;stroke-width:1.5;" x1="801.5" x2="982.5" y1="104.2038" y2="104.2038"/><!--MD5=[8e60bf73ca36158575d9cee4ff5e070b]
class LocomotiveSpeedCommand--><rect codeLine="20" fill="#FFFFFF" filter="url(#fs6q77ru42219)" height="124.2717" id="LocomotiveSpeedCommand" rx="5" ry="5" style="stroke:#000000;stroke-width:1.5;" width="218" x="7" y="210.5"/><ellipse cx="22" cy="226.5" fill="#ADD1B2" rx="11" ry="11" style="stroke:#A80036;stroke-width:1.0;"/><path d="M21.4688,233.4219 Q19.7188,233.4219 18.5781,232.6875 Q17.4531,231.9375 16.8906,230.5938 Q16.3438,229.2344 16.3438,227.4375 Q16.3438,225.4063 17,223.9531 Q17.6563,222.5 18.9375,221.7188 Q20.2188,220.9375 22.0938,220.9375 Q22.9844,220.9375 23.6563,221.125 Q24.3281,221.2969 25.0156,221.6406 L24.2031,223.6563 Q23.5781,223.3438 23.0313,223.2188 Q22.5,223.0938 22.0156,223.0938 Q20.8438,223.0938 20.1406,223.625 Q19.4375,224.1563 19.1406,225.1094 Q18.8438,226.0625 18.8438,227.3281 Q18.8438,229.3438 19.5625,230.3125 Q20.2813,231.2656 21.875,231.2656 Q22.4688,231.2656 23.0938,231.1094 Q23.7188,230.9531 24.5469,230.5781 L24.5469,232.7969 Q23.8125,233.1094 23.0156,233.2656 Q22.2344,233.4219 21.4688,233.4219 Z " fill="#000000"/><text fill="#000000" font-family="sans-serif" font-size="14" lengthAdjust="spacing" textLength="186" x="36" y="231.932">LocomotiveSpeedCommand</text><line style="stroke:#000000;stroke-width:1.5;" x1="8" x2="224" y1="242.5" y2="242.5"/><text fill="#000000" font-family="sans-serif" font-size="14" lengthAdjust="spacing" textLength="101" x="13" y="261.4659">hash_value: int</text><text fill="#000000" font-family="sans-serif" font-size="14" lengthAdjust="spacing" textLength="99" x="13" y="280.5339">response: bool</text><text fill="#000000" font-family="sans-serif" font-size="14" lengthAdjust="spacing" textLength="64" x="13" y="299.6018">loc_id: int</text><text fill="#000000" font-family="sans-serif" font-size="14" lengthAdjust="spacing" textLength="67" x="13" y="318.6697">speed: int</text><line style="stroke:#000000;stroke-width:1.5;" x1="8" x2="224" y1="326.7717" y2="326.7717"/><!--MD5=[822dee218b2ab1b42d663c6471ecf6e7]
class LocomotiveDirectionCommand--><rect codeLine="27" fill="#FFFFFF" filter="url(#fs6q77ru42219)" height="124.2717" id="LocomotiveDirectionCommand" rx="5" ry="5" style="stroke:#000000;stroke-width:1.5;" width="237" x="260.5" y="210.5"/><ellipse cx="275.5" cy="226.5" fill="#ADD1B2" rx="11" ry="11" style="stroke:#A80036;stroke-width:1.0;"/><path d="M274.9688,233.4219 Q273.2188,233.4219 272.0781,232.6875 Q270.9531,231.9375 270.3906,230.5938 Q269.8438,229.2344 269.8438,227.4375 Q269.8438,225.4063 270.5,223.9531 Q271.1563,222.5 272.4375,221.7188 Q273.7188,220.9375 275.5938,220.9375 Q276.4844,220.9375 277.1563,221.125 Q277.8281,221.2969 278.5156,221.6406 L277.7031,223.6563 Q277.0781,223.3438 276.5313,223.2188 Q276,223.0938 275.5156,223.0938 Q274.3438,223.0938 273.6406,223.625 Q272.9375,224.1563 272.6406,225.1094 Q272.3438,226.0625 272.3438,227.3281 Q272.3438,229.3438 273.0625,230.3125 Q273.7813,231.2656 275.375,231.2656 Q275.9688,231.2656 276.5938,231.1094 Q277.2188,230.9531 278.0469,230.5781 L278.0469,232.7969 Q277.3125,233.1094 276.5156,233.2656 Q275.7344,233.4219 274.9688,233.4219 Z " fill="#000000"/><text fill="#000000" font-family="sans-serif" font-size="14" lengthAdjust="spacing" textLength="205" x="289.5" y="231.932">LocomotiveDirectionCommand</text><line style="stroke:#000000;stroke-width:1.5;" x1="261.5" x2="496.5" y1="242.5" y2="242.5"/><text fill="#000000" font-family="sans-serif" font-size="14" lengthAdjust="spacing" textLength="101" x="266.5" y="261.4659">hash_value: int</text><text fill="#000000" font-family="sans-serif" font-size="14" lengthAdjust="spacing" textLength="99" x="266.5" y="280.5339">response: bool</text><text fill="#000000" font-family="sans-serif" font-size="14" lengthAdjust="spacing" textLength="64" x="266.5" y="299.6018">loc_id: int</text><text fill="#000000" font-family="sans-serif" font-size="14" lengthAdjust="spacing" textLength="204" x="266.5" y="318.6697">direction: LocomotiveDirection</text><line style="stroke:#000000;stroke-width:1.5;" x1="261.5" x2="496.5" y1="326.7717" y2="326.7717"/><!--MD5=[f8fa7f57db5aa8937c47045cb68a0892]
class LocomotiveFunctionCommand--><rect codeLine="34" fill="#FFFFFF" filter="url(#fs6q77ru42219)" height="162.4075" id="LocomotiveFunctionCommand" rx="5" ry="5" style="stroke:#000000;stroke-width:1.5;" width="234" x="533" y="191.5"/><ellipse cx="548" cy="207.5" fill="#ADD1B2" rx="11" ry="11" style="stroke:#A80036;stroke-width:1.0;"/><path d="M547.4688,214.4219 Q545.7188,214.4219 544.5781,213.6875 Q543.4531,212.9375 542.8906,211.5938 Q542.3438,210.2344 542.3438,208.4375 Q542.3438,206.4063 543,204.9531 Q543.6563,203.5 544.9375,202.7188 Q546.2188,201.9375 548.0938,201.9375 Q548.9844,201.9375 549.6563,202.125 Q550.3281,202.2969 551.0156,202.6406 L550.2031,204.6563 Q549.5781,204.3438 549.0313,204.2188 Q548.5,204.0938 548.0156,204.0938 Q546.8438,204.0938 546.1406,204.625 Q545.4375,205.1563 545.1406,206.1094 Q544.8438,207.0625 544.8438,208.3281 Q544.8438,210.3438 545.5625,211.3125 Q546.2813,212.2656 547.875,212.2656 Q548.4688,212.2656 549.0938,212.1094 Q549.7188,211.9531 550.5469,211.5781 L550.5469,213.7969 Q549.8125,214.1094 549.0156,214.2656 Q548.2344,214.4219 547.4688,214.4219 Z " fill="#000000"/><text fill="#000000" font-family="sans-serif" font-size="14" lengthAdjust="spacing" textLength="202" x="562" y="212.932">LocomotiveFunctionCommand</text><line style="stroke:#000000;stroke-width:1.5;" x1="534" x2="766" y1="223.5" y2="223.5"/><text fill="#000000" font-family="sans-serif" font-size="14" lengthAdjust="spacing" textLength="101" x="539" y="242.4659">hash_value: int</text><text fill="#000000" font-family="sans-serif" font-size="14" lengthAdjust="spacing" textLength="99" x="539" y="261.5339">response: bool</text><text fill="#000000" font-family="sans-serif" font-size="14" lengthAdjust="spacing" textLength="64" x="539" y="280.6018">loc_id: int</text><text fill="#000000" font-family="sans-serif" font-size="14" lengthAdjust="spacing" textLength="82" x="539" y="299.6697">function: int</text><text fill="#000000" font-family="sans-serif" font-size="14" lengthAdjust="spacing" textLength="62" x="539" y="318.7376">value: int</text><text fill="#000000" font-family="sans-serif" font-size="14" lengthAdjust="spacing" textLength="124" x="539" y="337.8055">function_value: int</text><line style="stroke:#000000;stroke-width:1.5;" x1="534" x2="766" y1="345.9075" y2="345.9075"/><!--MD5=[98e1f33acd8d299516fc291910580a16]
class ReadConfigCommand--><rect codeLine="43" fill="#FFFFFF" filter="url(#fs6q77ru42219)" height="181.4754" id="ReadConfigCommand" rx="5" ry="5" style="stroke:#000000;stroke-width:1.5;" width="179" x="802.5" y="182"/><ellipse cx="817.5" cy="198" fill="#ADD1B2" rx="11" ry="11" style="stroke:#A80036;stroke-width:1.0;"/><path d="M816.9688,204.9219 Q815.2188,204.9219 814.0781,204.1875 Q812.9531,203.4375 812.3906,202.0938 Q811.8438,200.7344 811.8438,198.9375 Q811.8438,196.9063 812.5,195.4531 Q813.1563,194 814.4375,193.2188 Q815.7188,192.4375 817.5938,192.4375 Q818.4844,192.4375 819.1563,192.625 Q819.8281,192.7969 820.5156,193.1406 L819.7031,195.1563 Q819.0781,194.8438 818.5313,194.7188 Q818,194.5938 817.5156,194.5938 Q816.3438,194.5938 815.6406,195.125 Q814.9375,195.6563 814.6406,196.6094 Q814.3438,197.5625 814.3438,198.8281 Q814.3438,200.8438 815.0625,201.8125 Q815.7813,202.7656 817.375,202.7656 Q817.9688,202.7656 818.5938,202.6094 Q819.2188,202.4531 820.0469,202.0781 L820.0469,204.2969 Q819.3125,204.6094 818.5156,204.7656 Q817.7344,204.9219 816.9688,204.9219 Z " fill="#000000"/><text fill="#000000" font-family="sans-serif" font-size="14" lengthAdjust="spacing" textLength="147" x="831.5" y="203.432">ReadConfigCommand</text><line style="stroke:#000000;stroke-width:1.5;" x1="803.5" x2="980.5" y1="214" y2="214"/><text fill="#000000" font-family="sans-serif" font-size="14" lengthAdjust="spacing" textLength="101" x="808.5" y="232.9659">hash_value: int</text><text fill="#000000" font-family="sans-serif" font-size="14" lengthAdjust="spacing" textLength="99" x="808.5" y="252.0339">response: bool</text><text fill="#000000" font-family="sans-serif" font-size="14" lengthAdjust="spacing" textLength="64" x="808.5" y="271.1018">loc_id: int</text><text fill="#000000" font-family="sans-serif" font-size="14" lengthAdjust="spacing" textLength="63" x="808.5" y="290.1697">index: int</text><text fill="#000000" font-family="sans-serif" font-size="14" lengthAdjust="spacing" textLength="80" x="808.5" y="309.2376">number: int</text><text fill="#000000" font-family="sans-serif" font-size="14" lengthAdjust="spacing" textLength="64" x="808.5" y="328.3055">count: int</text><text fill="#000000" font-family="sans-serif" font-size="14" lengthAdjust="spacing" textLength="62" x="808.5" y="347.3734">value: int</text><line style="stroke:#000000;stroke-width:1.5;" x1="803.5" x2="980.5" y1="355.4754" y2="355.4754"/><!--MD5=[eabc65eba375f94812ecd951990328ef]
class WriteConfigCommand--><rect codeLine="53" fill="#FFFFFF" filter="url(#fs6q77ru42219)" height="200.5433" id="WriteConfigCommand" rx="5" ry="5" style="stroke:#000000;stroke-width:1.5;" width="225" x="1016.5" y="172"/><ellipse cx="1051.3" cy="188" fill="#ADD1B2" rx="11" ry="11" style="stroke:#A80036;stroke-width:1.0;"/><path d="M1050.7688,194.9219 Q1049.0188,194.9219 1047.8781,194.1875 Q1046.7531,193.4375 1046.1906,192.0938 Q1045.6438,190.7344 1045.6438,188.9375 Q1045.6438,186.9063 1046.3,185.4531 Q1046.9563,184 1048.2375,183.2188 Q1049.5188,182.4375 1051.3938,182.4375 Q1052.2844,182.4375 1052.9563,182.625 Q1053.6281,182.7969 1054.3156,183.1406 L1053.5031,185.1563 Q1052.8781,184.8438 1052.3313,184.7188 Q1051.8,184.5938 1051.3156,184.5938 Q1050.1438,184.5938 1049.4406,185.125 Q1048.7375,185.6563 1048.4406,186.6094 Q1048.1438,187.5625 1048.1438,188.8281 Q1048.1438,190.8438 1048.8625,191.8125 Q1049.5813,192.7656 1051.175,192.7656 Q1051.7688,192.7656 1052.3938,192.6094 Q1053.0188,192.4531 1053.8469,192.0781 L1053.8469,194.2969 Q1053.1125,194.6094 1052.3156,194.7656 Q1051.5344,194.9219 1050.7688,194.9219 Z " fill="#000000"/><text fill="#000000" font-family="sans-serif" font-size="14" lengthAdjust="spacing" textLength="149" x="1069.7" y="193.432">WriteConfigCommand</text><line style="stroke:#000000;stroke-width:1.5;" x1="1017.5" x2="1240.5" y1="204" y2="204"/><text fill="#000000" font-family="sans-serif" font-size="14" lengthAdjust="spacing" textLength="101" x="1022.5" y="222.9659">hash_value: int</text><text fill="#000000" font-family="sans-serif" font-size="14" lengthAdjust="spacing" textLength="99" x="1022.5" y="242.0339">response: bool</text><text fill="#000000" font-family="sans-serif" font-size="14" lengthAdjust="spacing" textLength="64" x="1022.5" y="261.1018">loc_id: int</text><text fill="#000000" font-family="sans-serif" font-size="14" lengthAdjust="spacing" textLength="63" x="1022.5" y="280.1697">index: int</text><text fill="#000000" font-family="sans-serif" font-size="14" lengthAdjust="spacing" textLength="80" x="1022.5" y="299.2376">number: int</text><text fill="#000000" font-family="sans-serif" font-size="14" lengthAdjust="spacing" textLength="62" x="1022.5" y="318.3055">value: int</text><text fill="#000000" font-family="sans-serif" font-size="14" lengthAdjust="spacing" textLength="213" x="1022.5" y="337.3734">control: WriteConfigControlByte</text><text fill="#000000" font-family="sans-serif" font-size="14" lengthAdjust="spacing" textLength="198" x="1022.5" y="356.4414">result: WriteConfigResultByte</text><line style="stroke:#000000;stroke-width:1.5;" x1="1017.5" x2="1240.5" y1="364.5433" y2="364.5433"/><!--MD5=[33268a66c291bc9b59477aa658305fe3]
class SwitchingAccessoriesCommand--><rect codeLine="64" fill="#FFFFFF" filter="url(#fs6q77ru42219)" height="162.4075" id="SwitchingAccessoriesCommand" rx="5" ry="5" style="stroke:#000000;stroke-width:1.5;" width="245" x="1276.5" y="191.5"/><ellipse cx="1291.5" cy="207.5" fill="#ADD1B2" rx="11" ry="11" style="stroke:#A80036;stroke-width:1.0;"/><path d="M1290.9688,214.4219 Q1289.2188,214.4219 1288.0781,213.6875 Q1286.9531,212.9375 1286.3906,211.5938 Q1285.8438,210.2344 1285.8438,208.4375 Q1285.8438,206.4063 1286.5,204.9531 Q1287.1563,203.5 1288.4375,202.7188 Q1289.7188,201.9375 1291.5938,201.9375 Q1292.4844,201.9375 1293.1563,202.125 Q1293.8281,202.2969 1294.5156,202.6406 L1293.7031,204.6563 Q1293.0781,204.3438 1292.5313,204.2188 Q1292,204.0938 1291.5156,204.0938 Q1290.3438,204.0938 1289.6406,204.625 Q1288.9375,205.1563 1288.6406,206.1094 Q1288.3438,207.0625 1288.3438,208.3281 Q1288.3438,210.3438 1289.0625,211.3125 Q1289.7813,212.2656 1291.375,212.2656 Q1291.9688,212.2656 1292.5938,212.1094 Q1293.2188,211.9531 1294.0469,211.5781 L1294.0469,213.7969 Q1293.3125,214.1094 1292.5156,214.2656 Q1291.7344,214.4219 1290.9688,214.4219 Z " fill="#000000"/><text fill="#000000" font-family="sans-serif" font-size="14" lengthAdjust="spacing" textLength="213" x="1305.5" y="212.932">SwitchingAccessoriesCommand</text><line style="stroke:#000000;stroke-width:1.5;" x1="1277.5" x2="1520.5" y1="223.5" y2="223.5"/><text fill="#000000" font-family="sans-serif" font-size="14" lengthAdjust="spacing" textLength="101" x="1282.5" y="242.4659">hash_value: int</text><text fill="#000000" font-family="sans-serif" font-size="14" lengthAdjust="spacing" textLength="99" x="1282.5" y="261.5339">response: bool</text><text fill="#000000" font-family="sans-serif" font-size="14" lengthAdjust="spacing" textLength="64" x="1282.5" y="280.6018">loc_id: int</text><text fill="#000000" font-family="sans-serif" font-size="14" lengthAdjust="spacing" textLength="80" x="1282.5" y="299.6697">position: int</text><text fill="#000000" font-family="sans-serif" font-size="14" lengthAdjust="spacing" textLength="68" x="1282.5" y="318.7376">power: int</text><text fill="#000000" font-family="sans-serif" font-size="14" lengthAdjust="spacing" textLength="62" x="1282.5" y="337.8055">value: int</text><line style="stroke:#000000;stroke-width:1.5;" x1="1277.5" x2="1520.5" y1="345.9075" y2="345.9075"/><!--MD5=[6e0df1d4eabc2b5d0d8acc5c79fc52d0]
class S88PollingCommand--><rect codeLine="73" fill="#FFFFFF" filter="url(#fs6q77ru42219)" height="162.4075" id="S88PollingCommand" rx="5" ry="5" style="stroke:#000000;stroke-width:1.5;" width="171" x="1556.5" y="191.5"/><ellipse cx="1571.5" cy="207.5" fill="#ADD1B2" rx="11" ry="11" style="stroke:#A80036;stroke-width:1.0;"/><path d="M1570.9688,214.4219 Q1569.2188,214.4219 1568.0781,213.6875 Q1566.9531,212.9375 1566.3906,211.5938 Q1565.8438,210.2344 1565.8438,208.4375 Q1565.8438,206.4063 1566.5,204.9531 Q1567.1563,203.5 1568.4375,202.7188 Q1569.7188,201.9375 1571.5938,201.9375 Q1572.4844,201.9375 1573.1563,202.125 Q1573.8281,202.2969 1574.5156,202.6406 L1573.7031,204.6563 Q1573.0781,204.3438 1572.5313,204.2188 Q1572,204.0938 1571.5156,204.0938 Q1570.3438,204.0938 1569.6406,204.625 Q1568.9375,205.1563 1568.6406,206.1094 Q1568.3438,207.0625 1568.3438,208.3281 Q1568.3438,210.3438 1569.0625,211.3125 Q1569.7813,212.2656 1571.375,212.2656 Q1571.9688,212.2656 1572.5938,212.1094 Q1573.2188,211.9531 1574.0469,211.5781 L1574.0469,213.7969 Q1573.3125,214.1094 1572.5156,214.2656 Q1571.7344,214.4219 1570.9688,214.4219 Z " fill="#000000"/><text fill="#000000" font-family="sans-serif" font-size="14" lengthAdjust="spacing" textLength="139" x="1585.5" y="212.932">S88PollingCommand</text><line style="stroke:#000000;stroke-width:1.5;" x1="1557.5" x2="1726.5" y1="223.5" y2="223.5"/><text fill="#000000" font-family="sans-serif" font-size="14" lengthAdjust="spacing" textLength="101" x="1562.5" y="242.4659">hash_value: int</text><text fill="#000000" font-family="sans-serif" font-size="14" lengthAdjust="spacing" textLength="99" x="1562.5" y="261.5339">response: bool</text><text fill="#000000" font-family="sans-serif" font-size="14" lengthAdjust="spacing" textLength="64" x="1562.5" y="280.6018">loc_id: int</text><text fill="#000000" font-family="sans-serif" font-size="14" lengthAdjust="spacing" textLength="121" x="1562.5" y="299.6697">module_count: int</text><text fill="#000000" font-family="sans-serif" font-size="14" lengthAdjust="spacing" textLength="77" x="1562.5" y="318.7376">module: int</text><text fill="#000000" font-family="sans-serif" font-size="14" lengthAdjust="spacing" textLength="59" x="1562.5" y="337.8055">state: int</text><line style="stroke:#000000;stroke-width:1.5;" x1="1557.5" x2="1726.5" y1="345.9075" y2="345.9075"/><!--MD5=[64e03855674787cb7dedfd484cb27b8c]
reverse link AbstractLocIDCommand to LocomotiveSpeedCommand--><path codeLine="26" d="M780.32,34 C780.32,34 116,34 116,34 C116,34 116,139.79 116,210.46 " fill="none" id="AbstractLocIDCommand-backto-LocomotiveSpeedCommand" style="stroke:#000000;stroke-width:2.0;"/><polygon fill="none" points="780.32,27,800.32,34,780.32,41,780.32,27" style="stroke:#000000;stroke-width:2.0;"/><!--MD5=[42086acb16c2bd2d2e9a62385d3921bb]
reverse link AbstractLocIDCommand to LocomotiveDirectionCommand--><path codeLine="33" d="M780.29,60 C780.29,60 379,60 379,60 C379,60 379,147.74 379,210.46 " fill="none" id="AbstractLocIDCommand-backto-LocomotiveDirectionCommand" style="stroke:#000000;stroke-width:2.0;"/><polygon fill="none" points="780.29,53,800.29,60,780.29,67,780.29,53" style="stroke:#000000;stroke-width:2.0;"/><!--MD5=[867f0c5f92389b6fe16bf51e34251589]
reverse link AbstractLocIDCommand to LocomotiveFunctionCommand--><path codeLine="42" d="M780.17,86 C780.17,86 650,86 650,86 C650,86 650,140.98 650,191.24 " fill="none" id="AbstractLocIDCommand-backto-LocomotiveFunctionCommand" style="stroke:#000000;stroke-width:2.0;"/><polygon fill="none" points="780.17,79,800.17,86,780.17,93,780.17,79" style="stroke:#000000;stroke-width:2.0;"/><!--MD5=[ce83edc67b7ced52ae1111ce1bcae1b8]
reverse link AbstractLocIDCommand to ReadConfigCommand--><path codeLine="52" d="M862.17,132.15 C862.17,132.15 862.17,181.9 862.17,181.9 " fill="none" id="AbstractLocIDCommand-backto-ReadConfigCommand" style="stroke:#000000;stroke-width:2.0;"/><polygon fill="none" points="855.17,132.15,862.17,112.15,869.17,132.15,855.17,132.15" style="stroke:#000000;stroke-width:2.0;"/><!--MD5=[f08a9305e84330afa91c96155338373d]
reverse link AbstractLocIDCommand to WriteConfigCommand--><path codeLine="63" d="M921.83,132.06 C921.83,132.06 921.83,177 921.83,177 C921.83,177 967.73,177 1016.32,177 " fill="none" id="AbstractLocIDCommand-backto-WriteConfigCommand" style="stroke:#000000;stroke-width:2.0;"/><polygon fill="none" points="914.83,132.06,921.83,112.06,928.83,132.06,914.83,132.06" style="stroke:#000000;stroke-width:2.0;"/><!--MD5=[06b7ce688b859a0a6de16921f02c1687]
reverse link AbstractLocIDCommand to SwitchingAccessoriesCommand--><path codeLine="72" d="M1003.52,77 C1003.52,77 1399,77 1399,77 C1399,77 1399,137.58 1399,191.29 " fill="none" id="AbstractLocIDCommand-backto-SwitchingAccessoriesCommand" style="stroke:#000000;stroke-width:2.0;"/><polygon fill="none" points="1003.52,84,983.52,77,1003.52,70,1003.52,84" style="stroke:#000000;stroke-width:2.0;"/><!--MD5=[0b584ca5256fa67593701c33743b6432]
reverse link AbstractLocIDCommand to S88PollingCommand--><path codeLine="81" d="M1003.59,42 C1003.59,42 1642,42 1642,42 C1642,42 1642,124.87 1642,191.23 " fill="none" id="AbstractLocIDCommand-backto-S88PollingCommand" style="stroke:#000000;stroke-width:2.0;"/><polygon fill="none" points="1003.59,49,983.59,42,1003.59,35,1003.59,49" style="stroke:#000000;stroke-width:2.0;"/><!--MD5=[4ca564a2b2b83e01e555288761ab8972]
@startuml
skinparam useBetaStyle true
skinparam linetype ortho

<style>
    classDiagram{
        FontColor Black
        BackgroundColor White
        LineThickness 2
        LineColor Black
        RoundCorner 10
    }
</style>

class AbstractLocIDCommand {
hash_value: int
response: bool
loc_id: int
}
abstract class AbstractLocIDCommand
class LocomotiveSpeedCommand {
hash_value: int
response: bool
loc_id: int
speed: int
}
AbstractLocIDCommand <|- - LocomotiveSpeedCommand
class LocomotiveDirectionCommand {
hash_value: int
response: bool
loc_id: int
direction: LocomotiveDirection
}
AbstractLocIDCommand <|- - LocomotiveDirectionCommand
class LocomotiveFunctionCommand {
hash_value: int
response: bool
loc_id: int
function: int
value: int
function_value: int
}
AbstractLocIDCommand <|- - LocomotiveFunctionCommand
class ReadConfigCommand {
hash_value: int
response: bool
loc_id: int
index: int
number: int
count: int
value: int
}
AbstractLocIDCommand <|- - ReadConfigCommand
class WriteConfigCommand {
hash_value: int
response: bool
loc_id: int
index: int
number: int
value: int
control: WriteConfigControlByte
result: WriteConfigResultByte
}
AbstractLocIDCommand <|- - WriteConfigCommand
class SwitchingAccessoriesCommand {
hash_value: int
response: bool
loc_id: int
position: int
power: int
value: int
}
AbstractLocIDCommand <|- - SwitchingAccessoriesCommand
class S88PollingCommand {
hash_value: int
response: bool
loc_id: int
module_count: int
module: int
state: int
}
AbstractLocIDCommand <|- - S88PollingCommand
@enduml

PlantUML version 1.2021.16(Wed Dec 08 18:25:22 CET 2021)
(GPL source distribution)
Java Runtime: OpenJDK Runtime Environment
JVM: OpenJDK 64-Bit Server VM
Default Encoding: UTF-8
Language: en
Country: US
--></g></svg>