<?xml version="1.0" encoding="UTF-8" standalone="no"?><svg xmlns="http://www.w3.org/2000/svg" xmlns:xlink="http://www.w3.org/1999/xlink" contentScriptType="application/ecmascript" contentStyleType="text/css" height="424px" preserveAspectRatio="none" style="width:2500px;height:424px;background:#FFFFFF;" version="1.1" viewBox="0 0 2500 424" width="2500px" zoomAndPan="magnify"><defs><filter height="300%" id="f1v0quo7xubu27" width="300%" x="-1" y="-1"><feGaussianBlur result="blurOut" stdDeviation="2.0"/><feColorMatrix in="blurOut" result="blurOut2" type="matrix" values="0 0 0 0 0 0 0 0 0 0 0 0 0 0 0 0 0 0 .4 0"/><feOffset dx="4.0" dy="4.0" in="blurOut2" result="blurOut3"/><feBlend in="SourceGraphic" in2="blurOut3" mode="normal"/></filter></defs><g><!--MD5=[926f72e0bbfb58b735dd5d6b7e566b95]
class AbstractLocomotiveMessage--><rect codeLine="16" fill="#FFFFFF" filter="url(#f1v0quo7xubu27)" height="48" id="AbstractLocomotiveMessage" rx="5" ry="5" style="stroke:#000000;stroke-width:1.5;" width="210" x="1296.5" y="7"/><ellipse cx="1311.5" cy="23" fill="#A9DCDF" rx="11" ry="11" style="stroke:#A80036;stroke-width:1.0;"/><path d="M1306.6719,28.75 L1310.0156,16.5625 L1313.1563,16.5625 L1316.5313,28.75 L1314.0625,28.75 L1313.3281,25.7344 L1309.8125,25.7344 L1309.0625,28.75 L1306.6719,28.75 Z M1311.0781,20.7031 L1310.3281,23.7031 L1312.8438,23.7031 L1312.125,20.7031 Q1311.9844,20.125 1311.8594,19.5781 Q1311.7344,19.0156 1311.5938,18.4375 Q1311.4844,19.0156 1311.3438,19.5781 Q1311.2031,20.125 1311.0781,20.7031 Z " fill="#000000"/><text fill="#000000" font-family="sans-serif" font-size="14" font-style="italic" lengthAdjust="spacing" textLength="178" x="1325.5" y="28.432">AbstractLocomotiveMessage</text><line style="stroke:#000000;stroke-width:1.5;" x1="1297.5" x2="1505.5" y1="39" y2="39"/><line style="stroke:#000000;stroke-width:1.5;" x1="1297.5" x2="1505.5" y1="47" y2="47"/><!--MD5=[8438755d2f2c999e44d8686cf4d0caf5]
class LocomotiveSpeedMessage - locomotive_speed--><rect codeLine="17" fill="#FFFFFF" filter="url(#f1v0quo7xubu27)" height="162.4075" id="LocomotiveSpeedMessage - locomotive_speed" rx="5" ry="5" style="stroke:#000000;stroke-width:1.5;" width="341" x="7" y="182"/><ellipse cx="22" cy="198" fill="#ADD1B2" rx="11" ry="11" style="stroke:#A80036;stroke-width:1.0;"/><path d="M21.4688,204.9219 Q19.7188,204.9219 18.5781,204.1875 Q17.4531,203.4375 16.8906,202.0938 Q16.3438,200.7344 16.3438,198.9375 Q16.3438,196.9063 17,195.4531 Q17.6563,194 18.9375,193.2188 Q20.2188,192.4375 22.0938,192.4375 Q22.9844,192.4375 23.6563,192.625 Q24.3281,192.7969 25.0156,193.1406 L24.2031,195.1563 Q23.5781,194.8438 23.0313,194.7188 Q22.5,194.5938 22.0156,194.5938 Q20.8438,194.5938 20.1406,195.125 Q19.4375,195.6563 19.1406,196.6094 Q18.8438,197.5625 18.8438,198.8281 Q18.8438,200.8438 19.5625,201.8125 Q20.2813,202.7656 21.875,202.7656 Q22.4688,202.7656 23.0938,202.6094 Q23.7188,202.4531 24.5469,202.0781 L24.5469,204.2969 Q23.8125,204.6094 23.0156,204.7656 Q22.2344,204.9219 21.4688,204.9219 Z " fill="#000000"/><text fill="#000000" font-family="sans-serif" font-size="14" lengthAdjust="spacing" textLength="309" x="36" y="203.432">LocomotiveSpeedMessage - locomotive_speed</text><line style="stroke:#000000;stroke-width:1.5;" x1="8" x2="347" y1="214" y2="214"/><text fill="#000000" font-family="sans-serif" font-size="14" lengthAdjust="spacing" textLength="149" x="13" y="232.9659">timestamp: DATETIME</text><text fill="#000000" font-family="sans-serif" font-size="14" lengthAdjust="spacing" textLength="164" x="13" y="252.0339">timestamp_iso: INTEGER</text><text fill="#000000" font-family="sans-serif" font-size="14" lengthAdjust="spacing" textLength="142" x="13" y="271.1018">hash_value: INTEGER</text><text fill="#000000" font-family="sans-serif" font-size="14" lengthAdjust="spacing" textLength="136" x="13" y="290.1697">response: BOOLEAN</text><text fill="#000000" font-family="sans-serif" font-size="14" lengthAdjust="spacing" textLength="105" x="13" y="309.2376">loc_id: INTEGER</text><text fill="#000000" font-family="sans-serif" font-size="14" lengthAdjust="spacing" textLength="108" x="13" y="328.3055">speed: INTEGER</text><line style="stroke:#000000;stroke-width:1.5;" x1="8" x2="347" y1="336.4075" y2="336.4075"/><!--MD5=[e03725775f5d0a795550ba4bbd8681d5]
class LocomotiveDirectionMessage - locomotive_direction--><rect codeLine="26" fill="#FFFFFF" filter="url(#f1v0quo7xubu27)" height="162.4075" id="LocomotiveDirectionMessage - locomotive_direction" rx="5" ry="5" style="stroke:#000000;stroke-width:1.5;" width="379" x="383" y="182"/><ellipse cx="398" cy="198" fill="#ADD1B2" rx="11" ry="11" style="stroke:#A80036;stroke-width:1.0;"/><path d="M397.4688,204.9219 Q395.7188,204.9219 394.5781,204.1875 Q393.4531,203.4375 392.8906,202.0938 Q392.3438,200.7344 392.3438,198.9375 Q392.3438,196.9063 393,195.4531 Q393.6563,194 394.9375,193.2188 Q396.2188,192.4375 398.0938,192.4375 Q398.9844,192.4375 399.6563,192.625 Q400.3281,192.7969 401.0156,193.1406 L400.2031,195.1563 Q399.5781,194.8438 399.0313,194.7188 Q398.5,194.5938 398.0156,194.5938 Q396.8438,194.5938 396.1406,195.125 Q395.4375,195.6563 395.1406,196.6094 Q394.8438,197.5625 394.8438,198.8281 Q394.8438,200.8438 395.5625,201.8125 Q396.2813,202.7656 397.875,202.7656 Q398.4688,202.7656 399.0938,202.6094 Q399.7188,202.4531 400.5469,202.0781 L400.5469,204.2969 Q399.8125,204.6094 399.0156,204.7656 Q398.2344,204.9219 397.4688,204.9219 Z " fill="#000000"/><text fill="#000000" font-family="sans-serif" font-size="14" lengthAdjust="spacing" textLength="347" x="412" y="203.432">LocomotiveDirectionMessage - locomotive_direction</text><line style="stroke:#000000;stroke-width:1.5;" x1="384" x2="761" y1="214" y2="214"/><text fill="#000000" font-family="sans-serif" font-size="14" lengthAdjust="spacing" textLength="149" x="389" y="232.9659">timestamp: DATETIME</text><text fill="#000000" font-family="sans-serif" font-size="14" lengthAdjust="spacing" textLength="164" x="389" y="252.0339">timestamp_iso: INTEGER</text><text fill="#000000" font-family="sans-serif" font-size="14" lengthAdjust="spacing" textLength="142" x="389" y="271.1018">hash_value: INTEGER</text><text fill="#000000" font-family="sans-serif" font-size="14" lengthAdjust="spacing" textLength="136" x="389" y="290.1697">response: BOOLEAN</text><text fill="#000000" font-family="sans-serif" font-size="14" lengthAdjust="spacing" textLength="105" x="389" y="309.2376">loc_id: INTEGER</text><text fill="#000000" font-family="sans-serif" font-size="14" lengthAdjust="spacing" textLength="100" x="389" y="328.3055">direction: TEXT</text><line style="stroke:#000000;stroke-width:1.5;" x1="384" x2="761" y1="336.4075" y2="336.4075"/><!--MD5=[1d148881fd7696da42320c8a6f5ae64e]
class LocomotiveFunctionMessage - locomotive_function--><rect codeLine="35" fill="#FFFFFF" filter="url(#f1v0quo7xubu27)" height="200.5433" id="LocomotiveFunctionMessage - locomotive_function" rx="5" ry="5" style="stroke:#000000;stroke-width:1.5;" width="372" x="796.5" y="162.5"/><ellipse cx="811.5" cy="178.5" fill="#ADD1B2" rx="11" ry="11" style="stroke:#A80036;stroke-width:1.0;"/><path d="M810.9688,185.4219 Q809.2188,185.4219 808.0781,184.6875 Q806.9531,183.9375 806.3906,182.5938 Q805.8438,181.2344 805.8438,179.4375 Q805.8438,177.4063 806.5,175.9531 Q807.1563,174.5 808.4375,173.7188 Q809.7188,172.9375 811.5938,172.9375 Q812.4844,172.9375 813.1563,173.125 Q813.8281,173.2969 814.5156,173.6406 L813.7031,175.6563 Q813.0781,175.3438 812.5313,175.2188 Q812,175.0938 811.5156,175.0938 Q810.3438,175.0938 809.6406,175.625 Q808.9375,176.1563 808.6406,177.1094 Q808.3438,178.0625 808.3438,179.3281 Q808.3438,181.3438 809.0625,182.3125 Q809.7813,183.2656 811.375,183.2656 Q811.9688,183.2656 812.5938,183.1094 Q813.2188,182.9531 814.0469,182.5781 L814.0469,184.7969 Q813.3125,185.1094 812.5156,185.2656 Q811.7344,185.4219 810.9688,185.4219 Z " fill="#000000"/><text fill="#000000" font-family="sans-serif" font-size="14" lengthAdjust="spacing" textLength="340" x="825.5" y="183.932">LocomotiveFunctionMessage - locomotive_function</text><line style="stroke:#000000;stroke-width:1.5;" x1="797.5" x2="1167.5" y1="194.5" y2="194.5"/><text fill="#000000" font-family="sans-serif" font-size="14" lengthAdjust="spacing" textLength="149" x="802.5" y="213.4659">timestamp: DATETIME</text><text fill="#000000" font-family="sans-serif" font-size="14" lengthAdjust="spacing" textLength="164" x="802.5" y="232.5339">timestamp_iso: INTEGER</text><text fill="#000000" font-family="sans-serif" font-size="14" lengthAdjust="spacing" textLength="142" x="802.5" y="251.6018">hash_value: INTEGER</text><text fill="#000000" font-family="sans-serif" font-size="14" lengthAdjust="spacing" textLength="136" x="802.5" y="270.6697">response: BOOLEAN</text><text fill="#000000" font-family="sans-serif" font-size="14" lengthAdjust="spacing" textLength="105" x="802.5" y="289.7376">loc_id: INTEGER</text><text fill="#000000" font-family="sans-serif" font-size="14" lengthAdjust="spacing" textLength="123" x="802.5" y="308.8055">function: INTEGER</text><text fill="#000000" font-family="sans-serif" font-size="14" lengthAdjust="spacing" textLength="103" x="802.5" y="327.8734">value: INTEGER</text><text fill="#000000" font-family="sans-serif" font-size="14" lengthAdjust="spacing" textLength="165" x="802.5" y="346.9414">function_value: INTEGER</text><line style="stroke:#000000;stroke-width:1.5;" x1="797.5" x2="1167.5" y1="355.0433" y2="355.0433"/><!--MD5=[649a013c717c0d219df6b370f24ca324]
class SwitchingAccessoriesMessage - switching_accessories--><rect codeLine="46" fill="#FFFFFF" filter="url(#f1v0quo7xubu27)" height="200.5433" id="SwitchingAccessoriesMessage - switching_accessories" rx="5" ry="5" style="stroke:#000000;stroke-width:1.5;" width="397" x="1203" y="162.5"/><ellipse cx="1218" cy="178.5" fill="#ADD1B2" rx="11" ry="11" style="stroke:#A80036;stroke-width:1.0;"/><path d="M1217.4688,185.4219 Q1215.7188,185.4219 1214.5781,184.6875 Q1213.4531,183.9375 1212.8906,182.5938 Q1212.3438,181.2344 1212.3438,179.4375 Q1212.3438,177.4063 1213,175.9531 Q1213.6563,174.5 1214.9375,173.7188 Q1216.2188,172.9375 1218.0938,172.9375 Q1218.9844,172.9375 1219.6563,173.125 Q1220.3281,173.2969 1221.0156,173.6406 L1220.2031,175.6563 Q1219.5781,175.3438 1219.0313,175.2188 Q1218.5,175.0938 1218.0156,175.0938 Q1216.8438,175.0938 1216.1406,175.625 Q1215.4375,176.1563 1215.1406,177.1094 Q1214.8438,178.0625 1214.8438,179.3281 Q1214.8438,181.3438 1215.5625,182.3125 Q1216.2813,183.2656 1217.875,183.2656 Q1218.4688,183.2656 1219.0938,183.1094 Q1219.7188,182.9531 1220.5469,182.5781 L1220.5469,184.7969 Q1219.8125,185.1094 1219.0156,185.2656 Q1218.2344,185.4219 1217.4688,185.4219 Z " fill="#000000"/><text fill="#000000" font-family="sans-serif" font-size="14" lengthAdjust="spacing" textLength="365" x="1232" y="183.932">SwitchingAccessoriesMessage - switching_accessories</text><line style="stroke:#000000;stroke-width:1.5;" x1="1204" x2="1599" y1="194.5" y2="194.5"/><text fill="#000000" font-family="sans-serif" font-size="14" lengthAdjust="spacing" textLength="149" x="1209" y="213.4659">timestamp: DATETIME</text><text fill="#000000" font-family="sans-serif" font-size="14" lengthAdjust="spacing" textLength="164" x="1209" y="232.5339">timestamp_iso: INTEGER</text><text fill="#000000" font-family="sans-serif" font-size="14" lengthAdjust="spacing" textLength="142" x="1209" y="251.6018">hash_value: INTEGER</text><text fill="#000000" font-family="sans-serif" font-size="14" lengthAdjust="spacing" textLength="136" x="1209" y="270.6697">response: BOOLEAN</text><text fill="#000000" font-family="sans-serif" font-size="14" lengthAdjust="spacing" textLength="105" x="1209" y="289.7376">loc_id: INTEGER</text><text fill="#000000" font-family="sans-serif" font-size="14" lengthAdjust="spacing" textLength="121" x="1209" y="308.8055">position: INTEGER</text><text fill="#000000" font-family="sans-serif" font-size="14" lengthAdjust="spacing" textLength="109" x="1209" y="327.8734">power: INTEGER</text><text fill="#000000" font-family="sans-serif" font-size="14" lengthAdjust="spacing" textLength="103" x="1209" y="346.9414">value: INTEGER</text><line style="stroke:#000000;stroke-width:1.5;" x1="1204" x2="1599" y1="355.0433" y2="355.0433"/><!--MD5=[7e423066d69a5c765914ee1c6f6d3efc]
class S88PollingMessage - s88_polling--><rect codeLine="57" fill="#FFFFFF" filter="url(#f1v0quo7xubu27)" height="200.5433" id="S88PollingMessage - s88_polling" rx="5" ry="5" style="stroke:#000000;stroke-width:1.5;" width="251" x="1635" y="162.5"/><ellipse cx="1650" cy="178.5" fill="#ADD1B2" rx="11" ry="11" style="stroke:#A80036;stroke-width:1.0;"/><path d="M1649.4688,185.4219 Q1647.7188,185.4219 1646.5781,184.6875 Q1645.4531,183.9375 1644.8906,182.5938 Q1644.3438,181.2344 1644.3438,179.4375 Q1644.3438,177.4063 1645,175.9531 Q1645.6563,174.5 1646.9375,173.7188 Q1648.2188,172.9375 1650.0938,172.9375 Q1650.9844,172.9375 1651.6563,173.125 Q1652.3281,173.2969 1653.0156,173.6406 L1652.2031,175.6563 Q1651.5781,175.3438 1651.0313,175.2188 Q1650.5,175.0938 1650.0156,175.0938 Q1648.8438,175.0938 1648.1406,175.625 Q1647.4375,176.1563 1647.1406,177.1094 Q1646.8438,178.0625 1646.8438,179.3281 Q1646.8438,181.3438 1647.5625,182.3125 Q1648.2813,183.2656 1649.875,183.2656 Q1650.4688,183.2656 1651.0938,183.1094 Q1651.7188,182.9531 1652.5469,182.5781 L1652.5469,184.7969 Q1651.8125,185.1094 1651.0156,185.2656 Q1650.2344,185.4219 1649.4688,185.4219 Z " fill="#000000"/><text fill="#000000" font-family="sans-serif" font-size="14" lengthAdjust="spacing" textLength="219" x="1664" y="183.932">S88PollingMessage - s88_polling</text><line style="stroke:#000000;stroke-width:1.5;" x1="1636" x2="1885" y1="194.5" y2="194.5"/><text fill="#000000" font-family="sans-serif" font-size="14" lengthAdjust="spacing" textLength="149" x="1641" y="213.4659">timestamp: DATETIME</text><text fill="#000000" font-family="sans-serif" font-size="14" lengthAdjust="spacing" textLength="164" x="1641" y="232.5339">timestamp_iso: INTEGER</text><text fill="#000000" font-family="sans-serif" font-size="14" lengthAdjust="spacing" textLength="142" x="1641" y="251.6018">hash_value: INTEGER</text><text fill="#000000" font-family="sans-serif" font-size="14" lengthAdjust="spacing" textLength="136" x="1641" y="270.6697">response: BOOLEAN</text><text fill="#000000" font-family="sans-serif" font-size="14" lengthAdjust="spacing" textLength="105" x="1641" y="289.7376">loc_id: INTEGER</text><text fill="#000000" font-family="sans-serif" font-size="14" lengthAdjust="spacing" textLength="162" x="1641" y="308.8055">module_count: INTEGER</text><text fill="#000000" font-family="sans-serif" font-size="14" lengthAdjust="spacing" textLength="118" x="1641" y="327.8734">module: INTEGER</text><text fill="#000000" font-family="sans-serif" font-size="14" lengthAdjust="spacing" textLength="100" x="1641" y="346.9414">state: INTEGER</text><line style="stroke:#000000;stroke-width:1.5;" x1="1636" x2="1885" y1="355.0433" y2="355.0433"/><!--MD5=[26a333b3370f03d41c86b79f925a42d8]
class ReadConfigMessage - read_config--><rect codeLine="68" fill="#FFFFFF" filter="url(#f1v0quo7xubu27)" height="219.6113" id="ReadConfigMessage - read_config" rx="5" ry="5" style="stroke:#000000;stroke-width:1.5;" width="262" x="1921.5" y="153"/><ellipse cx="1936.5" cy="169" fill="#ADD1B2" rx="11" ry="11" style="stroke:#A80036;stroke-width:1.0;"/><path d="M1935.9688,175.9219 Q1934.2188,175.9219 1933.0781,175.1875 Q1931.9531,174.4375 1931.3906,173.0938 Q1930.8438,171.7344 1930.8438,169.9375 Q1930.8438,167.9063 1931.5,166.4531 Q1932.1563,165 1933.4375,164.2188 Q1934.7188,163.4375 1936.5938,163.4375 Q1937.4844,163.4375 1938.1563,163.625 Q1938.8281,163.7969 1939.5156,164.1406 L1938.7031,166.1563 Q1938.0781,165.8438 1937.5313,165.7188 Q1937,165.5938 1936.5156,165.5938 Q1935.3438,165.5938 1934.6406,166.125 Q1933.9375,166.6563 1933.6406,167.6094 Q1933.3438,168.5625 1933.3438,169.8281 Q1933.3438,171.8438 1934.0625,172.8125 Q1934.7813,173.7656 1936.375,173.7656 Q1936.9688,173.7656 1937.5938,173.6094 Q1938.2188,173.4531 1939.0469,173.0781 L1939.0469,175.2969 Q1938.3125,175.6094 1937.5156,175.7656 Q1936.7344,175.9219 1935.9688,175.9219 Z " fill="#000000"/><text fill="#000000" font-family="sans-serif" font-size="14" lengthAdjust="spacing" textLength="230" x="1950.5" y="174.432">ReadConfigMessage - read_config</text><line style="stroke:#000000;stroke-width:1.5;" x1="1922.5" x2="2182.5" y1="185" y2="185"/><text fill="#000000" font-family="sans-serif" font-size="14" lengthAdjust="spacing" textLength="149" x="1927.5" y="203.9659">timestamp: DATETIME</text><text fill="#000000" font-family="sans-serif" font-size="14" lengthAdjust="spacing" textLength="164" x="1927.5" y="223.0339">timestamp_iso: INTEGER</text><text fill="#000000" font-family="sans-serif" font-size="14" lengthAdjust="spacing" textLength="142" x="1927.5" y="242.1018">hash_value: INTEGER</text><text fill="#000000" font-family="sans-serif" font-size="14" lengthAdjust="spacing" textLength="136" x="1927.5" y="261.1697">response: BOOLEAN</text><text fill="#000000" font-family="sans-serif" font-size="14" lengthAdjust="spacing" textLength="105" x="1927.5" y="280.2376">loc_id: INTEGER</text><text fill="#000000" font-family="sans-serif" font-size="14" lengthAdjust="spacing" textLength="104" x="1927.5" y="299.3055">index: INTEGER</text><text fill="#000000" font-family="sans-serif" font-size="14" lengthAdjust="spacing" textLength="121" x="1927.5" y="318.3734">number: INTEGER</text><text fill="#000000" font-family="sans-serif" font-size="14" lengthAdjust="spacing" textLength="105" x="1927.5" y="337.4414">count: INTEGER</text><text fill="#000000" font-family="sans-serif" font-size="14" lengthAdjust="spacing" textLength="103" x="1927.5" y="356.5093">value: INTEGER</text><line style="stroke:#000000;stroke-width:1.5;" x1="1922.5" x2="2182.5" y1="364.6113" y2="364.6113"/><!--MD5=[22e1dc11ba48ad8bc31b6df2200d8fbe]
class WriteConfigMessage - write_config--><rect codeLine="80" fill="#FFFFFF" filter="url(#f1v0quo7xubu27)" height="295.8829" id="WriteConfigMessage - write_config" rx="5" ry="5" style="stroke:#000000;stroke-width:1.5;" width="267" x="2219" y="115"/><ellipse cx="2234" cy="131" fill="#ADD1B2" rx="11" ry="11" style="stroke:#A80036;stroke-width:1.0;"/><path d="M2233.4688,137.9219 Q2231.7188,137.9219 2230.5781,137.1875 Q2229.4531,136.4375 2228.8906,135.0938 Q2228.3438,133.7344 2228.3438,131.9375 Q2228.3438,129.9063 2229,128.4531 Q2229.6563,127 2230.9375,126.2188 Q2232.2188,125.4375 2234.0938,125.4375 Q2234.9844,125.4375 2235.6563,125.625 Q2236.3281,125.7969 2237.0156,126.1406 L2236.2031,128.1563 Q2235.5781,127.8438 2235.0313,127.7188 Q2234.5,127.5938 2234.0156,127.5938 Q2232.8438,127.5938 2232.1406,128.125 Q2231.4375,128.6563 2231.1406,129.6094 Q2230.8438,130.5625 2230.8438,131.8281 Q2230.8438,133.8438 2231.5625,134.8125 Q2232.2813,135.7656 2233.875,135.7656 Q2234.4688,135.7656 2235.0938,135.6094 Q2235.7188,135.4531 2236.5469,135.0781 L2236.5469,137.2969 Q2235.8125,137.6094 2235.0156,137.7656 Q2234.2344,137.9219 2233.4688,137.9219 Z " fill="#000000"/><text fill="#000000" font-family="sans-serif" font-size="14" lengthAdjust="spacing" textLength="235" x="2248" y="136.432">WriteConfigMessage - write_config</text><line style="stroke:#000000;stroke-width:1.5;" x1="2220" x2="2485" y1="147" y2="147"/><text fill="#000000" font-family="sans-serif" font-size="14" lengthAdjust="spacing" textLength="149" x="2225" y="165.9659">timestamp: DATETIME</text><text fill="#000000" font-family="sans-serif" font-size="14" lengthAdjust="spacing" textLength="164" x="2225" y="185.0339">timestamp_iso: INTEGER</text><text fill="#000000" font-family="sans-serif" font-size="14" lengthAdjust="spacing" textLength="142" x="2225" y="204.1018">hash_value: INTEGER</text><text fill="#000000" font-family="sans-serif" font-size="14" lengthAdjust="spacing" textLength="136" x="2225" y="223.1697">response: BOOLEAN</text><text fill="#000000" font-family="sans-serif" font-size="14" lengthAdjust="spacing" textLength="105" x="2225" y="242.2376">loc_id: INTEGER</text><text fill="#000000" font-family="sans-serif" font-size="14" lengthAdjust="spacing" textLength="104" x="2225" y="261.3055">index: INTEGER</text><text fill="#000000" font-family="sans-serif" font-size="14" lengthAdjust="spacing" textLength="121" x="2225" y="280.3734">number: INTEGER</text><text fill="#000000" font-family="sans-serif" font-size="14" lengthAdjust="spacing" textLength="103" x="2225" y="299.4414">value: INTEGER</text><text fill="#000000" font-family="sans-serif" font-size="14" lengthAdjust="spacing" textLength="125" x="2225" y="318.5093">is_main: BOOLEAN</text><text fill="#000000" font-family="sans-serif" font-size="14" lengthAdjust="spacing" textLength="161" x="2225" y="337.5772">is_multi_byte: BOOLEAN</text><text fill="#000000" font-family="sans-serif" font-size="14" lengthAdjust="spacing" textLength="163" x="2225" y="356.6451">dcc_programming: TEXT</text><text fill="#000000" font-family="sans-serif" font-size="14" lengthAdjust="spacing" textLength="201" x="2225" y="375.713">is_write_successful: BOOLEAN</text><text fill="#000000" font-family="sans-serif" font-size="14" lengthAdjust="spacing" textLength="204" x="2225" y="394.7809">is_verify_successful: BOOLEAN</text><line style="stroke:#000000;stroke-width:1.5;" x1="2220" x2="2485" y1="402.8829" y2="402.8829"/><!--MD5=[21c961cafe2cfa5d1be2f1dc836a554f]
reverse link AbstractLocomotiveMessage to LocomotiveSpeedMessage - locomotive_speed--><path codeLine="25" d="M1276.35,19 C1276.35,19 177.5,19 177.5,19 C177.5,19 177.5,110.77 177.5,181.75 " fill="none" id="AbstractLocomotiveMessage-backto-LocomotiveSpeedMessage - locomotive_speed" style="stroke:#000000;stroke-width:2.0;"/><polygon fill="none" points="1276.35,12,1296.35,19,1276.35,26,1276.35,12" style="stroke:#000000;stroke-width:2.0;"/><!--MD5=[12e166d9ec24376799b1d4843b49f4eb]
reverse link AbstractLocomotiveMessage to LocomotiveDirectionMessage - locomotive_direction--><path codeLine="34" d="M1276.09,31 C1276.09,31 572.5,31 572.5,31 C572.5,31 572.5,114.96 572.5,181.86 " fill="none" id="AbstractLocomotiveMessage-backto-LocomotiveDirectionMessage - locomotive_direction" style="stroke:#000000;stroke-width:2.0;"/><polygon fill="none" points="1276.09,24,1296.09,31,1276.09,38,1276.09,24" style="stroke:#000000;stroke-width:2.0;"/><!--MD5=[78da0ee629d046e76ea8247fe2b0da9c]
reverse link AbstractLocomotiveMessage to LocomotiveFunctionMessage - locomotive_function--><path codeLine="45" d="M1276.31,43 C1276.31,43 982.5,43 982.5,43 C982.5,43 982.5,104.41 982.5,162.34 " fill="none" id="AbstractLocomotiveMessage-backto-LocomotiveFunctionMessage - locomotive_function" style="stroke:#000000;stroke-width:2.0;"/><polygon fill="none" points="1276.31,36,1296.31,43,1276.31,50,1276.31,36" style="stroke:#000000;stroke-width:2.0;"/><!--MD5=[09b504228f3c6636f4de45cacffced6e]
reverse link AbstractLocomotiveMessage to SwitchingAccessoriesMessage - switching_accessories--><path codeLine="56" d="M1349,75.39 C1349,75.39 1349,162.42 1349,162.42 " fill="none" id="AbstractLocomotiveMessage-backto-SwitchingAccessoriesMessage - switching_accessories" style="stroke:#000000;stroke-width:2.0;"/><polygon fill="none" points="1342,75.39,1349,55.39,1356,75.39,1342,75.39" style="stroke:#000000;stroke-width:2.0;"/><!--MD5=[f2cf3d372ba311393a32ce7ace6537c3]
reverse link AbstractLocomotiveMessage to S88PollingMessage - s88_polling--><path codeLine="67" d="M1526.79,31 C1526.79,31 1760.5,31 1760.5,31 C1760.5,31 1760.5,99.64 1760.5,162.25 " fill="none" id="AbstractLocomotiveMessage-backto-S88PollingMessage - s88_polling" style="stroke:#000000;stroke-width:2.0;"/><polygon fill="none" points="1526.79,38,1506.79,31,1526.79,24,1526.79,38" style="stroke:#000000;stroke-width:2.0;"/><!--MD5=[2e48a5c53e352c9c8e100725ae1030b9]
reverse link AbstractLocomotiveMessage to ReadConfigMessage - read_config--><path codeLine="79" d="M1401.5,75.19 C1401.5,75.19 1401.5,158 1401.5,158 C1401.5,158 1730.99,158 1921.15,158 " fill="none" id="AbstractLocomotiveMessage-backto-ReadConfigMessage - read_config" style="stroke:#000000;stroke-width:2.0;"/><polygon fill="none" points="1394.5,75.19,1401.5,55.19,1408.5,75.19,1394.5,75.19" style="stroke:#000000;stroke-width:2.0;"/><!--MD5=[16de13bd59cd989578f796c4cbfe26eb]
reverse link AbstractLocomotiveMessage to WriteConfigMessage - write_config--><path codeLine="95" d="M1454,75.15 C1454,75.15 1454,134 1454,134 C1454,134 1968.66,134 2218.96,134 " fill="none" id="AbstractLocomotiveMessage-backto-WriteConfigMessage - write_config" style="stroke:#000000;stroke-width:2.0;"/><polygon fill="none" points="1447,75.15,1454,55.15,1461,75.15,1447,75.15" style="stroke:#000000;stroke-width:2.0;"/><!--MD5=[e356075d41a684aadfcaa28190d8cf03]
@startuml
skinparam useBetaStyle true
skinparam linetype ortho

<style>
    classDiagram{
        FontColor Black
        BackgroundColor White
        LineThickness 2
        LineColor Black
        RoundCorner 10
    }
</style>

class AbstractLocomotiveMessage {
}
abstract class AbstractLocomotiveMessage
class "LocomotiveSpeedMessage - locomotive_speed" {
timestamp: DATETIME
timestamp_iso: INTEGER
hash_value: INTEGER
response: BOOLEAN
loc_id: INTEGER
speed: INTEGER
}
AbstractLocomotiveMessage <|- - "LocomotiveSpeedMessage - locomotive_speed"
class "LocomotiveDirectionMessage - locomotive_direction" {
timestamp: DATETIME
timestamp_iso: INTEGER
hash_value: INTEGER
response: BOOLEAN
loc_id: INTEGER
direction: TEXT
}
AbstractLocomotiveMessage <|- - "LocomotiveDirectionMessage - locomotive_direction"
class "LocomotiveFunctionMessage - locomotive_function" {
timestamp: DATETIME
timestamp_iso: INTEGER
hash_value: INTEGER
response: BOOLEAN
loc_id: INTEGER
function: INTEGER
value: INTEGER
function_value: INTEGER
}
AbstractLocomotiveMessage <|- - "LocomotiveFunctionMessage - locomotive_function"
class "SwitchingAccessoriesMessage - switching_accessories" {
timestamp: DATETIME
timestamp_iso: INTEGER
hash_value: INTEGER
response: BOOLEAN
loc_id: INTEGER
position: INTEGER
power: INTEGER
value: INTEGER
}
AbstractLocomotiveMessage <|- - "SwitchingAccessoriesMessage - switching_accessories"
class "S88PollingMessage - s88_polling" {
timestamp: DATETIME
timestamp_iso: INTEGER
hash_value: INTEGER
response: BOOLEAN
loc_id: INTEGER
module_count: INTEGER
module: INTEGER
state: INTEGER
}
AbstractLocomotiveMessage <|- - "S88PollingMessage - s88_polling"
class "ReadConfigMessage - read_config" {
timestamp: DATETIME
timestamp_iso: INTEGER
hash_value: INTEGER
response: BOOLEAN
loc_id: INTEGER
index: INTEGER
number: INTEGER
count: INTEGER
value: INTEGER
}
AbstractLocomotiveMessage <|- - "ReadConfigMessage - read_config"
class "WriteConfigMessage - write_config" {
timestamp: DATETIME
timestamp_iso: INTEGER
hash_value: INTEGER
response: BOOLEAN
loc_id: INTEGER
index: INTEGER
number: INTEGER
value: INTEGER
is_main: BOOLEAN
is_multi_byte: BOOLEAN
dcc_programming: TEXT
is_write_successful: BOOLEAN
is_verify_successful: BOOLEAN
}
AbstractLocomotiveMessage <|- - "WriteConfigMessage - write_config"
@enduml

PlantUML version 1.2021.16(Wed Dec 08 18:25:22 CET 2021)
(GPL source distribution)
Java Runtime: OpenJDK Runtime Environment
JVM: OpenJDK 64-Bit Server VM
Default Encoding: UTF-8
Language: en
Country: US
--></g></svg>