<?xml version="1.0" encoding="UTF-8" standalone="no"?><svg xmlns="http://www.w3.org/2000/svg" xmlns:xlink="http://www.w3.org/1999/xlink" contentScriptType="application/ecmascript" contentStyleType="text/css" height="310px" preserveAspectRatio="none" style="width:5152px;height:310px;background:#FFFFFF;" version="1.1" viewBox="0 0 5152 310" width="5152px" zoomAndPan="magnify"><defs><filter height="300%" id="f1dx5l6bmv5qh0" width="300%" x="-1" y="-1"><feGaussianBlur result="blurOut" stdDeviation="2.0"/><feColorMatrix in="blurOut" result="blurOut2" type="matrix" values="0 0 0 0 0 0 0 0 0 0 0 0 0 0 0 0 0 0 .4 0"/><feOffset dx="4.0" dy="4.0" in="blurOut2" result="blurOut3"/><feBlend in="SourceGraphic" in2="blurOut3" mode="normal"/></filter></defs><g><!--MD5=[14a399a0a831a43f01ea2cf8fe934028]
class AbstractSystemMessage--><rect codeLine="16" fill="#FFFFFF" filter="url(#f1dx5l6bmv5qh0)" height="48" id="AbstractSystemMessage" rx="5" ry="5" style="stroke:#000000;stroke-width:1.5;" width="182" x="2728.5" y="7"/><ellipse cx="2743.5" cy="23" fill="#A9DCDF" rx="11" ry="11" style="stroke:#A80036;stroke-width:1.0;"/><path d="M2738.6719,28.75 L2742.0156,16.5625 L2745.1563,16.5625 L2748.5313,28.75 L2746.0625,28.75 L2745.3281,25.7344 L2741.8125,25.7344 L2741.0625,28.75 L2738.6719,28.75 Z M2743.0781,20.7031 L2742.3281,23.7031 L2744.8438,23.7031 L2744.125,20.7031 Q2743.9844,20.125 2743.8594,19.5781 Q2743.7344,19.0156 2743.5938,18.4375 Q2743.4844,19.0156 2743.3438,19.5781 Q2743.2031,20.125 2743.0781,20.7031 Z " fill="#000000"/><text fill="#000000" font-family="sans-serif" font-size="14" font-style="italic" lengthAdjust="spacing" textLength="150" x="2757.5" y="28.432">AbstractSystemMessage</text><line style="stroke:#000000;stroke-width:1.5;" x1="2729.5" x2="2909.5" y1="39" y2="39"/><line style="stroke:#000000;stroke-width:1.5;" x1="2729.5" x2="2909.5" y1="47" y2="47"/><!--MD5=[a60a8e803ea1b44c1a2bf65d8fd3397e]
class SystemStateMessage - system_state--><rect codeLine="17" fill="#FFFFFF" filter="url(#f1dx5l6bmv5qh0)" height="162.4075" id="SystemStateMessage - system_state" rx="5" ry="5" style="stroke:#000000;stroke-width:1.5;" width="273" x="7" y="124.5"/><ellipse cx="22" cy="140.5" fill="#ADD1B2" rx="11" ry="11" style="stroke:#A80036;stroke-width:1.0;"/><path d="M21.4688,147.4219 Q19.7188,147.4219 18.5781,146.6875 Q17.4531,145.9375 16.8906,144.5938 Q16.3438,143.2344 16.3438,141.4375 Q16.3438,139.4063 17,137.9531 Q17.6563,136.5 18.9375,135.7188 Q20.2188,134.9375 22.0938,134.9375 Q22.9844,134.9375 23.6563,135.125 Q24.3281,135.2969 25.0156,135.6406 L24.2031,137.6563 Q23.5781,137.3438 23.0313,137.2188 Q22.5,137.0938 22.0156,137.0938 Q20.8438,137.0938 20.1406,137.625 Q19.4375,138.1563 19.1406,139.1094 Q18.8438,140.0625 18.8438,141.3281 Q18.8438,143.3438 19.5625,144.3125 Q20.2813,145.2656 21.875,145.2656 Q22.4688,145.2656 23.0938,145.1094 Q23.7188,144.9531 24.5469,144.5781 L24.5469,146.7969 Q23.8125,147.1094 23.0156,147.2656 Q22.2344,147.4219 21.4688,147.4219 Z " fill="#000000"/><text fill="#000000" font-family="sans-serif" font-size="14" lengthAdjust="spacing" textLength="241" x="36" y="145.932">SystemStateMessage - system_state</text><line style="stroke:#000000;stroke-width:1.5;" x1="8" x2="279" y1="156.5" y2="156.5"/><text fill="#000000" font-family="sans-serif" font-size="14" lengthAdjust="spacing" textLength="149" x="13" y="175.4659">timestamp: DATETIME</text><text fill="#000000" font-family="sans-serif" font-size="14" lengthAdjust="spacing" textLength="164" x="13" y="194.5339">timestamp_iso: INTEGER</text><text fill="#000000" font-family="sans-serif" font-size="14" lengthAdjust="spacing" textLength="142" x="13" y="213.6018">hash_value: INTEGER</text><text fill="#000000" font-family="sans-serif" font-size="14" lengthAdjust="spacing" textLength="136" x="13" y="232.6697">response: BOOLEAN</text><text fill="#000000" font-family="sans-serif" font-size="14" lengthAdjust="spacing" textLength="80" x="13" y="251.7376">id: INTEGER</text><text fill="#000000" font-family="sans-serif" font-size="14" lengthAdjust="spacing" textLength="73" x="13" y="270.8055">state: TEXT</text><line style="stroke:#000000;stroke-width:1.5;" x1="8" x2="279" y1="278.9075" y2="278.9075"/><!--MD5=[420773d580aa540f03d7d93844a8e611]
class LocomotiveEmergencyStopMessage - locomotive_emergency_stop--><rect codeLine="26" fill="#FFFFFF" filter="url(#f1dx5l6bmv5qh0)" height="143.3396" id="LocomotiveEmergencyStopMessage - locomotive_emergency_stop" rx="5" ry="5" style="stroke:#000000;stroke-width:1.5;" width="473" x="315" y="134"/><ellipse cx="330" cy="150" fill="#ADD1B2" rx="11" ry="11" style="stroke:#A80036;stroke-width:1.0;"/><path d="M329.4688,156.9219 Q327.7188,156.9219 326.5781,156.1875 Q325.4531,155.4375 324.8906,154.0938 Q324.3438,152.7344 324.3438,150.9375 Q324.3438,148.9063 325,147.4531 Q325.6563,146 326.9375,145.2188 Q328.2188,144.4375 330.0938,144.4375 Q330.9844,144.4375 331.6563,144.625 Q332.3281,144.7969 333.0156,145.1406 L332.2031,147.1563 Q331.5781,146.8438 331.0313,146.7188 Q330.5,146.5938 330.0156,146.5938 Q328.8438,146.5938 328.1406,147.125 Q327.4375,147.6563 327.1406,148.6094 Q326.8438,149.5625 326.8438,150.8281 Q326.8438,152.8438 327.5625,153.8125 Q328.2813,154.7656 329.875,154.7656 Q330.4688,154.7656 331.0938,154.6094 Q331.7188,154.4531 332.5469,154.0781 L332.5469,156.2969 Q331.8125,156.6094 331.0156,156.7656 Q330.2344,156.9219 329.4688,156.9219 Z " fill="#000000"/><text fill="#000000" font-family="sans-serif" font-size="14" lengthAdjust="spacing" textLength="441" x="344" y="155.432">LocomotiveEmergencyStopMessage - locomotive_emergency_stop</text><line style="stroke:#000000;stroke-width:1.5;" x1="316" x2="787" y1="166" y2="166"/><text fill="#000000" font-family="sans-serif" font-size="14" lengthAdjust="spacing" textLength="149" x="321" y="184.9659">timestamp: DATETIME</text><text fill="#000000" font-family="sans-serif" font-size="14" lengthAdjust="spacing" textLength="164" x="321" y="204.0339">timestamp_iso: INTEGER</text><text fill="#000000" font-family="sans-serif" font-size="14" lengthAdjust="spacing" textLength="142" x="321" y="223.1018">hash_value: INTEGER</text><text fill="#000000" font-family="sans-serif" font-size="14" lengthAdjust="spacing" textLength="136" x="321" y="242.1697">response: BOOLEAN</text><text fill="#000000" font-family="sans-serif" font-size="14" lengthAdjust="spacing" textLength="80" x="321" y="261.2376">id: INTEGER</text><line style="stroke:#000000;stroke-width:1.5;" x1="316" x2="787" y1="269.3396" y2="269.3396"/><!--MD5=[b0c9e3edb80e3f0d52852b2a6e73efb2]
class LocomotiveCycleStopMessage - locomotive_cycle_stop--><rect codeLine="34" fill="#FFFFFF" filter="url(#f1dx5l6bmv5qh0)" height="143.3396" id="LocomotiveCycleStopMessage - locomotive_cycle_stop" rx="5" ry="5" style="stroke:#000000;stroke-width:1.5;" width="391" x="823" y="134"/><ellipse cx="838" cy="150" fill="#ADD1B2" rx="11" ry="11" style="stroke:#A80036;stroke-width:1.0;"/><path d="M837.4688,156.9219 Q835.7188,156.9219 834.5781,156.1875 Q833.4531,155.4375 832.8906,154.0938 Q832.3438,152.7344 832.3438,150.9375 Q832.3438,148.9063 833,147.4531 Q833.6563,146 834.9375,145.2188 Q836.2188,144.4375 838.0938,144.4375 Q838.9844,144.4375 839.6563,144.625 Q840.3281,144.7969 841.0156,145.1406 L840.2031,147.1563 Q839.5781,146.8438 839.0313,146.7188 Q838.5,146.5938 838.0156,146.5938 Q836.8438,146.5938 836.1406,147.125 Q835.4375,147.6563 835.1406,148.6094 Q834.8438,149.5625 834.8438,150.8281 Q834.8438,152.8438 835.5625,153.8125 Q836.2813,154.7656 837.875,154.7656 Q838.4688,154.7656 839.0938,154.6094 Q839.7188,154.4531 840.5469,154.0781 L840.5469,156.2969 Q839.8125,156.6094 839.0156,156.7656 Q838.2344,156.9219 837.4688,156.9219 Z " fill="#000000"/><text fill="#000000" font-family="sans-serif" font-size="14" lengthAdjust="spacing" textLength="359" x="852" y="155.432">LocomotiveCycleStopMessage - locomotive_cycle_stop</text><line style="stroke:#000000;stroke-width:1.5;" x1="824" x2="1213" y1="166" y2="166"/><text fill="#000000" font-family="sans-serif" font-size="14" lengthAdjust="spacing" textLength="149" x="829" y="184.9659">timestamp: DATETIME</text><text fill="#000000" font-family="sans-serif" font-size="14" lengthAdjust="spacing" textLength="164" x="829" y="204.0339">timestamp_iso: INTEGER</text><text fill="#000000" font-family="sans-serif" font-size="14" lengthAdjust="spacing" textLength="142" x="829" y="223.1018">hash_value: INTEGER</text><text fill="#000000" font-family="sans-serif" font-size="14" lengthAdjust="spacing" textLength="136" x="829" y="242.1697">response: BOOLEAN</text><text fill="#000000" font-family="sans-serif" font-size="14" lengthAdjust="spacing" textLength="80" x="829" y="261.2376">id: INTEGER</text><line style="stroke:#000000;stroke-width:1.5;" x1="824" x2="1213" y1="269.3396" y2="269.3396"/><!--MD5=[9e017b18d2259b73f9a6493995018824]
class LocomotiveDataProtocolMessage - locomotive_data_protocol--><rect codeLine="42" fill="#FFFFFF" filter="url(#f1dx5l6bmv5qh0)" height="162.4075" id="LocomotiveDataProtocolMessage - locomotive_data_protocol" rx="5" ry="5" style="stroke:#000000;stroke-width:1.5;" width="434" x="1249.5" y="124.5"/><ellipse cx="1264.5" cy="140.5" fill="#ADD1B2" rx="11" ry="11" style="stroke:#A80036;stroke-width:1.0;"/><path d="M1263.9688,147.4219 Q1262.2188,147.4219 1261.0781,146.6875 Q1259.9531,145.9375 1259.3906,144.5938 Q1258.8438,143.2344 1258.8438,141.4375 Q1258.8438,139.4063 1259.5,137.9531 Q1260.1563,136.5 1261.4375,135.7188 Q1262.7188,134.9375 1264.5938,134.9375 Q1265.4844,134.9375 1266.1563,135.125 Q1266.8281,135.2969 1267.5156,135.6406 L1266.7031,137.6563 Q1266.0781,137.3438 1265.5313,137.2188 Q1265,137.0938 1264.5156,137.0938 Q1263.3438,137.0938 1262.6406,137.625 Q1261.9375,138.1563 1261.6406,139.1094 Q1261.3438,140.0625 1261.3438,141.3281 Q1261.3438,143.3438 1262.0625,144.3125 Q1262.7813,145.2656 1264.375,145.2656 Q1264.9688,145.2656 1265.5938,145.1094 Q1266.2188,144.9531 1267.0469,144.5781 L1267.0469,146.7969 Q1266.3125,147.1094 1265.5156,147.2656 Q1264.7344,147.4219 1263.9688,147.4219 Z " fill="#000000"/><text fill="#000000" font-family="sans-serif" font-size="14" lengthAdjust="spacing" textLength="402" x="1278.5" y="145.932">LocomotiveDataProtocolMessage - locomotive_data_protocol</text><line style="stroke:#000000;stroke-width:1.5;" x1="1250.5" x2="1682.5" y1="156.5" y2="156.5"/><text fill="#000000" font-family="sans-serif" font-size="14" lengthAdjust="spacing" textLength="149" x="1255.5" y="175.4659">timestamp: DATETIME</text><text fill="#000000" font-family="sans-serif" font-size="14" lengthAdjust="spacing" textLength="164" x="1255.5" y="194.5339">timestamp_iso: INTEGER</text><text fill="#000000" font-family="sans-serif" font-size="14" lengthAdjust="spacing" textLength="142" x="1255.5" y="213.6018">hash_value: INTEGER</text><text fill="#000000" font-family="sans-serif" font-size="14" lengthAdjust="spacing" textLength="136" x="1255.5" y="232.6697">response: BOOLEAN</text><text fill="#000000" font-family="sans-serif" font-size="14" lengthAdjust="spacing" textLength="80" x="1255.5" y="251.7376">id: INTEGER</text><text fill="#000000" font-family="sans-serif" font-size="14" lengthAdjust="spacing" textLength="95" x="1255.5" y="270.8055">protocol: TEXT</text><line style="stroke:#000000;stroke-width:1.5;" x1="1250.5" x2="1682.5" y1="278.9075" y2="278.9075"/><!--MD5=[da86440d19d079b6ccce6eacd65319f8]
class AccessoryDecoderSwitchingTimeMessage - accessory_decoder_switching_time--><rect codeLine="51" fill="#FFFFFF" filter="url(#f1dx5l6bmv5qh0)" height="162.4075" id="AccessoryDecoderSwitchingTimeMessage - accessory_decoder_switching_time" rx="5" ry="5" style="stroke:#000000;stroke-width:1.5;" width="559" x="1719" y="124.5"/><ellipse cx="1734" cy="140.5" fill="#ADD1B2" rx="11" ry="11" style="stroke:#A80036;stroke-width:1.0;"/><path d="M1733.4688,147.4219 Q1731.7188,147.4219 1730.5781,146.6875 Q1729.4531,145.9375 1728.8906,144.5938 Q1728.3438,143.2344 1728.3438,141.4375 Q1728.3438,139.4063 1729,137.9531 Q1729.6563,136.5 1730.9375,135.7188 Q1732.2188,134.9375 1734.0938,134.9375 Q1734.9844,134.9375 1735.6563,135.125 Q1736.3281,135.2969 1737.0156,135.6406 L1736.2031,137.6563 Q1735.5781,137.3438 1735.0313,137.2188 Q1734.5,137.0938 1734.0156,137.0938 Q1732.8438,137.0938 1732.1406,137.625 Q1731.4375,138.1563 1731.1406,139.1094 Q1730.8438,140.0625 1730.8438,141.3281 Q1730.8438,143.3438 1731.5625,144.3125 Q1732.2813,145.2656 1733.875,145.2656 Q1734.4688,145.2656 1735.0938,145.1094 Q1735.7188,144.9531 1736.5469,144.5781 L1736.5469,146.7969 Q1735.8125,147.1094 1735.0156,147.2656 Q1734.2344,147.4219 1733.4688,147.4219 Z " fill="#000000"/><text fill="#000000" font-family="sans-serif" font-size="14" lengthAdjust="spacing" textLength="527" x="1748" y="145.932">AccessoryDecoderSwitchingTimeMessage - accessory_decoder_switching_time</text><line style="stroke:#000000;stroke-width:1.5;" x1="1720" x2="2277" y1="156.5" y2="156.5"/><text fill="#000000" font-family="sans-serif" font-size="14" lengthAdjust="spacing" textLength="149" x="1725" y="175.4659">timestamp: DATETIME</text><text fill="#000000" font-family="sans-serif" font-size="14" lengthAdjust="spacing" textLength="164" x="1725" y="194.5339">timestamp_iso: INTEGER</text><text fill="#000000" font-family="sans-serif" font-size="14" lengthAdjust="spacing" textLength="142" x="1725" y="213.6018">hash_value: INTEGER</text><text fill="#000000" font-family="sans-serif" font-size="14" lengthAdjust="spacing" textLength="136" x="1725" y="232.6697">response: BOOLEAN</text><text fill="#000000" font-family="sans-serif" font-size="14" lengthAdjust="spacing" textLength="80" x="1725" y="251.7376">id: INTEGER</text><text fill="#000000" font-family="sans-serif" font-size="14" lengthAdjust="spacing" textLength="97" x="1725" y="270.8055">time: INTEGER</text><line style="stroke:#000000;stroke-width:1.5;" x1="1720" x2="2277" y1="278.9075" y2="278.9075"/><!--MD5=[ee8d6b345f2cd5641a7e23da8ed92f96]
class MfxFastReadMessage - mfx_fast_read--><rect codeLine="60" fill="#FFFFFF" filter="url(#f1dx5l6bmv5qh0)" height="162.4075" id="MfxFastReadMessage - mfx_fast_read" rx="5" ry="5" style="stroke:#000000;stroke-width:1.5;" width="284" x="2313.5" y="124.5"/><ellipse cx="2328.5" cy="140.5" fill="#ADD1B2" rx="11" ry="11" style="stroke:#A80036;stroke-width:1.0;"/><path d="M2327.9688,147.4219 Q2326.2188,147.4219 2325.0781,146.6875 Q2323.9531,145.9375 2323.3906,144.5938 Q2322.8438,143.2344 2322.8438,141.4375 Q2322.8438,139.4063 2323.5,137.9531 Q2324.1563,136.5 2325.4375,135.7188 Q2326.7188,134.9375 2328.5938,134.9375 Q2329.4844,134.9375 2330.1563,135.125 Q2330.8281,135.2969 2331.5156,135.6406 L2330.7031,137.6563 Q2330.0781,137.3438 2329.5313,137.2188 Q2329,137.0938 2328.5156,137.0938 Q2327.3438,137.0938 2326.6406,137.625 Q2325.9375,138.1563 2325.6406,139.1094 Q2325.3438,140.0625 2325.3438,141.3281 Q2325.3438,143.3438 2326.0625,144.3125 Q2326.7813,145.2656 2328.375,145.2656 Q2328.9688,145.2656 2329.5938,145.1094 Q2330.2188,144.9531 2331.0469,144.5781 L2331.0469,146.7969 Q2330.3125,147.1094 2329.5156,147.2656 Q2328.7344,147.4219 2327.9688,147.4219 Z " fill="#000000"/><text fill="#000000" font-family="sans-serif" font-size="14" lengthAdjust="spacing" textLength="252" x="2342.5" y="145.932">MfxFastReadMessage - mfx_fast_read</text><line style="stroke:#000000;stroke-width:1.5;" x1="2314.5" x2="2596.5" y1="156.5" y2="156.5"/><text fill="#000000" font-family="sans-serif" font-size="14" lengthAdjust="spacing" textLength="149" x="2319.5" y="175.4659">timestamp: DATETIME</text><text fill="#000000" font-family="sans-serif" font-size="14" lengthAdjust="spacing" textLength="164" x="2319.5" y="194.5339">timestamp_iso: INTEGER</text><text fill="#000000" font-family="sans-serif" font-size="14" lengthAdjust="spacing" textLength="142" x="2319.5" y="213.6018">hash_value: INTEGER</text><text fill="#000000" font-family="sans-serif" font-size="14" lengthAdjust="spacing" textLength="136" x="2319.5" y="232.6697">response: BOOLEAN</text><text fill="#000000" font-family="sans-serif" font-size="14" lengthAdjust="spacing" textLength="80" x="2319.5" y="251.7376">id: INTEGER</text><text fill="#000000" font-family="sans-serif" font-size="14" lengthAdjust="spacing" textLength="118" x="2319.5" y="270.8055">mfx_sid: INTEGER</text><line style="stroke:#000000;stroke-width:1.5;" x1="2314.5" x2="2596.5" y1="278.9075" y2="278.9075"/><!--MD5=[9d48d9c2249716a79fb323105e86336d]
class EnableRailProtocolCommand - enable_rail_protocol--><rect codeLine="69" fill="#FFFFFF" filter="url(#f1dx5l6bmv5qh0)" height="162.4075" id="EnableRailProtocolCommand - enable_rail_protocol" rx="5" ry="5" style="stroke:#000000;stroke-width:1.5;" width="374" x="2632.5" y="124.5"/><ellipse cx="2647.5" cy="140.5" fill="#ADD1B2" rx="11" ry="11" style="stroke:#A80036;stroke-width:1.0;"/><path d="M2646.9688,147.4219 Q2645.2188,147.4219 2644.0781,146.6875 Q2642.9531,145.9375 2642.3906,144.5938 Q2641.8438,143.2344 2641.8438,141.4375 Q2641.8438,139.4063 2642.5,137.9531 Q2643.1563,136.5 2644.4375,135.7188 Q2645.7188,134.9375 2647.5938,134.9375 Q2648.4844,134.9375 2649.1563,135.125 Q2649.8281,135.2969 2650.5156,135.6406 L2649.7031,137.6563 Q2649.0781,137.3438 2648.5313,137.2188 Q2648,137.0938 2647.5156,137.0938 Q2646.3438,137.0938 2645.6406,137.625 Q2644.9375,138.1563 2644.6406,139.1094 Q2644.3438,140.0625 2644.3438,141.3281 Q2644.3438,143.3438 2645.0625,144.3125 Q2645.7813,145.2656 2647.375,145.2656 Q2647.9688,145.2656 2648.5938,145.1094 Q2649.2188,144.9531 2650.0469,144.5781 L2650.0469,146.7969 Q2649.3125,147.1094 2648.5156,147.2656 Q2647.7344,147.4219 2646.9688,147.4219 Z " fill="#000000"/><text fill="#000000" font-family="sans-serif" font-size="14" lengthAdjust="spacing" textLength="342" x="2661.5" y="145.932">EnableRailProtocolCommand - enable_rail_protocol</text><line style="stroke:#000000;stroke-width:1.5;" x1="2633.5" x2="3005.5" y1="156.5" y2="156.5"/><text fill="#000000" font-family="sans-serif" font-size="14" lengthAdjust="spacing" textLength="149" x="2638.5" y="175.4659">timestamp: DATETIME</text><text fill="#000000" font-family="sans-serif" font-size="14" lengthAdjust="spacing" textLength="164" x="2638.5" y="194.5339">timestamp_iso: INTEGER</text><text fill="#000000" font-family="sans-serif" font-size="14" lengthAdjust="spacing" textLength="142" x="2638.5" y="213.6018">hash_value: INTEGER</text><text fill="#000000" font-family="sans-serif" font-size="14" lengthAdjust="spacing" textLength="136" x="2638.5" y="232.6697">response: BOOLEAN</text><text fill="#000000" font-family="sans-serif" font-size="14" lengthAdjust="spacing" textLength="80" x="2638.5" y="251.7376">id: INTEGER</text><text fill="#000000" font-family="sans-serif" font-size="14" lengthAdjust="spacing" textLength="105" x="2638.5" y="270.8055">bitset: INTEGER</text><line style="stroke:#000000;stroke-width:1.5;" x1="2633.5" x2="3005.5" y1="278.9075" y2="278.9075"/><!--MD5=[067a0396a2b21f3c91e3c40e37837bb9]
class SetMfxRegisterCounterMessage - set_mfx_register_counter--><rect codeLine="78" fill="#FFFFFF" filter="url(#f1dx5l6bmv5qh0)" height="162.4075" id="SetMfxRegisterCounterMessage - set_mfx_register_counter" rx="5" ry="5" style="stroke:#000000;stroke-width:1.5;" width="429" x="3042" y="124.5"/><ellipse cx="3057" cy="140.5" fill="#ADD1B2" rx="11" ry="11" style="stroke:#A80036;stroke-width:1.0;"/><path d="M3056.4688,147.4219 Q3054.7188,147.4219 3053.5781,146.6875 Q3052.4531,145.9375 3051.8906,144.5938 Q3051.3438,143.2344 3051.3438,141.4375 Q3051.3438,139.4063 3052,137.9531 Q3052.6563,136.5 3053.9375,135.7188 Q3055.2188,134.9375 3057.0938,134.9375 Q3057.9844,134.9375 3058.6563,135.125 Q3059.3281,135.2969 3060.0156,135.6406 L3059.2031,137.6563 Q3058.5781,137.3438 3058.0313,137.2188 Q3057.5,137.0938 3057.0156,137.0938 Q3055.8438,137.0938 3055.1406,137.625 Q3054.4375,138.1563 3054.1406,139.1094 Q3053.8438,140.0625 3053.8438,141.3281 Q3053.8438,143.3438 3054.5625,144.3125 Q3055.2813,145.2656 3056.875,145.2656 Q3057.4688,145.2656 3058.0938,145.1094 Q3058.7188,144.9531 3059.5469,144.5781 L3059.5469,146.7969 Q3058.8125,147.1094 3058.0156,147.2656 Q3057.2344,147.4219 3056.4688,147.4219 Z " fill="#000000"/><text fill="#000000" font-family="sans-serif" font-size="14" lengthAdjust="spacing" textLength="397" x="3071" y="145.932">SetMfxRegisterCounterMessage - set_mfx_register_counter</text><line style="stroke:#000000;stroke-width:1.5;" x1="3043" x2="3470" y1="156.5" y2="156.5"/><text fill="#000000" font-family="sans-serif" font-size="14" lengthAdjust="spacing" textLength="149" x="3048" y="175.4659">timestamp: DATETIME</text><text fill="#000000" font-family="sans-serif" font-size="14" lengthAdjust="spacing" textLength="164" x="3048" y="194.5339">timestamp_iso: INTEGER</text><text fill="#000000" font-family="sans-serif" font-size="14" lengthAdjust="spacing" textLength="142" x="3048" y="213.6018">hash_value: INTEGER</text><text fill="#000000" font-family="sans-serif" font-size="14" lengthAdjust="spacing" textLength="136" x="3048" y="232.6697">response: BOOLEAN</text><text fill="#000000" font-family="sans-serif" font-size="14" lengthAdjust="spacing" textLength="80" x="3048" y="251.7376">id: INTEGER</text><text fill="#000000" font-family="sans-serif" font-size="14" lengthAdjust="spacing" textLength="119" x="3048" y="270.8055">counter: INTEGER</text><line style="stroke:#000000;stroke-width:1.5;" x1="3043" x2="3470" y1="278.9075" y2="278.9075"/><!--MD5=[7b8b4bf94539344de8f7f71269153720]
class SystemOverloadMessage - system_overload--><rect codeLine="87" fill="#FFFFFF" filter="url(#f1dx5l6bmv5qh0)" height="162.4075" id="SystemOverloadMessage - system_overload" rx="5" ry="5" style="stroke:#000000;stroke-width:1.5;" width="325" x="3506" y="124.5"/><ellipse cx="3521" cy="140.5" fill="#ADD1B2" rx="11" ry="11" style="stroke:#A80036;stroke-width:1.0;"/><path d="M3520.4688,147.4219 Q3518.7188,147.4219 3517.5781,146.6875 Q3516.4531,145.9375 3515.8906,144.5938 Q3515.3438,143.2344 3515.3438,141.4375 Q3515.3438,139.4063 3516,137.9531 Q3516.6563,136.5 3517.9375,135.7188 Q3519.2188,134.9375 3521.0938,134.9375 Q3521.9844,134.9375 3522.6563,135.125 Q3523.3281,135.2969 3524.0156,135.6406 L3523.2031,137.6563 Q3522.5781,137.3438 3522.0313,137.2188 Q3521.5,137.0938 3521.0156,137.0938 Q3519.8438,137.0938 3519.1406,137.625 Q3518.4375,138.1563 3518.1406,139.1094 Q3517.8438,140.0625 3517.8438,141.3281 Q3517.8438,143.3438 3518.5625,144.3125 Q3519.2813,145.2656 3520.875,145.2656 Q3521.4688,145.2656 3522.0938,145.1094 Q3522.7188,144.9531 3523.5469,144.5781 L3523.5469,146.7969 Q3522.8125,147.1094 3522.0156,147.2656 Q3521.2344,147.4219 3520.4688,147.4219 Z " fill="#000000"/><text fill="#000000" font-family="sans-serif" font-size="14" lengthAdjust="spacing" textLength="293" x="3535" y="145.932">SystemOverloadMessage - system_overload</text><line style="stroke:#000000;stroke-width:1.5;" x1="3507" x2="3830" y1="156.5" y2="156.5"/><text fill="#000000" font-family="sans-serif" font-size="14" lengthAdjust="spacing" textLength="149" x="3512" y="175.4659">timestamp: DATETIME</text><text fill="#000000" font-family="sans-serif" font-size="14" lengthAdjust="spacing" textLength="164" x="3512" y="194.5339">timestamp_iso: INTEGER</text><text fill="#000000" font-family="sans-serif" font-size="14" lengthAdjust="spacing" textLength="142" x="3512" y="213.6018">hash_value: INTEGER</text><text fill="#000000" font-family="sans-serif" font-size="14" lengthAdjust="spacing" textLength="136" x="3512" y="232.6697">response: BOOLEAN</text><text fill="#000000" font-family="sans-serif" font-size="14" lengthAdjust="spacing" textLength="80" x="3512" y="251.7376">id: INTEGER</text><text fill="#000000" font-family="sans-serif" font-size="14" lengthAdjust="spacing" textLength="121" x="3512" y="270.8055">channel: INTEGER</text><line style="stroke:#000000;stroke-width:1.5;" x1="3507" x2="3830" y1="278.9075" y2="278.9075"/><!--MD5=[377ddf7b602270054e541b4fa661e1bb]
class SystemStatusMessage - system_status--><rect codeLine="96" fill="#FFFFFF" filter="url(#f1dx5l6bmv5qh0)" height="181.4754" id="SystemStatusMessage - system_status" rx="5" ry="5" style="stroke:#000000;stroke-width:1.5;" width="289" x="3866" y="115"/><ellipse cx="3881" cy="131" fill="#ADD1B2" rx="11" ry="11" style="stroke:#A80036;stroke-width:1.0;"/><path d="M3880.4688,137.9219 Q3878.7188,137.9219 3877.5781,137.1875 Q3876.4531,136.4375 3875.8906,135.0938 Q3875.3438,133.7344 3875.3438,131.9375 Q3875.3438,129.9063 3876,128.4531 Q3876.6563,127 3877.9375,126.2188 Q3879.2188,125.4375 3881.0938,125.4375 Q3881.9844,125.4375 3882.6563,125.625 Q3883.3281,125.7969 3884.0156,126.1406 L3883.2031,128.1563 Q3882.5781,127.8438 3882.0313,127.7188 Q3881.5,127.5938 3881.0156,127.5938 Q3879.8438,127.5938 3879.1406,128.125 Q3878.4375,128.6563 3878.1406,129.6094 Q3877.8438,130.5625 3877.8438,131.8281 Q3877.8438,133.8438 3878.5625,134.8125 Q3879.2813,135.7656 3880.875,135.7656 Q3881.4688,135.7656 3882.0938,135.6094 Q3882.7188,135.4531 3883.5469,135.0781 L3883.5469,137.2969 Q3882.8125,137.6094 3882.0156,137.7656 Q3881.2344,137.9219 3880.4688,137.9219 Z " fill="#000000"/><text fill="#000000" font-family="sans-serif" font-size="14" lengthAdjust="spacing" textLength="257" x="3895" y="136.432">SystemStatusMessage - system_status</text><line style="stroke:#000000;stroke-width:1.5;" x1="3867" x2="4154" y1="147" y2="147"/><text fill="#000000" font-family="sans-serif" font-size="14" lengthAdjust="spacing" textLength="149" x="3872" y="165.9659">timestamp: DATETIME</text><text fill="#000000" font-family="sans-serif" font-size="14" lengthAdjust="spacing" textLength="164" x="3872" y="185.0339">timestamp_iso: INTEGER</text><text fill="#000000" font-family="sans-serif" font-size="14" lengthAdjust="spacing" textLength="142" x="3872" y="204.1018">hash_value: INTEGER</text><text fill="#000000" font-family="sans-serif" font-size="14" lengthAdjust="spacing" textLength="136" x="3872" y="223.1697">response: BOOLEAN</text><text fill="#000000" font-family="sans-serif" font-size="14" lengthAdjust="spacing" textLength="80" x="3872" y="242.2376">id: INTEGER</text><text fill="#000000" font-family="sans-serif" font-size="14" lengthAdjust="spacing" textLength="121" x="3872" y="261.3055">channel: INTEGER</text><text fill="#000000" font-family="sans-serif" font-size="14" lengthAdjust="spacing" textLength="177" x="3872" y="280.3734">measured_value: INTEGER</text><line style="stroke:#000000;stroke-width:1.5;" x1="3867" x2="4154" y1="288.4754" y2="288.4754"/><!--MD5=[1cceb153737a55f1a7ac27af50ecf734]
class SetSystemIdentifierMessage - set_system_identifier--><rect codeLine="106" fill="#FFFFFF" filter="url(#f1dx5l6bmv5qh0)" height="162.4075" id="SetSystemIdentifierMessage - set_system_identifier" rx="5" ry="5" style="stroke:#000000;stroke-width:1.5;" width="378" x="4190.5" y="124.5"/><ellipse cx="4205.5" cy="140.5" fill="#ADD1B2" rx="11" ry="11" style="stroke:#A80036;stroke-width:1.0;"/><path d="M4204.9688,147.4219 Q4203.2188,147.4219 4202.0781,146.6875 Q4200.9531,145.9375 4200.3906,144.5938 Q4199.8438,143.2344 4199.8438,141.4375 Q4199.8438,139.4063 4200.5,137.9531 Q4201.1563,136.5 4202.4375,135.7188 Q4203.7188,134.9375 4205.5938,134.9375 Q4206.4844,134.9375 4207.1563,135.125 Q4207.8281,135.2969 4208.5156,135.6406 L4207.7031,137.6563 Q4207.0781,137.3438 4206.5313,137.2188 Q4206,137.0938 4205.5156,137.0938 Q4204.3438,137.0938 4203.6406,137.625 Q4202.9375,138.1563 4202.6406,139.1094 Q4202.3438,140.0625 4202.3438,141.3281 Q4202.3438,143.3438 4203.0625,144.3125 Q4203.7813,145.2656 4205.375,145.2656 Q4205.9688,145.2656 4206.5938,145.1094 Q4207.2188,144.9531 4208.0469,144.5781 L4208.0469,146.7969 Q4207.3125,147.1094 4206.5156,147.2656 Q4205.7344,147.4219 4204.9688,147.4219 Z " fill="#000000"/><text fill="#000000" font-family="sans-serif" font-size="14" lengthAdjust="spacing" textLength="346" x="4219.5" y="145.932">SetSystemIdentifierMessage - set_system_identifier</text><line style="stroke:#000000;stroke-width:1.5;" x1="4191.5" x2="4567.5" y1="156.5" y2="156.5"/><text fill="#000000" font-family="sans-serif" font-size="14" lengthAdjust="spacing" textLength="149" x="4196.5" y="175.4659">timestamp: DATETIME</text><text fill="#000000" font-family="sans-serif" font-size="14" lengthAdjust="spacing" textLength="164" x="4196.5" y="194.5339">timestamp_iso: INTEGER</text><text fill="#000000" font-family="sans-serif" font-size="14" lengthAdjust="spacing" textLength="142" x="4196.5" y="213.6018">hash_value: INTEGER</text><text fill="#000000" font-family="sans-serif" font-size="14" lengthAdjust="spacing" textLength="136" x="4196.5" y="232.6697">response: BOOLEAN</text><text fill="#000000" font-family="sans-serif" font-size="14" lengthAdjust="spacing" textLength="80" x="4196.5" y="251.7376">id: INTEGER</text><text fill="#000000" font-family="sans-serif" font-size="14" lengthAdjust="spacing" textLength="133" x="4196.5" y="270.8055">system_id: INTEGER</text><line style="stroke:#000000;stroke-width:1.5;" x1="4191.5" x2="4567.5" y1="278.9075" y2="278.9075"/><!--MD5=[c45a12949c61d9e45769c6a16979452f]
class MfxSeekMessage - mfx_seek--><rect codeLine="115" fill="#FFFFFF" filter="url(#f1dx5l6bmv5qh0)" height="143.3396" id="MfxSeekMessage - mfx_seek" rx="5" ry="5" style="stroke:#000000;stroke-width:1.5;" width="222" x="4603.5" y="134"/><ellipse cx="4618.5" cy="150" fill="#ADD1B2" rx="11" ry="11" style="stroke:#A80036;stroke-width:1.0;"/><path d="M4617.9688,156.9219 Q4616.2188,156.9219 4615.0781,156.1875 Q4613.9531,155.4375 4613.3906,154.0938 Q4612.8438,152.7344 4612.8438,150.9375 Q4612.8438,148.9063 4613.5,147.4531 Q4614.1563,146 4615.4375,145.2188 Q4616.7188,144.4375 4618.5938,144.4375 Q4619.4844,144.4375 4620.1563,144.625 Q4620.8281,144.7969 4621.5156,145.1406 L4620.7031,147.1563 Q4620.0781,146.8438 4619.5313,146.7188 Q4619,146.5938 4618.5156,146.5938 Q4617.3438,146.5938 4616.6406,147.125 Q4615.9375,147.6563 4615.6406,148.6094 Q4615.3438,149.5625 4615.3438,150.8281 Q4615.3438,152.8438 4616.0625,153.8125 Q4616.7813,154.7656 4618.375,154.7656 Q4618.9688,154.7656 4619.5938,154.6094 Q4620.2188,154.4531 4621.0469,154.0781 L4621.0469,156.2969 Q4620.3125,156.6094 4619.5156,156.7656 Q4618.7344,156.9219 4617.9688,156.9219 Z " fill="#000000"/><text fill="#000000" font-family="sans-serif" font-size="14" lengthAdjust="spacing" textLength="190" x="4632.5" y="155.432">MfxSeekMessage - mfx_seek</text><line style="stroke:#000000;stroke-width:1.5;" x1="4604.5" x2="4824.5" y1="166" y2="166"/><text fill="#000000" font-family="sans-serif" font-size="14" lengthAdjust="spacing" textLength="149" x="4609.5" y="184.9659">timestamp: DATETIME</text><text fill="#000000" font-family="sans-serif" font-size="14" lengthAdjust="spacing" textLength="164" x="4609.5" y="204.0339">timestamp_iso: INTEGER</text><text fill="#000000" font-family="sans-serif" font-size="14" lengthAdjust="spacing" textLength="142" x="4609.5" y="223.1018">hash_value: INTEGER</text><text fill="#000000" font-family="sans-serif" font-size="14" lengthAdjust="spacing" textLength="136" x="4609.5" y="242.1697">response: BOOLEAN</text><text fill="#000000" font-family="sans-serif" font-size="14" lengthAdjust="spacing" textLength="80" x="4609.5" y="261.2376">id: INTEGER</text><line style="stroke:#000000;stroke-width:1.5;" x1="4604.5" x2="4824.5" y1="269.3396" y2="269.3396"/><!--MD5=[81837e219453f14f0e03a945005d390d]
class SystemResetMessage - system_reset--><rect codeLine="123" fill="#FFFFFF" filter="url(#f1dx5l6bmv5qh0)" height="162.4075" id="SystemResetMessage - system_reset" rx="5" ry="5" style="stroke:#000000;stroke-width:1.5;" width="277" x="4861" y="124.5"/><ellipse cx="4876" cy="140.5" fill="#ADD1B2" rx="11" ry="11" style="stroke:#A80036;stroke-width:1.0;"/><path d="M4875.4688,147.4219 Q4873.7188,147.4219 4872.5781,146.6875 Q4871.4531,145.9375 4870.8906,144.5938 Q4870.3438,143.2344 4870.3438,141.4375 Q4870.3438,139.4063 4871,137.9531 Q4871.6563,136.5 4872.9375,135.7188 Q4874.2188,134.9375 4876.0938,134.9375 Q4876.9844,134.9375 4877.6563,135.125 Q4878.3281,135.2969 4879.0156,135.6406 L4878.2031,137.6563 Q4877.5781,137.3438 4877.0313,137.2188 Q4876.5,137.0938 4876.0156,137.0938 Q4874.8438,137.0938 4874.1406,137.625 Q4873.4375,138.1563 4873.1406,139.1094 Q4872.8438,140.0625 4872.8438,141.3281 Q4872.8438,143.3438 4873.5625,144.3125 Q4874.2813,145.2656 4875.875,145.2656 Q4876.4688,145.2656 4877.0938,145.1094 Q4877.7188,144.9531 4878.5469,144.5781 L4878.5469,146.7969 Q4877.8125,147.1094 4877.0156,147.2656 Q4876.2344,147.4219 4875.4688,147.4219 Z " fill="#000000"/><text fill="#000000" font-family="sans-serif" font-size="14" lengthAdjust="spacing" textLength="245" x="4890" y="145.932">SystemResetMessage - system_reset</text><line style="stroke:#000000;stroke-width:1.5;" x1="4862" x2="5137" y1="156.5" y2="156.5"/><text fill="#000000" font-family="sans-serif" font-size="14" lengthAdjust="spacing" textLength="149" x="4867" y="175.4659">timestamp: DATETIME</text><text fill="#000000" font-family="sans-serif" font-size="14" lengthAdjust="spacing" textLength="164" x="4867" y="194.5339">timestamp_iso: INTEGER</text><text fill="#000000" font-family="sans-serif" font-size="14" lengthAdjust="spacing" textLength="142" x="4867" y="213.6018">hash_value: INTEGER</text><text fill="#000000" font-family="sans-serif" font-size="14" lengthAdjust="spacing" textLength="136" x="4867" y="232.6697">response: BOOLEAN</text><text fill="#000000" font-family="sans-serif" font-size="14" lengthAdjust="spacing" textLength="80" x="4867" y="251.7376">id: INTEGER</text><text fill="#000000" font-family="sans-serif" font-size="14" lengthAdjust="spacing" textLength="108" x="4867" y="270.8055">target: INTEGER</text><line style="stroke:#000000;stroke-width:1.5;" x1="4862" x2="5137" y1="278.9075" y2="278.9075"/><!--MD5=[a66b021d52e734e3fbd398ddd5746253]
reverse link AbstractSystemMessage to SystemStateMessage - system_state--><path codeLine="25" d="M2708.16,14 C2708.16,14 143.5,14 143.5,14 C143.5,14 143.5,72.09 143.5,124.29 " fill="none" id="AbstractSystemMessage-backto-SystemStateMessage - system_state" style="stroke:#000000;stroke-width:2.0;"/><polygon fill="none" points="2708.16,7,2728.16,14,2708.16,21,2708.16,7" style="stroke:#000000;stroke-width:2.0;"/><!--MD5=[f1ac02b6090d39820802b058fd9978c3]
reverse link AbstractSystemMessage to LocomotiveEmergencyStopMessage - locomotive_emergency_stop--><path codeLine="33" d="M2708.49,21 C2708.49,21 551.5,21 551.5,21 C551.5,21 551.5,82.04 551.5,133.9 " fill="none" id="AbstractSystemMessage-backto-LocomotiveEmergencyStopMessage - locomotive_emergency_stop" style="stroke:#000000;stroke-width:2.0;"/><polygon fill="none" points="2708.49,14,2728.49,21,2708.49,28,2708.49,14" style="stroke:#000000;stroke-width:2.0;"/><!--MD5=[3716442e17e2dfacb760f489d6fcf91c]
reverse link AbstractSystemMessage to LocomotiveCycleStopMessage - locomotive_cycle_stop--><path codeLine="41" d="M2708.33,28 C2708.33,28 1018.5,28 1018.5,28 C1018.5,28 1018.5,84.55 1018.5,133.82 " fill="none" id="AbstractSystemMessage-backto-LocomotiveCycleStopMessage - locomotive_cycle_stop" style="stroke:#000000;stroke-width:2.0;"/><polygon fill="none" points="2708.33,21,2728.33,28,2708.33,35,2708.33,21" style="stroke:#000000;stroke-width:2.0;"/><!--MD5=[4ea4b3e61a94170699298536aed228de]
reverse link AbstractSystemMessage to LocomotiveDataProtocolMessage - locomotive_data_protocol--><path codeLine="50" d="M2708.36,35 C2708.36,35 1466.5,35 1466.5,35 C1466.5,35 1466.5,80.33 1466.5,124.24 " fill="none" id="AbstractSystemMessage-backto-LocomotiveDataProtocolMessage - locomotive_data_protocol" style="stroke:#000000;stroke-width:2.0;"/><polygon fill="none" points="2708.36,28,2728.36,35,2708.36,42,2708.36,28" style="stroke:#000000;stroke-width:2.0;"/><!--MD5=[0f565d090ce8ddd67b350010ac8d8e17]
reverse link AbstractSystemMessage to AccessoryDecoderSwitchingTimeMessage - accessory_decoder_switching_time--><path codeLine="59" d="M2708.11,42 C2708.11,42 1998.5,42 1998.5,42 C1998.5,42 1998.5,83.19 1998.5,124.23 " fill="none" id="AbstractSystemMessage-backto-AccessoryDecoderSwitchingTimeMessage - accessory_decoder_switching_time" style="stroke:#000000;stroke-width:2.0;"/><polygon fill="none" points="2708.11,35,2728.11,42,2708.11,49,2708.11,35" style="stroke:#000000;stroke-width:2.0;"/><!--MD5=[cba6c253c281bdbb9cac28ba693348e1]
reverse link AbstractSystemMessage to MfxFastReadMessage - mfx_fast_read--><path codeLine="68" d="M2708.12,49 C2708.12,49 2455.5,49 2455.5,49 C2455.5,49 2455.5,86.31 2455.5,124.5 " fill="none" id="AbstractSystemMessage-backto-MfxFastReadMessage - mfx_fast_read" style="stroke:#000000;stroke-width:2.0;"/><polygon fill="none" points="2708.12,42,2728.12,49,2708.12,56,2708.12,42" style="stroke:#000000;stroke-width:2.0;"/><!--MD5=[77da3597f004f0c0c69df006955e0cd2]
reverse link AbstractSystemMessage to EnableRailProtocolCommand - enable_rail_protocol--><path codeLine="77" d="M2789.17,75.26 C2789.17,75.26 2789.17,124.26 2789.17,124.26 " fill="none" id="AbstractSystemMessage-backto-EnableRailProtocolCommand - enable_rail_protocol" style="stroke:#000000;stroke-width:2.0;"/><polygon fill="none" points="2782.17,75.26,2789.17,55.26,2796.17,75.26,2782.17,75.26" style="stroke:#000000;stroke-width:2.0;"/><!--MD5=[3d8591d3541ff9b382609132b6b8c782]
reverse link AbstractSystemMessage to SetMfxRegisterCounterMessage - set_mfx_register_counter--><path codeLine="86" d="M2930.58,47 C2930.58,47 3256.5,47 3256.5,47 C3256.5,47 3256.5,85.4 3256.5,124.39 " fill="none" id="AbstractSystemMessage-backto-SetMfxRegisterCounterMessage - set_mfx_register_counter" style="stroke:#000000;stroke-width:2.0;"/><polygon fill="none" points="2930.58,54,2910.58,47,2930.58,40,2930.58,54" style="stroke:#000000;stroke-width:2.0;"/><!--MD5=[011ba64fa55cdcaf233f23909b8850fe]
reverse link AbstractSystemMessage to SystemOverloadMessage - system_overload--><path codeLine="95" d="M2930.76,39 C2930.76,39 3668.5,39 3668.5,39 C3668.5,39 3668.5,81.94 3668.5,124.2 " fill="none" id="AbstractSystemMessage-backto-SystemOverloadMessage - system_overload" style="stroke:#000000;stroke-width:2.0;"/><polygon fill="none" points="2930.76,46,2910.76,39,2930.76,32,2930.76,46" style="stroke:#000000;stroke-width:2.0;"/><!--MD5=[d5465141889df98b8449fc029129bf01]
reverse link AbstractSystemMessage to SystemStatusMessage - system_status--><path codeLine="105" d="M2849.83,75.32 C2849.83,75.32 2849.83,120 2849.83,120 C2849.83,120 3554.71,120 3865.85,120 " fill="none" id="AbstractSystemMessage-backto-SystemStatusMessage - system_status" style="stroke:#000000;stroke-width:2.0;"/><polygon fill="none" points="2842.83,75.32,2849.83,55.32,2856.83,75.32,2842.83,75.32" style="stroke:#000000;stroke-width:2.0;"/><!--MD5=[89f547877c6a6721fa6b195500dbd1ca]
reverse link AbstractSystemMessage to SetSystemIdentifierMessage - set_system_identifier--><path codeLine="114" d="M2930.69,31 C2930.69,31 4379.5,31 4379.5,31 C4379.5,31 4379.5,78.81 4379.5,124.38 " fill="none" id="AbstractSystemMessage-backto-SetSystemIdentifierMessage - set_system_identifier" style="stroke:#000000;stroke-width:2.0;"/><polygon fill="none" points="2930.69,38,2910.69,31,2930.69,24,2930.69,38" style="stroke:#000000;stroke-width:2.0;"/><!--MD5=[ca44ac9f9c324e21c3897925651e692a]
reverse link AbstractSystemMessage to MfxSeekMessage - mfx_seek--><path codeLine="122" d="M2930.58,23 C2930.58,23 4714.5,23 4714.5,23 C4714.5,23 4714.5,82.77 4714.5,133.89 " fill="none" id="AbstractSystemMessage-backto-MfxSeekMessage - mfx_seek" style="stroke:#000000;stroke-width:2.0;"/><polygon fill="none" points="2930.58,30,2910.58,23,2930.58,16,2930.58,30" style="stroke:#000000;stroke-width:2.0;"/><!--MD5=[428664a64b08a7621be272a16286b388]
reverse link AbstractSystemMessage to SystemResetMessage - system_reset--><path codeLine="131" d="M2930.74,15 C2930.74,15 4999.5,15 4999.5,15 C4999.5,15 4999.5,72.59 4999.5,124.43 " fill="none" id="AbstractSystemMessage-backto-SystemResetMessage - system_reset" style="stroke:#000000;stroke-width:2.0;"/><polygon fill="none" points="2930.74,22,2910.74,15,2930.74,8,2930.74,22" style="stroke:#000000;stroke-width:2.0;"/><!--MD5=[a0fa1301db5971984a82d75df4ae81be]
@startuml
skinparam useBetaStyle true
skinparam linetype ortho

<style>
    classDiagram{
        FontColor Black
        BackgroundColor White
        LineThickness 2
        LineColor Black
        RoundCorner 10
    }
</style>

class AbstractSystemMessage {
}
abstract class AbstractSystemMessage
class "SystemStateMessage - system_state" {
timestamp: DATETIME
timestamp_iso: INTEGER
hash_value: INTEGER
response: BOOLEAN
id: INTEGER
state: TEXT
}
AbstractSystemMessage <|- - "SystemStateMessage - system_state"
class "LocomotiveEmergencyStopMessage - locomotive_emergency_stop" {
timestamp: DATETIME
timestamp_iso: INTEGER
hash_value: INTEGER
response: BOOLEAN
id: INTEGER
}
AbstractSystemMessage <|- - "LocomotiveEmergencyStopMessage - locomotive_emergency_stop"
class "LocomotiveCycleStopMessage - locomotive_cycle_stop" {
timestamp: DATETIME
timestamp_iso: INTEGER
hash_value: INTEGER
response: BOOLEAN
id: INTEGER
}
AbstractSystemMessage <|- - "LocomotiveCycleStopMessage - locomotive_cycle_stop"
class "LocomotiveDataProtocolMessage - locomotive_data_protocol" {
timestamp: DATETIME
timestamp_iso: INTEGER
hash_value: INTEGER
response: BOOLEAN
id: INTEGER
protocol: TEXT
}
AbstractSystemMessage <|- - "LocomotiveDataProtocolMessage - locomotive_data_protocol"
class "AccessoryDecoderSwitchingTimeMessage - accessory_decoder_switching_time" {
timestamp: DATETIME
timestamp_iso: INTEGER
hash_value: INTEGER
response: BOOLEAN
id: INTEGER
time: INTEGER
}
AbstractSystemMessage <|- - "AccessoryDecoderSwitchingTimeMessage - accessory_decoder_switching_time"
class "MfxFastReadMessage - mfx_fast_read" {
timestamp: DATETIME
timestamp_iso: INTEGER
hash_value: INTEGER
response: BOOLEAN
id: INTEGER
mfx_sid: INTEGER
}
AbstractSystemMessage <|- - "MfxFastReadMessage - mfx_fast_read"
class "EnableRailProtocolCommand - enable_rail_protocol" {
timestamp: DATETIME
timestamp_iso: INTEGER
hash_value: INTEGER
response: BOOLEAN
id: INTEGER
bitset: INTEGER
}
AbstractSystemMessage <|- - "EnableRailProtocolCommand - enable_rail_protocol"
class "SetMfxRegisterCounterMessage - set_mfx_register_counter" {
timestamp: DATETIME
timestamp_iso: INTEGER
hash_value: INTEGER
response: BOOLEAN
id: INTEGER
counter: INTEGER
}
AbstractSystemMessage <|- - "SetMfxRegisterCounterMessage - set_mfx_register_counter"
class "SystemOverloadMessage - system_overload" {
timestamp: DATETIME
timestamp_iso: INTEGER
hash_value: INTEGER
response: BOOLEAN
id: INTEGER
channel: INTEGER
}
AbstractSystemMessage <|- - "SystemOverloadMessage - system_overload"
class "SystemStatusMessage - system_status" {
timestamp: DATETIME
timestamp_iso: INTEGER
hash_value: INTEGER
response: BOOLEAN
id: INTEGER
channel: INTEGER
measured_value: INTEGER
}
AbstractSystemMessage <|- - "SystemStatusMessage - system_status"
class "SetSystemIdentifierMessage - set_system_identifier" {
timestamp: DATETIME
timestamp_iso: INTEGER
hash_value: INTEGER
response: BOOLEAN
id: INTEGER
system_id: INTEGER
}
AbstractSystemMessage <|- - "SetSystemIdentifierMessage - set_system_identifier"
class "MfxSeekMessage - mfx_seek" {
timestamp: DATETIME
timestamp_iso: INTEGER
hash_value: INTEGER
response: BOOLEAN
id: INTEGER
}
AbstractSystemMessage <|- - "MfxSeekMessage - mfx_seek"
class "SystemResetMessage - system_reset" {
timestamp: DATETIME
timestamp_iso: INTEGER
hash_value: INTEGER
response: BOOLEAN
id: INTEGER
target: INTEGER
}
AbstractSystemMessage <|- - "SystemResetMessage - system_reset"
@enduml

PlantUML version 1.2021.16(Wed Dec 08 18:25:22 CET 2021)
(GPL source distribution)
Java Runtime: OpenJDK Runtime Environment
JVM: OpenJDK 64-Bit Server VM
Default Encoding: UTF-8
Language: en
Country: US
--></g></svg>