<?xml version="1.0" encoding="UTF-8" standalone="no"?><svg xmlns="http://www.w3.org/2000/svg" xmlns:xlink="http://www.w3.org/1999/xlink" contentScriptType="application/ecmascript" contentStyleType="text/css" height="348px" preserveAspectRatio="none" style="width:377px;height:348px;background:#FFFFFF;" version="1.1" viewBox="0 0 377 348" width="377px" zoomAndPan="magnify"><defs><filter height="300%" id="f10p898yhpby7c" width="300%" x="-1" y="-1"><feGaussianBlur result="blurOut" stdDeviation="2.0"/><feColorMatrix in="blurOut" result="blurOut2" type="matrix" values="0 0 0 0 0 0 0 0 0 0 0 0 0 0 0 0 0 0 .4 0"/><feOffset dx="4.0" dy="4.0" in="blurOut2" result="blurOut3"/><feBlend in="SourceGraphic" in2="blurOut3" mode="normal"/></filter></defs><g><!--MD5=[f64d1af2664f9db47f246b880c1f092f]
class AbstractMfxCommand--><rect codeLine="20" fill="#FFFFFF" filter="url(#f10p898yhpby7c)" height="124.2717" id="AbstractMfxCommand" rx="5" ry="5" style="stroke:#000000;stroke-width:1.5;" width="171" x="98" y="7"/><ellipse cx="113" cy="23" fill="#A9DCDF" rx="11" ry="11" style="stroke:#A80036;stroke-width:1.0;"/><path d="M108.1719,28.75 L111.5156,16.5625 L114.6563,16.5625 L118.0313,28.75 L115.5625,28.75 L114.8281,25.7344 L111.3125,25.7344 L110.5625,28.75 L108.1719,28.75 Z M112.5781,20.7031 L111.8281,23.7031 L114.3438,23.7031 L113.625,20.7031 Q113.4844,20.125 113.3594,19.5781 Q113.2344,19.0156 113.0938,18.4375 Q112.9844,19.0156 112.8438,19.5781 Q112.7031,20.125 112.5781,20.7031 Z " fill="#000000"/><text fill="#000000" font-family="sans-serif" font-size="14" font-style="italic" lengthAdjust="spacing" textLength="139" x="127" y="28.432">AbstractMfxCommand</text><line style="stroke:#000000;stroke-width:1.5;" x1="99" x2="268" y1="39" y2="39"/><text fill="#000000" font-family="sans-serif" font-size="14" lengthAdjust="spacing" textLength="101" x="104" y="57.9659">hash_value: int</text><text fill="#000000" font-family="sans-serif" font-size="14" lengthAdjust="spacing" textLength="99" x="104" y="77.0339">response: bool</text><text fill="#000000" font-family="sans-serif" font-size="14" lengthAdjust="spacing" textLength="79" x="104" y="96.1018">mfx_uid: int</text><text fill="#000000" font-family="sans-serif" font-size="14" lengthAdjust="spacing" textLength="77" x="104" y="115.1697">mfx_sid: int</text><line style="stroke:#000000;stroke-width:1.5;" x1="99" x2="268" y1="123.2717" y2="123.2717"/><!--MD5=[05c5da930bff4aafd2f3fe6646ebea84]
class MfxBindCommand--><rect codeLine="21" fill="#FFFFFF" filter="url(#f10p898yhpby7c)" height="124.2717" id="MfxBindCommand" rx="5" ry="5" style="stroke:#000000;stroke-width:1.5;" width="157" x="7" y="200.5"/><ellipse cx="22" cy="216.5" fill="#ADD1B2" rx="11" ry="11" style="stroke:#A80036;stroke-width:1.0;"/><path d="M21.4688,223.4219 Q19.7188,223.4219 18.5781,222.6875 Q17.4531,221.9375 16.8906,220.5938 Q16.3438,219.2344 16.3438,217.4375 Q16.3438,215.4063 17,213.9531 Q17.6563,212.5 18.9375,211.7188 Q20.2188,210.9375 22.0938,210.9375 Q22.9844,210.9375 23.6563,211.125 Q24.3281,211.2969 25.0156,211.6406 L24.2031,213.6563 Q23.5781,213.3438 23.0313,213.2188 Q22.5,213.0938 22.0156,213.0938 Q20.8438,213.0938 20.1406,213.625 Q19.4375,214.1563 19.1406,215.1094 Q18.8438,216.0625 18.8438,217.3281 Q18.8438,219.3438 19.5625,220.3125 Q20.2813,221.2656 21.875,221.2656 Q22.4688,221.2656 23.0938,221.1094 Q23.7188,220.9531 24.5469,220.5781 L24.5469,222.7969 Q23.8125,223.1094 23.0156,223.2656 Q22.2344,223.4219 21.4688,223.4219 Z " fill="#000000"/><text fill="#000000" font-family="sans-serif" font-size="14" lengthAdjust="spacing" textLength="125" x="36" y="221.932">MfxBindCommand</text><line style="stroke:#000000;stroke-width:1.5;" x1="8" x2="163" y1="232.5" y2="232.5"/><text fill="#000000" font-family="sans-serif" font-size="14" lengthAdjust="spacing" textLength="101" x="13" y="251.4659">hash_value: int</text><text fill="#000000" font-family="sans-serif" font-size="14" lengthAdjust="spacing" textLength="99" x="13" y="270.5339">response: bool</text><text fill="#000000" font-family="sans-serif" font-size="14" lengthAdjust="spacing" textLength="79" x="13" y="289.6018">mfx_uid: int</text><text fill="#000000" font-family="sans-serif" font-size="14" lengthAdjust="spacing" textLength="77" x="13" y="308.6697">mfx_sid: int</text><line style="stroke:#000000;stroke-width:1.5;" x1="8" x2="163" y1="316.7717" y2="316.7717"/><!--MD5=[7b6218e56130c8a01be4d6058135e94e]
class MfxVerifyCommand--><rect codeLine="28" fill="#FFFFFF" filter="url(#f10p898yhpby7c)" height="143.3396" id="MfxVerifyCommand" rx="5" ry="5" style="stroke:#000000;stroke-width:1.5;" width="164" x="199.5" y="191"/><ellipse cx="214.5" cy="207" fill="#ADD1B2" rx="11" ry="11" style="stroke:#A80036;stroke-width:1.0;"/><path d="M213.9688,213.9219 Q212.2188,213.9219 211.0781,213.1875 Q209.9531,212.4375 209.3906,211.0938 Q208.8438,209.7344 208.8438,207.9375 Q208.8438,205.9063 209.5,204.4531 Q210.1563,203 211.4375,202.2188 Q212.7188,201.4375 214.5938,201.4375 Q215.4844,201.4375 216.1563,201.625 Q216.8281,201.7969 217.5156,202.1406 L216.7031,204.1563 Q216.0781,203.8438 215.5313,203.7188 Q215,203.5938 214.5156,203.5938 Q213.3438,203.5938 212.6406,204.125 Q211.9375,204.6563 211.6406,205.6094 Q211.3438,206.5625 211.3438,207.8281 Q211.3438,209.8438 212.0625,210.8125 Q212.7813,211.7656 214.375,211.7656 Q214.9688,211.7656 215.5938,211.6094 Q216.2188,211.4531 217.0469,211.0781 L217.0469,213.2969 Q216.3125,213.6094 215.5156,213.7656 Q214.7344,213.9219 213.9688,213.9219 Z " fill="#000000"/><text fill="#000000" font-family="sans-serif" font-size="14" lengthAdjust="spacing" textLength="132" x="228.5" y="212.432">MfxVerifyCommand</text><line style="stroke:#000000;stroke-width:1.5;" x1="200.5" x2="362.5" y1="223" y2="223"/><text fill="#000000" font-family="sans-serif" font-size="14" lengthAdjust="spacing" textLength="101" x="205.5" y="241.9659">hash_value: int</text><text fill="#000000" font-family="sans-serif" font-size="14" lengthAdjust="spacing" textLength="99" x="205.5" y="261.0339">response: bool</text><text fill="#000000" font-family="sans-serif" font-size="14" lengthAdjust="spacing" textLength="79" x="205.5" y="280.1018">mfx_uid: int</text><text fill="#000000" font-family="sans-serif" font-size="14" lengthAdjust="spacing" textLength="77" x="205.5" y="299.1697">mfx_sid: int</text><text fill="#000000" font-family="sans-serif" font-size="14" lengthAdjust="spacing" textLength="85" x="205.5" y="318.2376">ask_ratio: int</text><line style="stroke:#000000;stroke-width:1.5;" x1="200.5" x2="362.5" y1="326.3396" y2="326.3396"/><!--MD5=[a5ed834a337bd9720cbc2252bc75cb05]
reverse link AbstractMfxCommand to MfxBindCommand--><path codeLine="27" d="M131,151.02 C131,151.02 131,200.5 131,200.5 " fill="none" id="AbstractMfxCommand-backto-MfxBindCommand" style="stroke:#000000;stroke-width:2.0;"/><polygon fill="none" points="124,151.02,131,131.02,138,151.02,124,151.02" style="stroke:#000000;stroke-width:2.0;"/><!--MD5=[80caf4cd5fc08e94d231757e8ac24428]
reverse link AbstractMfxCommand to MfxVerifyCommand--><path codeLine="35" d="M234.25,151.02 C234.25,151.02 234.25,190.72 234.25,190.72 " fill="none" id="AbstractMfxCommand-backto-MfxVerifyCommand" style="stroke:#000000;stroke-width:2.0;"/><polygon fill="none" points="227.25,151.02,234.25,131.02,241.25,151.02,227.25,151.02" style="stroke:#000000;stroke-width:2.0;"/><!--MD5=[59816fd6bd5738ff38eff03e5c6e29ba]
@startuml
skinparam useBetaStyle true
skinparam linetype ortho

<style>
    classDiagram{
        FontColor Black
        BackgroundColor White
        LineThickness 2
        LineColor Black
        RoundCorner 10
    }
</style>

class AbstractMfxCommand {
hash_value: int
response: bool
mfx_uid: int
mfx_sid: int
}
abstract class AbstractMfxCommand
class MfxBindCommand {
hash_value: int
response: bool
mfx_uid: int
mfx_sid: int
}
AbstractMfxCommand <|- - MfxBindCommand
class MfxVerifyCommand {
hash_value: int
response: bool
mfx_uid: int
mfx_sid: int
ask_ratio: int
}
AbstractMfxCommand <|- - MfxVerifyCommand
@enduml

PlantUML version 1.2021.16(Wed Dec 08 18:25:22 CET 2021)
(GPL source distribution)
Java Runtime: OpenJDK Runtime Environment
JVM: OpenJDK 64-Bit Server VM
Default Encoding: UTF-8
Language: en
Country: US
--></g></svg>