<?xml version="1.0" encoding="UTF-8" standalone="no"?><svg xmlns="http://www.w3.org/2000/svg" xmlns:xlink="http://www.w3.org/1999/xlink" contentScriptType="application/ecmascript" contentStyleType="text/css" height="431px" preserveAspectRatio="none" style="width:3704px;height:431px;background:#FFFFFF;" version="1.1" viewBox="0 0 3704 431" width="3704px" zoomAndPan="magnify"><defs><filter height="300%" id="f1pz5hxwlkpouv" width="300%" x="-1" y="-1"><feGaussianBlur result="blurOut" stdDeviation="2.0"/><feColorMatrix in="blurOut" result="blurOut2" type="matrix" values="0 0 0 0 0 0 0 0 0 0 0 0 0 0 0 0 0 0 .4 0"/><feOffset dx="4.0" dy="4.0" in="blurOut2" result="blurOut3"/><feBlend in="SourceGraphic" in2="blurOut3" mode="normal"/></filter></defs><g><!--MD5=[d63abe25ee60708596d928dca3fe23c5]
cluster app.utils--><polygon fill="#FFFFFF" filter="url(#f1pz5hxwlkpouv)" points="16,6.602,82,6.602,89,31.6699,313,31.6699,313,277.962,16,277.962,16,6.602" style="stroke:#000000;stroke-width:2.0;"/><line style="stroke:#000000;stroke-width:2.0;" x1="16" x2="89" y1="31.6699" y2="31.6699"/><text fill="#000000" font-family="sans-serif" font-size="14" font-weight="bold" lengthAdjust="spacing" textLength="60" x="20" y="23.5679">app.utils</text><!--MD5=[417e31be5b89f3406bdea6ab5d3e12e5]
cluster app.services--><polygon fill="#FFFFFF" filter="url(#f1pz5hxwlkpouv)" points="345,202.602,436,202.602,443,227.6699,1749,227.6699,1749,422.602,345,422.602,345,202.602" style="stroke:#000000;stroke-width:2.0;"/><line style="stroke:#000000;stroke-width:2.0;" x1="345" x2="443" y1="227.6699" y2="227.6699"/><text fill="#000000" font-family="sans-serif" font-size="14" font-weight="bold" lengthAdjust="spacing" textLength="85" x="349" y="219.5679">app.services</text><!--MD5=[7a4c06a7c549c4f366a2d9a53d0f690d]
cluster app.schemas--><polygon fill="#FFFFFF" filter="url(#f1pz5hxwlkpouv)" points="1800,6.602,1896,6.602,1903,31.6699,1906,31.6699,1906,277.962,1800,277.962,1800,6.602" style="stroke:#000000;stroke-width:2.0;"/><line style="stroke:#000000;stroke-width:2.0;" x1="1800" x2="1903" y1="31.6699" y2="31.6699"/><text fill="#000000" font-family="sans-serif" font-size="14" font-weight="bold" lengthAdjust="spacing" textLength="90" x="1804" y="23.5679">app.schemas</text><!--MD5=[43171515c66a225e64d3070abe0ea08c]
cluster app.services.high_level_can_recv--><polygon fill="#FFFFFF" filter="url(#f1pz5hxwlkpouv)" points="3430,6.602,3659,6.602,3666,31.6699,3687,31.6699,3687,277.962,3430,277.962,3430,6.602" style="stroke:#000000;stroke-width:2.0;"/><line style="stroke:#000000;stroke-width:2.0;" x1="3430" x2="3666" y1="31.6699" y2="31.6699"/><text fill="#000000" font-family="sans-serif" font-size="14" font-weight="bold" lengthAdjust="spacing" textLength="223" x="3434" y="23.5679">app.services.high_level_can_recv</text><!--MD5=[15f1d5bc9de79ca7d810db1dc80d7ae4]
cluster app.schemas.can_commands--><polygon fill="#FFFFFF" filter="url(#f1pz5hxwlkpouv)" points="2137,6.602,2344,6.602,2351,31.6699,2681,31.6699,2681,124.602,2137,124.602,2137,6.602" style="stroke:#000000;stroke-width:2.0;"/><line style="stroke:#000000;stroke-width:2.0;" x1="2137" x2="2351" y1="31.6699" y2="31.6699"/><text fill="#000000" font-family="sans-serif" font-size="14" font-weight="bold" lengthAdjust="spacing" textLength="201" x="2141" y="23.5679">app.schemas.can_commands</text><!--MD5=[fefc0523f8f5fcad35ff4c923fd18db5]
cluster app.services.high_level_can.schemas--><polygon fill="#FFFFFF" filter="url(#f1pz5hxwlkpouv)" points="2711,207.602,2969,207.602,2976,232.6699,2998,232.6699,2998,309.602,2711,309.602,2711,207.602" style="stroke:#000000;stroke-width:2.0;"/><line style="stroke:#000000;stroke-width:2.0;" x1="2711" x2="2976" y1="232.6699" y2="232.6699"/><text fill="#000000" font-family="sans-serif" font-size="14" font-weight="bold" lengthAdjust="spacing" textLength="252" x="2715" y="224.5679">app.services.high_level_can.schemas</text><!--MD5=[d5ac3844f66b12d9e08170e47495e096]
cluster app--><polygon fill="#FFFFFF" filter="url(#f1pz5hxwlkpouv)" points="3022,156.602,3054,156.602,3061,181.6699,3398,181.6699,3398,338.602,3022,338.602,3022,156.602" style="stroke:#000000;stroke-width:2.0;"/><line style="stroke:#000000;stroke-width:2.0;" x1="3022" x2="3061" y1="181.6699" y2="181.6699"/><text fill="#000000" font-family="sans-serif" font-size="14" font-weight="bold" lengthAdjust="spacing" textLength="26" x="3026" y="173.5679">app</text><!--MD5=[fbd62e38a95bc51f60aab0c675ab4ad2]
cluster app.external_services--><polygon fill="#FFFFFF" filter="url(#f1pz5hxwlkpouv)" points="3240,202.602,3364,202.602,3371,227.6699,3374,227.6699,3374,314.602,3240,314.602,3240,202.602" style="stroke:#000000;stroke-width:2.0;"/><line style="stroke:#000000;stroke-width:2.0;" x1="3240" x2="3371" y1="227.6699" y2="227.6699"/><text fill="#000000" font-family="sans-serif" font-size="14" font-weight="bold" lengthAdjust="spacing" textLength="118" x="3244" y="219.5679">external_services</text><!--MD5=[1db62e48cf19671c9ea8ba2044506a88]
class app.utils.coding--><rect fill="#FFFFFF" filter="url(#f1pz5hxwlkpouv)" height="48" id="app.utils.coding" rx="5" ry="5" style="stroke:#000000;stroke-width:1.5;" width="78" x="211" y="52.602"/><ellipse cx="226" cy="68.602" fill="#ADD1B2" rx="11" ry="11" style="stroke:#A80036;stroke-width:1.0;"/><path d="M225.4688,75.5239 Q223.7188,75.5239 222.5781,74.7895 Q221.4531,74.0395 220.8906,72.6957 Q220.3438,71.3364 220.3438,69.5395 Q220.3438,67.5082 221,66.0551 Q221.6563,64.602 222.9375,63.8207 Q224.2188,63.0395 226.0938,63.0395 Q226.9844,63.0395 227.6563,63.227 Q228.3281,63.3989 229.0156,63.7426 L228.2031,65.7582 Q227.5781,65.4457 227.0313,65.3207 Q226.5,65.1957 226.0156,65.1957 Q224.8438,65.1957 224.1406,65.727 Q223.4375,66.2582 223.1406,67.2114 Q222.8438,68.1645 222.8438,69.4301 Q222.8438,71.4457 223.5625,72.4145 Q224.2813,73.3676 225.875,73.3676 Q226.4688,73.3676 227.0938,73.2114 Q227.7188,73.0551 228.5469,72.6801 L228.5469,74.8989 Q227.8125,75.2114 227.0156,75.3676 Q226.2344,75.5239 225.4688,75.5239 Z " fill="#000000"/><text fill="#000000" font-family="sans-serif" font-size="14" lengthAdjust="spacing" textLength="46" x="240" y="74.034">coding</text><line style="stroke:#000000;stroke-width:1.5;" x1="212" x2="288" y1="84.602" y2="84.602"/><line style="stroke:#000000;stroke-width:1.5;" x1="212" x2="288" y1="92.602" y2="92.602"/><!--MD5=[addd3ad91e257eac282889286a7a8d61]
class app.utils.communication--><rect fill="#FFFFFF" filter="url(#f1pz5hxwlkpouv)" height="48" id="app.utils.communication" rx="5" ry="5" style="stroke:#000000;stroke-width:1.5;" width="136" x="40" y="52.602"/><ellipse cx="55" cy="68.602" fill="#ADD1B2" rx="11" ry="11" style="stroke:#A80036;stroke-width:1.0;"/><path d="M54.4688,75.5239 Q52.7188,75.5239 51.5781,74.7895 Q50.4531,74.0395 49.8906,72.6957 Q49.3438,71.3364 49.3438,69.5395 Q49.3438,67.5082 50,66.0551 Q50.6563,64.602 51.9375,63.8207 Q53.2188,63.0395 55.0938,63.0395 Q55.9844,63.0395 56.6563,63.227 Q57.3281,63.3989 58.0156,63.7426 L57.2031,65.7582 Q56.5781,65.4457 56.0313,65.3207 Q55.5,65.1957 55.0156,65.1957 Q53.8438,65.1957 53.1406,65.727 Q52.4375,66.2582 52.1406,67.2114 Q51.8438,68.1645 51.8438,69.4301 Q51.8438,71.4457 52.5625,72.4145 Q53.2813,73.3676 54.875,73.3676 Q55.4688,73.3676 56.0938,73.2114 Q56.7188,73.0551 57.5469,72.6801 L57.5469,74.8989 Q56.8125,75.2114 56.0156,75.3676 Q55.2344,75.5239 54.4688,75.5239 Z " fill="#000000"/><text fill="#000000" font-family="sans-serif" font-size="14" lengthAdjust="spacing" textLength="104" x="69" y="74.034">communication</text><line style="stroke:#000000;stroke-width:1.5;" x1="41" x2="175" y1="84.602" y2="84.602"/><line style="stroke:#000000;stroke-width:1.5;" x1="41" x2="175" y1="92.602" y2="92.602"/><!--MD5=[3446aa6544f20e200da4f461e24c79e4]
class app.services.raw_can_recv--><rect fill="#FFFFFF" filter="url(#f1pz5hxwlkpouv)" height="48" id="app.services.raw_can_recv" rx="5" ry="5" style="stroke:#000000;stroke-width:1.5;" width="121" x="361.5" y="358.602"/><ellipse cx="376.5" cy="374.602" fill="#ADD1B2" rx="11" ry="11" style="stroke:#A80036;stroke-width:1.0;"/><path d="M375.9688,381.5239 Q374.2188,381.5239 373.0781,380.7895 Q371.9531,380.0395 371.3906,378.6957 Q370.8438,377.3364 370.8438,375.5395 Q370.8438,373.5082 371.5,372.0551 Q372.1563,370.602 373.4375,369.8207 Q374.7188,369.0395 376.5938,369.0395 Q377.4844,369.0395 378.1563,369.227 Q378.8281,369.3989 379.5156,369.7426 L378.7031,371.7582 Q378.0781,371.4457 377.5313,371.3207 Q377,371.1957 376.5156,371.1957 Q375.3438,371.1957 374.6406,371.727 Q373.9375,372.2582 373.6406,373.2114 Q373.3438,374.1645 373.3438,375.4301 Q373.3438,377.4457 374.0625,378.4145 Q374.7813,379.3676 376.375,379.3676 Q376.9688,379.3676 377.5938,379.2114 Q378.2188,379.0551 379.0469,378.6801 L379.0469,380.8989 Q378.3125,381.2114 377.5156,381.3676 Q376.7344,381.5239 375.9688,381.5239 Z " fill="#000000"/><text fill="#000000" font-family="sans-serif" font-size="14" lengthAdjust="spacing" textLength="89" x="390.5" y="380.034">raw_can_recv</text><line style="stroke:#000000;stroke-width:1.5;" x1="362.5" x2="481.5" y1="390.602" y2="390.602"/><line style="stroke:#000000;stroke-width:1.5;" x1="362.5" x2="481.5" y1="398.602" y2="398.602"/><!--MD5=[7b38bb90af8b7bf665b6e2ebe2cf9de2]
class app.services.raw_can_recv.reader--><rect fill="#FFFFFF" filter="url(#f1pz5hxwlkpouv)" height="48" id="app.services.raw_can_recv.reader" rx="5" ry="5" style="stroke:#000000;stroke-width:1.5;" width="77" x="1155.5" y="245.602"/><ellipse cx="1170.5" cy="261.602" fill="#ADD1B2" rx="11" ry="11" style="stroke:#A80036;stroke-width:1.0;"/><path d="M1169.9688,268.5239 Q1168.2188,268.5239 1167.0781,267.7895 Q1165.9531,267.0395 1165.3906,265.6957 Q1164.8438,264.3364 1164.8438,262.5395 Q1164.8438,260.5082 1165.5,259.0551 Q1166.1563,257.602 1167.4375,256.8207 Q1168.7188,256.0395 1170.5938,256.0395 Q1171.4844,256.0395 1172.1563,256.227 Q1172.8281,256.3989 1173.5156,256.7426 L1172.7031,258.7582 Q1172.0781,258.4457 1171.5313,258.3207 Q1171,258.1957 1170.5156,258.1957 Q1169.3438,258.1957 1168.6406,258.727 Q1167.9375,259.2582 1167.6406,260.2114 Q1167.3438,261.1645 1167.3438,262.4301 Q1167.3438,264.4457 1168.0625,265.4145 Q1168.7813,266.3676 1170.375,266.3676 Q1170.9688,266.3676 1171.5938,266.2114 Q1172.2188,266.0551 1173.0469,265.6801 L1173.0469,267.8989 Q1172.3125,268.2114 1171.5156,268.3676 Q1170.7344,268.5239 1169.9688,268.5239 Z " fill="#000000"/><text fill="#000000" font-family="sans-serif" font-size="14" lengthAdjust="spacing" textLength="45" x="1184.5" y="267.034">reader</text><line style="stroke:#000000;stroke-width:1.5;" x1="1156.5" x2="1231.5" y1="277.602" y2="277.602"/><line style="stroke:#000000;stroke-width:1.5;" x1="1156.5" x2="1231.5" y1="285.602" y2="285.602"/><!--MD5=[7aef69c41560972bdf219abdfa200d67]
class app.services.raw_can_send--><rect fill="#FFFFFF" filter="url(#f1pz5hxwlkpouv)" height="48" id="app.services.raw_can_send" rx="5" ry="5" style="stroke:#000000;stroke-width:1.5;" width="126" x="1490" y="245.602"/><ellipse cx="1505" cy="261.602" fill="#ADD1B2" rx="11" ry="11" style="stroke:#A80036;stroke-width:1.0;"/><path d="M1504.4688,268.5239 Q1502.7188,268.5239 1501.5781,267.7895 Q1500.4531,267.0395 1499.8906,265.6957 Q1499.3438,264.3364 1499.3438,262.5395 Q1499.3438,260.5082 1500,259.0551 Q1500.6563,257.602 1501.9375,256.8207 Q1503.2188,256.0395 1505.0938,256.0395 Q1505.9844,256.0395 1506.6563,256.227 Q1507.3281,256.3989 1508.0156,256.7426 L1507.2031,258.7582 Q1506.5781,258.4457 1506.0313,258.3207 Q1505.5,258.1957 1505.0156,258.1957 Q1503.8438,258.1957 1503.1406,258.727 Q1502.4375,259.2582 1502.1406,260.2114 Q1501.8438,261.1645 1501.8438,262.4301 Q1501.8438,264.4457 1502.5625,265.4145 Q1503.2813,266.3676 1504.875,266.3676 Q1505.4688,266.3676 1506.0938,266.2114 Q1506.7188,266.0551 1507.5469,265.6801 L1507.5469,267.8989 Q1506.8125,268.2114 1506.0156,268.3676 Q1505.2344,268.5239 1504.4688,268.5239 Z " fill="#000000"/><text fill="#000000" font-family="sans-serif" font-size="14" lengthAdjust="spacing" textLength="94" x="1519" y="267.034">raw_can_send</text><line style="stroke:#000000;stroke-width:1.5;" x1="1491" x2="1615" y1="277.602" y2="277.602"/><line style="stroke:#000000;stroke-width:1.5;" x1="1491" x2="1615" y1="285.602" y2="285.602"/><!--MD5=[84001104db48437952894eb1e04ef9d0]
class app.services.high_level_can_send--><rect fill="#FFFFFF" filter="url(#f1pz5hxwlkpouv)" height="48" id="app.services.high_level_can_send" rx="5" ry="5" style="stroke:#000000;stroke-width:1.5;" width="169" x="1398.5" y="358.602"/><ellipse cx="1413.5" cy="374.602" fill="#ADD1B2" rx="11" ry="11" style="stroke:#A80036;stroke-width:1.0;"/><path d="M1412.9688,381.5239 Q1411.2188,381.5239 1410.0781,380.7895 Q1408.9531,380.0395 1408.3906,378.6957 Q1407.8438,377.3364 1407.8438,375.5395 Q1407.8438,373.5082 1408.5,372.0551 Q1409.1563,370.602 1410.4375,369.8207 Q1411.7188,369.0395 1413.5938,369.0395 Q1414.4844,369.0395 1415.1563,369.227 Q1415.8281,369.3989 1416.5156,369.7426 L1415.7031,371.7582 Q1415.0781,371.4457 1414.5313,371.3207 Q1414,371.1957 1413.5156,371.1957 Q1412.3438,371.1957 1411.6406,371.727 Q1410.9375,372.2582 1410.6406,373.2114 Q1410.3438,374.1645 1410.3438,375.4301 Q1410.3438,377.4457 1411.0625,378.4145 Q1411.7813,379.3676 1413.375,379.3676 Q1413.9688,379.3676 1414.5938,379.2114 Q1415.2188,379.0551 1416.0469,378.6801 L1416.0469,380.8989 Q1415.3125,381.2114 1414.5156,381.3676 Q1413.7344,381.5239 1412.9688,381.5239 Z " fill="#000000"/><text fill="#000000" font-family="sans-serif" font-size="14" lengthAdjust="spacing" textLength="137" x="1427.5" y="380.034">high_level_can_send</text><line style="stroke:#000000;stroke-width:1.5;" x1="1399.5" x2="1566.5" y1="390.602" y2="390.602"/><line style="stroke:#000000;stroke-width:1.5;" x1="1399.5" x2="1566.5" y1="398.602" y2="398.602"/><!--MD5=[c13dd3670f9a0be438d28a6c58de09c1]
class app.services.high_level_can_send.helper--><rect fill="#FFFFFF" filter="url(#f1pz5hxwlkpouv)" height="48" id="app.services.high_level_can_send.helper" rx="5" ry="5" style="stroke:#000000;stroke-width:1.5;" width="76" x="1268" y="245.602"/><ellipse cx="1283" cy="261.602" fill="#ADD1B2" rx="11" ry="11" style="stroke:#A80036;stroke-width:1.0;"/><path d="M1282.4688,268.5239 Q1280.7188,268.5239 1279.5781,267.7895 Q1278.4531,267.0395 1277.8906,265.6957 Q1277.3438,264.3364 1277.3438,262.5395 Q1277.3438,260.5082 1278,259.0551 Q1278.6563,257.602 1279.9375,256.8207 Q1281.2188,256.0395 1283.0938,256.0395 Q1283.9844,256.0395 1284.6563,256.227 Q1285.3281,256.3989 1286.0156,256.7426 L1285.2031,258.7582 Q1284.5781,258.4457 1284.0313,258.3207 Q1283.5,258.1957 1283.0156,258.1957 Q1281.8438,258.1957 1281.1406,258.727 Q1280.4375,259.2582 1280.1406,260.2114 Q1279.8438,261.1645 1279.8438,262.4301 Q1279.8438,264.4457 1280.5625,265.4145 Q1281.2813,266.3676 1282.875,266.3676 Q1283.4688,266.3676 1284.0938,266.2114 Q1284.7188,266.0551 1285.5469,265.6801 L1285.5469,267.8989 Q1284.8125,268.2114 1284.0156,268.3676 Q1283.2344,268.5239 1282.4688,268.5239 Z " fill="#000000"/><text fill="#000000" font-family="sans-serif" font-size="14" lengthAdjust="spacing" textLength="44" x="1297" y="267.034">helper</text><line style="stroke:#000000;stroke-width:1.5;" x1="1269" x2="1343" y1="277.602" y2="277.602"/><line style="stroke:#000000;stroke-width:1.5;" x1="1269" x2="1343" y1="285.602" y2="285.602"/><!--MD5=[b5c589886bed9a5551ad1e456565ef56]
class app.services.high_level_can--><rect fill="#FFFFFF" filter="url(#f1pz5hxwlkpouv)" height="48" id="app.services.high_level_can" rx="5" ry="5" style="stroke:#000000;stroke-width:1.5;" width="130" x="1603" y="358.602"/><ellipse cx="1618" cy="374.602" fill="#ADD1B2" rx="11" ry="11" style="stroke:#A80036;stroke-width:1.0;"/><path d="M1617.4688,381.5239 Q1615.7188,381.5239 1614.5781,380.7895 Q1613.4531,380.0395 1612.8906,378.6957 Q1612.3438,377.3364 1612.3438,375.5395 Q1612.3438,373.5082 1613,372.0551 Q1613.6563,370.602 1614.9375,369.8207 Q1616.2188,369.0395 1618.0938,369.0395 Q1618.9844,369.0395 1619.6563,369.227 Q1620.3281,369.3989 1621.0156,369.7426 L1620.2031,371.7582 Q1619.5781,371.4457 1619.0313,371.3207 Q1618.5,371.1957 1618.0156,371.1957 Q1616.8438,371.1957 1616.1406,371.727 Q1615.4375,372.2582 1615.1406,373.2114 Q1614.8438,374.1645 1614.8438,375.4301 Q1614.8438,377.4457 1615.5625,378.4145 Q1616.2813,379.3676 1617.875,379.3676 Q1618.4688,379.3676 1619.0938,379.2114 Q1619.7188,379.0551 1620.5469,378.6801 L1620.5469,380.8989 Q1619.8125,381.2114 1619.0156,381.3676 Q1618.2344,381.5239 1617.4688,381.5239 Z " fill="#000000"/><text fill="#000000" font-family="sans-serif" font-size="14" lengthAdjust="spacing" textLength="98" x="1632" y="380.034">high_level_can</text><line style="stroke:#000000;stroke-width:1.5;" x1="1604" x2="1732" y1="390.602" y2="390.602"/><line style="stroke:#000000;stroke-width:1.5;" x1="1604" x2="1732" y1="398.602" y2="398.602"/><!--MD5=[013cdc31a3c64e7e977e123bab7e1f3c]
class app.services.high_level_can.configs--><rect fill="#FFFFFF" filter="url(#f1pz5hxwlkpouv)" height="48" id="app.services.high_level_can.configs" rx="5" ry="5" style="stroke:#000000;stroke-width:1.5;" width="81" x="1651.5" y="245.602"/><ellipse cx="1666.5" cy="261.602" fill="#ADD1B2" rx="11" ry="11" style="stroke:#A80036;stroke-width:1.0;"/><path d="M1665.9688,268.5239 Q1664.2188,268.5239 1663.0781,267.7895 Q1661.9531,267.0395 1661.3906,265.6957 Q1660.8438,264.3364 1660.8438,262.5395 Q1660.8438,260.5082 1661.5,259.0551 Q1662.1563,257.602 1663.4375,256.8207 Q1664.7188,256.0395 1666.5938,256.0395 Q1667.4844,256.0395 1668.1563,256.227 Q1668.8281,256.3989 1669.5156,256.7426 L1668.7031,258.7582 Q1668.0781,258.4457 1667.5313,258.3207 Q1667,258.1957 1666.5156,258.1957 Q1665.3438,258.1957 1664.6406,258.727 Q1663.9375,259.2582 1663.6406,260.2114 Q1663.3438,261.1645 1663.3438,262.4301 Q1663.3438,264.4457 1664.0625,265.4145 Q1664.7813,266.3676 1666.375,266.3676 Q1666.9688,266.3676 1667.5938,266.2114 Q1668.2188,266.0551 1669.0469,265.6801 L1669.0469,267.8989 Q1668.3125,268.2114 1667.5156,268.3676 Q1666.7344,268.5239 1665.9688,268.5239 Z " fill="#000000"/><text fill="#000000" font-family="sans-serif" font-size="14" lengthAdjust="spacing" textLength="49" x="1680.5" y="267.034">configs</text><line style="stroke:#000000;stroke-width:1.5;" x1="1652.5" x2="1731.5" y1="277.602" y2="277.602"/><line style="stroke:#000000;stroke-width:1.5;" x1="1652.5" x2="1731.5" y1="285.602" y2="285.602"/><!--MD5=[0c5d60313490761b7b358effcdc8e584]
class app.services.high_level_can.helper--><rect fill="#FFFFFF" filter="url(#f1pz5hxwlkpouv)" height="48" id="app.services.high_level_can.helper" rx="5" ry="5" style="stroke:#000000;stroke-width:1.5;" width="76" x="1379" y="245.602"/><ellipse cx="1394" cy="261.602" fill="#ADD1B2" rx="11" ry="11" style="stroke:#A80036;stroke-width:1.0;"/><path d="M1393.4688,268.5239 Q1391.7188,268.5239 1390.5781,267.7895 Q1389.4531,267.0395 1388.8906,265.6957 Q1388.3438,264.3364 1388.3438,262.5395 Q1388.3438,260.5082 1389,259.0551 Q1389.6563,257.602 1390.9375,256.8207 Q1392.2188,256.0395 1394.0938,256.0395 Q1394.9844,256.0395 1395.6563,256.227 Q1396.3281,256.3989 1397.0156,256.7426 L1396.2031,258.7582 Q1395.5781,258.4457 1395.0313,258.3207 Q1394.5,258.1957 1394.0156,258.1957 Q1392.8438,258.1957 1392.1406,258.727 Q1391.4375,259.2582 1391.1406,260.2114 Q1390.8438,261.1645 1390.8438,262.4301 Q1390.8438,264.4457 1391.5625,265.4145 Q1392.2813,266.3676 1393.875,266.3676 Q1394.4688,266.3676 1395.0938,266.2114 Q1395.7188,266.0551 1396.5469,265.6801 L1396.5469,267.8989 Q1395.8125,268.2114 1395.0156,268.3676 Q1394.2344,268.5239 1393.4688,268.5239 Z " fill="#000000"/><text fill="#000000" font-family="sans-serif" font-size="14" lengthAdjust="spacing" textLength="44" x="1408" y="267.034">helper</text><line style="stroke:#000000;stroke-width:1.5;" x1="1380" x2="1454" y1="277.602" y2="277.602"/><line style="stroke:#000000;stroke-width:1.5;" x1="1380" x2="1454" y1="285.602" y2="285.602"/><path d="M1016.5,240.602 L1101.5,240.602 A7.5,7.5 0 0 1 1106.5,245.602 L1113.5,265.6699 L1115.5,265.6699 A5,5 0 0 1 1120.5,270.6699 L1120.5,293.7378 A5,5 0 0 1 1115.5,298.7378 L1016.5,298.7378 A5,5 0 0 1 1011.5,293.7378 L1011.5,245.602 A5,5 0 0 1 1016.5,240.602 " fill="#FFFFFF" filter="url(#f1pz5hxwlkpouv)" style="stroke:#000000;stroke-width:2.0;"/><line style="stroke:#000000;stroke-width:2.0;" x1="1011.5" x2="1113.5" y1="265.6699" y2="265.6699"/><text fill="#000000" font-family="sans-serif" font-size="14" lengthAdjust="spacing" textLength="89" x="1015.5" y="257.5679">raw_can_recv</text><path d="M867,240.602 L957,240.602 A7.5,7.5 0 0 1 962,245.602 L969,265.6699 L971,265.6699 A5,5 0 0 1 976,270.6699 L976,293.7378 A5,5 0 0 1 971,298.7378 L867,298.7378 A5,5 0 0 1 862,293.7378 L862,245.602 A5,5 0 0 1 867,240.602 " fill="#FFFFFF" filter="url(#f1pz5hxwlkpouv)" style="stroke:#000000;stroke-width:2.0;"/><line style="stroke:#000000;stroke-width:2.0;" x1="862" x2="969" y1="265.6699" y2="265.6699"/><text fill="#000000" font-family="sans-serif" font-size="14" lengthAdjust="spacing" textLength="94" x="866" y="257.5679">raw_can_send</text><path d="M674.5,240.602 L807.5,240.602 A7.5,7.5 0 0 1 812.5,245.602 L819.5,265.6699 L821.5,265.6699 A5,5 0 0 1 826.5,270.6699 L826.5,293.7378 A5,5 0 0 1 821.5,298.7378 L674.5,298.7378 A5,5 0 0 1 669.5,293.7378 L669.5,245.602 A5,5 0 0 1 674.5,240.602 " fill="#FFFFFF" filter="url(#f1pz5hxwlkpouv)" style="stroke:#000000;stroke-width:2.0;"/><line style="stroke:#000000;stroke-width:2.0;" x1="669.5" x2="819.5" y1="265.6699" y2="265.6699"/><text fill="#000000" font-family="sans-serif" font-size="14" lengthAdjust="spacing" textLength="137" x="673.5" y="257.5679">high_level_can_send</text><path d="M521,240.602 L615,240.602 A7.5,7.5 0 0 1 620,245.602 L627,265.6699 L629,265.6699 A5,5 0 0 1 634,270.6699 L634,293.7378 A5,5 0 0 1 629,298.7378 L521,298.7378 A5,5 0 0 1 516,293.7378 L516,245.602 A5,5 0 0 1 521,240.602 " fill="#FFFFFF" filter="url(#f1pz5hxwlkpouv)" style="stroke:#000000;stroke-width:2.0;"/><line style="stroke:#000000;stroke-width:2.0;" x1="516" x2="627" y1="265.6699" y2="265.6699"/><text fill="#000000" font-family="sans-serif" font-size="14" lengthAdjust="spacing" textLength="98" x="520" y="257.5679">high_level_can</text><path d="M366.5,240.602 L461.5,240.602 A7.5,7.5 0 0 1 466.5,245.602 L473.5,265.6699 L475.5,265.6699 A5,5 0 0 1 480.5,270.6699 L480.5,293.7378 A5,5 0 0 1 475.5,298.7378 L366.5,298.7378 A5,5 0 0 1 361.5,293.7378 L361.5,245.602 A5,5 0 0 1 366.5,240.602 " fill="#FFFFFF" filter="url(#f1pz5hxwlkpouv)" style="stroke:#000000;stroke-width:2.0;"/><line style="stroke:#000000;stroke-width:2.0;" x1="361.5" x2="473.5" y1="265.6699" y2="265.6699"/><text fill="#000000" font-family="sans-serif" font-size="14" lengthAdjust="spacing" textLength="99" x="365.5" y="257.5679">database_read</text><!--MD5=[ace78fb5b873b1a34a8cf176a8709f90]
class app.schemas.can--><rect fill="#FFFFFF" filter="url(#f1pz5hxwlkpouv)" height="48" id="app.schemas.can" rx="5" ry="5" style="stroke:#000000;stroke-width:1.5;" width="56" x="1825" y="52.602"/><ellipse cx="1840" cy="68.602" fill="#ADD1B2" rx="11" ry="11" style="stroke:#A80036;stroke-width:1.0;"/><path d="M1839.4688,75.5239 Q1837.7188,75.5239 1836.5781,74.7895 Q1835.4531,74.0395 1834.8906,72.6957 Q1834.3438,71.3364 1834.3438,69.5395 Q1834.3438,67.5082 1835,66.0551 Q1835.6563,64.602 1836.9375,63.8207 Q1838.2188,63.0395 1840.0938,63.0395 Q1840.9844,63.0395 1841.6563,63.227 Q1842.3281,63.3989 1843.0156,63.7426 L1842.2031,65.7582 Q1841.5781,65.4457 1841.0313,65.3207 Q1840.5,65.1957 1840.0156,65.1957 Q1838.8438,65.1957 1838.1406,65.727 Q1837.4375,66.2582 1837.1406,67.2114 Q1836.8438,68.1645 1836.8438,69.4301 Q1836.8438,71.4457 1837.5625,72.4145 Q1838.2813,73.3676 1839.875,73.3676 Q1840.4688,73.3676 1841.0938,73.2114 Q1841.7188,73.0551 1842.5469,72.6801 L1842.5469,74.8989 Q1841.8125,75.2114 1841.0156,75.3676 Q1840.2344,75.5239 1839.4688,75.5239 Z " fill="#000000"/><text fill="#000000" font-family="sans-serif" font-size="14" lengthAdjust="spacing" textLength="24" x="1854" y="74.034">can</text><line style="stroke:#000000;stroke-width:1.5;" x1="1826" x2="1880" y1="84.602" y2="84.602"/><line style="stroke:#000000;stroke-width:1.5;" x1="1826" x2="1880" y1="92.602" y2="92.602"/><!--MD5=[1802ef1e220be83ebad19817bd64e1ea]
class app.services.high_level_can_recv.reader--><rect fill="#FFFFFF" filter="url(#f1pz5hxwlkpouv)" height="48" id="app.services.high_level_can_recv.reader" rx="5" ry="5" style="stroke:#000000;stroke-width:1.5;" width="77" x="3585.5" y="52.602"/><ellipse cx="3600.5" cy="68.602" fill="#ADD1B2" rx="11" ry="11" style="stroke:#A80036;stroke-width:1.0;"/><path d="M3599.9688,75.5239 Q3598.2188,75.5239 3597.0781,74.7895 Q3595.9531,74.0395 3595.3906,72.6957 Q3594.8438,71.3364 3594.8438,69.5395 Q3594.8438,67.5082 3595.5,66.0551 Q3596.1563,64.602 3597.4375,63.8207 Q3598.7188,63.0395 3600.5938,63.0395 Q3601.4844,63.0395 3602.1563,63.227 Q3602.8281,63.3989 3603.5156,63.7426 L3602.7031,65.7582 Q3602.0781,65.4457 3601.5313,65.3207 Q3601,65.1957 3600.5156,65.1957 Q3599.3438,65.1957 3598.6406,65.727 Q3597.9375,66.2582 3597.6406,67.2114 Q3597.3438,68.1645 3597.3438,69.4301 Q3597.3438,71.4457 3598.0625,72.4145 Q3598.7813,73.3676 3600.375,73.3676 Q3600.9688,73.3676 3601.5938,73.2114 Q3602.2188,73.0551 3603.0469,72.6801 L3603.0469,74.8989 Q3602.3125,75.2114 3601.5156,75.3676 Q3600.7344,75.5239 3599.9688,75.5239 Z " fill="#000000"/><text fill="#000000" font-family="sans-serif" font-size="14" lengthAdjust="spacing" textLength="45" x="3614.5" y="74.034">reader</text><line style="stroke:#000000;stroke-width:1.5;" x1="3586.5" x2="3661.5" y1="84.602" y2="84.602"/><line style="stroke:#000000;stroke-width:1.5;" x1="3586.5" x2="3661.5" y1="92.602" y2="92.602"/><!--MD5=[35902c8509636a13243068b56459b37e]
class app.services.high_level_can_recv.converter--><rect fill="#FFFFFF" filter="url(#f1pz5hxwlkpouv)" height="48" id="app.services.high_level_can_recv.converter" rx="5" ry="5" style="stroke:#000000;stroke-width:1.5;" width="96" x="3454" y="52.602"/><ellipse cx="3469" cy="68.602" fill="#ADD1B2" rx="11" ry="11" style="stroke:#A80036;stroke-width:1.0;"/><path d="M3468.4688,75.5239 Q3466.7188,75.5239 3465.5781,74.7895 Q3464.4531,74.0395 3463.8906,72.6957 Q3463.3438,71.3364 3463.3438,69.5395 Q3463.3438,67.5082 3464,66.0551 Q3464.6563,64.602 3465.9375,63.8207 Q3467.2188,63.0395 3469.0938,63.0395 Q3469.9844,63.0395 3470.6563,63.227 Q3471.3281,63.3989 3472.0156,63.7426 L3471.2031,65.7582 Q3470.5781,65.4457 3470.0313,65.3207 Q3469.5,65.1957 3469.0156,65.1957 Q3467.8438,65.1957 3467.1406,65.727 Q3466.4375,66.2582 3466.1406,67.2114 Q3465.8438,68.1645 3465.8438,69.4301 Q3465.8438,71.4457 3466.5625,72.4145 Q3467.2813,73.3676 3468.875,73.3676 Q3469.4688,73.3676 3470.0938,73.2114 Q3470.7188,73.0551 3471.5469,72.6801 L3471.5469,74.8989 Q3470.8125,75.2114 3470.0156,75.3676 Q3469.2344,75.5239 3468.4688,75.5239 Z " fill="#000000"/><text fill="#000000" font-family="sans-serif" font-size="14" lengthAdjust="spacing" textLength="64" x="3483" y="74.034">converter</text><line style="stroke:#000000;stroke-width:1.5;" x1="3455" x2="3549" y1="84.602" y2="84.602"/><line style="stroke:#000000;stroke-width:1.5;" x1="3455" x2="3549" y1="92.602" y2="92.602"/><!--MD5=[de9a60f709cb5f521bd227a945b52583]
class app.schemas.can_commands.base--><rect fill="#FFFFFF" filter="url(#f1pz5hxwlkpouv)" height="48" id="app.schemas.can_commands.base" rx="5" ry="5" style="stroke:#000000;stroke-width:1.5;" width="64" x="2392" y="52.602"/><ellipse cx="2407" cy="68.602" fill="#ADD1B2" rx="11" ry="11" style="stroke:#A80036;stroke-width:1.0;"/><path d="M2406.4688,75.5239 Q2404.7188,75.5239 2403.5781,74.7895 Q2402.4531,74.0395 2401.8906,72.6957 Q2401.3438,71.3364 2401.3438,69.5395 Q2401.3438,67.5082 2402,66.0551 Q2402.6563,64.602 2403.9375,63.8207 Q2405.2188,63.0395 2407.0938,63.0395 Q2407.9844,63.0395 2408.6563,63.227 Q2409.3281,63.3989 2410.0156,63.7426 L2409.2031,65.7582 Q2408.5781,65.4457 2408.0313,65.3207 Q2407.5,65.1957 2407.0156,65.1957 Q2405.8438,65.1957 2405.1406,65.727 Q2404.4375,66.2582 2404.1406,67.2114 Q2403.8438,68.1645 2403.8438,69.4301 Q2403.8438,71.4457 2404.5625,72.4145 Q2405.2813,73.3676 2406.875,73.3676 Q2407.4688,73.3676 2408.0938,73.2114 Q2408.7188,73.0551 2409.5469,72.6801 L2409.5469,74.8989 Q2408.8125,75.2114 2408.0156,75.3676 Q2407.2344,75.5239 2406.4688,75.5239 Z " fill="#000000"/><text fill="#000000" font-family="sans-serif" font-size="14" lengthAdjust="spacing" textLength="32" x="2421" y="74.034">base</text><line style="stroke:#000000;stroke-width:1.5;" x1="2393" x2="2455" y1="84.602" y2="84.602"/><line style="stroke:#000000;stroke-width:1.5;" x1="2393" x2="2455" y1="92.602" y2="92.602"/><!--MD5=[d53f877b73601815cbe550fae1f8f0fc]
class app.schemas.can_commands.system--><rect fill="#FFFFFF" filter="url(#f1pz5hxwlkpouv)" height="48" id="app.schemas.can_commands.system" rx="5" ry="5" style="stroke:#000000;stroke-width:1.5;" width="79" x="2491.5" y="52.602"/><ellipse cx="2506.5" cy="68.602" fill="#ADD1B2" rx="11" ry="11" style="stroke:#A80036;stroke-width:1.0;"/><path d="M2505.9688,75.5239 Q2504.2188,75.5239 2503.0781,74.7895 Q2501.9531,74.0395 2501.3906,72.6957 Q2500.8438,71.3364 2500.8438,69.5395 Q2500.8438,67.5082 2501.5,66.0551 Q2502.1563,64.602 2503.4375,63.8207 Q2504.7188,63.0395 2506.5938,63.0395 Q2507.4844,63.0395 2508.1563,63.227 Q2508.8281,63.3989 2509.5156,63.7426 L2508.7031,65.7582 Q2508.0781,65.4457 2507.5313,65.3207 Q2507,65.1957 2506.5156,65.1957 Q2505.3438,65.1957 2504.6406,65.727 Q2503.9375,66.2582 2503.6406,67.2114 Q2503.3438,68.1645 2503.3438,69.4301 Q2503.3438,71.4457 2504.0625,72.4145 Q2504.7813,73.3676 2506.375,73.3676 Q2506.9688,73.3676 2507.5938,73.2114 Q2508.2188,73.0551 2509.0469,72.6801 L2509.0469,74.8989 Q2508.3125,75.2114 2507.5156,75.3676 Q2506.7344,75.5239 2505.9688,75.5239 Z " fill="#000000"/><text fill="#000000" font-family="sans-serif" font-size="14" lengthAdjust="spacing" textLength="47" x="2520.5" y="74.034">system</text><line style="stroke:#000000;stroke-width:1.5;" x1="2492.5" x2="2569.5" y1="84.602" y2="84.602"/><line style="stroke:#000000;stroke-width:1.5;" x1="2492.5" x2="2569.5" y1="92.602" y2="92.602"/><!--MD5=[6dc3e1d29fcb522536992343f878f31c]
class app.schemas.can_commands.general--><rect fill="#FFFFFF" filter="url(#f1pz5hxwlkpouv)" height="48" id="app.schemas.can_commands.general" rx="5" ry="5" style="stroke:#000000;stroke-width:1.5;" width="84" x="2273" y="52.602"/><ellipse cx="2288" cy="68.602" fill="#ADD1B2" rx="11" ry="11" style="stroke:#A80036;stroke-width:1.0;"/><path d="M2287.4688,75.5239 Q2285.7188,75.5239 2284.5781,74.7895 Q2283.4531,74.0395 2282.8906,72.6957 Q2282.3438,71.3364 2282.3438,69.5395 Q2282.3438,67.5082 2283,66.0551 Q2283.6563,64.602 2284.9375,63.8207 Q2286.2188,63.0395 2288.0938,63.0395 Q2288.9844,63.0395 2289.6563,63.227 Q2290.3281,63.3989 2291.0156,63.7426 L2290.2031,65.7582 Q2289.5781,65.4457 2289.0313,65.3207 Q2288.5,65.1957 2288.0156,65.1957 Q2286.8438,65.1957 2286.1406,65.727 Q2285.4375,66.2582 2285.1406,67.2114 Q2284.8438,68.1645 2284.8438,69.4301 Q2284.8438,71.4457 2285.5625,72.4145 Q2286.2813,73.3676 2287.875,73.3676 Q2288.4688,73.3676 2289.0938,73.2114 Q2289.7188,73.0551 2290.5469,72.6801 L2290.5469,74.8989 Q2289.8125,75.2114 2289.0156,75.3676 Q2288.2344,75.5239 2287.4688,75.5239 Z " fill="#000000"/><text fill="#000000" font-family="sans-serif" font-size="14" lengthAdjust="spacing" textLength="52" x="2302" y="74.034">general</text><line style="stroke:#000000;stroke-width:1.5;" x1="2274" x2="2356" y1="84.602" y2="84.602"/><line style="stroke:#000000;stroke-width:1.5;" x1="2274" x2="2356" y1="92.602" y2="92.602"/><!--MD5=[41ed406a0f10e66e60680f691c3916d8]
class app.schemas.can_commands.mfx--><rect fill="#FFFFFF" filter="url(#f1pz5hxwlkpouv)" height="48" id="app.schemas.can_commands.mfx" rx="5" ry="5" style="stroke:#000000;stroke-width:1.5;" width="57" x="2180.5" y="52.602"/><ellipse cx="2195.5" cy="68.602" fill="#ADD1B2" rx="11" ry="11" style="stroke:#A80036;stroke-width:1.0;"/><path d="M2194.9688,75.5239 Q2193.2188,75.5239 2192.0781,74.7895 Q2190.9531,74.0395 2190.3906,72.6957 Q2189.8438,71.3364 2189.8438,69.5395 Q2189.8438,67.5082 2190.5,66.0551 Q2191.1563,64.602 2192.4375,63.8207 Q2193.7188,63.0395 2195.5938,63.0395 Q2196.4844,63.0395 2197.1563,63.227 Q2197.8281,63.3989 2198.5156,63.7426 L2197.7031,65.7582 Q2197.0781,65.4457 2196.5313,65.3207 Q2196,65.1957 2195.5156,65.1957 Q2194.3438,65.1957 2193.6406,65.727 Q2192.9375,66.2582 2192.6406,67.2114 Q2192.3438,68.1645 2192.3438,69.4301 Q2192.3438,71.4457 2193.0625,72.4145 Q2193.7813,73.3676 2195.375,73.3676 Q2195.9688,73.3676 2196.5938,73.2114 Q2197.2188,73.0551 2198.0469,72.6801 L2198.0469,74.8989 Q2197.3125,75.2114 2196.5156,75.3676 Q2195.7344,75.5239 2194.9688,75.5239 Z " fill="#000000"/><text fill="#000000" font-family="sans-serif" font-size="14" lengthAdjust="spacing" textLength="25" x="2209.5" y="74.034">mfx</text><line style="stroke:#000000;stroke-width:1.5;" x1="2181.5" x2="2236.5" y1="84.602" y2="84.602"/><line style="stroke:#000000;stroke-width:1.5;" x1="2181.5" x2="2236.5" y1="92.602" y2="92.602"/><!--MD5=[b37e5892db72c6b48acadd9d1771706c]
class app.schemas.can_commands.loc--><rect fill="#FFFFFF" filter="url(#f1pz5hxwlkpouv)" height="48" id="app.schemas.can_commands.loc" rx="5" ry="5" style="stroke:#000000;stroke-width:1.5;" width="51" x="2605.5" y="52.602"/><ellipse cx="2620.5" cy="68.602" fill="#ADD1B2" rx="11" ry="11" style="stroke:#A80036;stroke-width:1.0;"/><path d="M2619.9688,75.5239 Q2618.2188,75.5239 2617.0781,74.7895 Q2615.9531,74.0395 2615.3906,72.6957 Q2614.8438,71.3364 2614.8438,69.5395 Q2614.8438,67.5082 2615.5,66.0551 Q2616.1563,64.602 2617.4375,63.8207 Q2618.7188,63.0395 2620.5938,63.0395 Q2621.4844,63.0395 2622.1563,63.227 Q2622.8281,63.3989 2623.5156,63.7426 L2622.7031,65.7582 Q2622.0781,65.4457 2621.5313,65.3207 Q2621,65.1957 2620.5156,65.1957 Q2619.3438,65.1957 2618.6406,65.727 Q2617.9375,66.2582 2617.6406,67.2114 Q2617.3438,68.1645 2617.3438,69.4301 Q2617.3438,71.4457 2618.0625,72.4145 Q2618.7813,73.3676 2620.375,73.3676 Q2620.9688,73.3676 2621.5938,73.2114 Q2622.2188,73.0551 2623.0469,72.6801 L2623.0469,74.8989 Q2622.3125,75.2114 2621.5156,75.3676 Q2620.7344,75.5239 2619.9688,75.5239 Z " fill="#000000"/><text fill="#000000" font-family="sans-serif" font-size="14" lengthAdjust="spacing" textLength="19" x="2634.5" y="74.034">loc</text><line style="stroke:#000000;stroke-width:1.5;" x1="2606.5" x2="2655.5" y1="84.602" y2="84.602"/><line style="stroke:#000000;stroke-width:1.5;" x1="2606.5" x2="2655.5" y1="92.602" y2="92.602"/><!--MD5=[f23039e6ca87fe276f8ad68b0de474cf]
class app.services.high_level_can.schemas.lok--><rect fill="#FFFFFF" filter="url(#f1pz5hxwlkpouv)" height="48" id="app.services.high_level_can.schemas.lok" rx="5" ry="5" style="stroke:#000000;stroke-width:1.5;" width="51" x="2930.5" y="245.602"/><ellipse cx="2945.5" cy="261.602" fill="#ADD1B2" rx="11" ry="11" style="stroke:#A80036;stroke-width:1.0;"/><path d="M2944.9688,268.5239 Q2943.2188,268.5239 2942.0781,267.7895 Q2940.9531,267.0395 2940.3906,265.6957 Q2939.8438,264.3364 2939.8438,262.5395 Q2939.8438,260.5082 2940.5,259.0551 Q2941.1563,257.602 2942.4375,256.8207 Q2943.7188,256.0395 2945.5938,256.0395 Q2946.4844,256.0395 2947.1563,256.227 Q2947.8281,256.3989 2948.5156,256.7426 L2947.7031,258.7582 Q2947.0781,258.4457 2946.5313,258.3207 Q2946,258.1957 2945.5156,258.1957 Q2944.3438,258.1957 2943.6406,258.727 Q2942.9375,259.2582 2942.6406,260.2114 Q2942.3438,261.1645 2942.3438,262.4301 Q2942.3438,264.4457 2943.0625,265.4145 Q2943.7813,266.3676 2945.375,266.3676 Q2945.9688,266.3676 2946.5938,266.2114 Q2947.2188,266.0551 2948.0469,265.6801 L2948.0469,267.8989 Q2947.3125,268.2114 2946.5156,268.3676 Q2945.7344,268.5239 2944.9688,268.5239 Z " fill="#000000"/><text fill="#000000" font-family="sans-serif" font-size="14" lengthAdjust="spacing" textLength="19" x="2959.5" y="267.034">lok</text><line style="stroke:#000000;stroke-width:1.5;" x1="2931.5" x2="2980.5" y1="277.602" y2="277.602"/><line style="stroke:#000000;stroke-width:1.5;" x1="2931.5" x2="2980.5" y1="285.602" y2="285.602"/><!--MD5=[436055aac58b25acdbc406f11caadadf]
class app.services.high_level_can.schemas.s88--><rect fill="#FFFFFF" filter="url(#f1pz5hxwlkpouv)" height="48" id="app.services.high_level_can.schemas.s88" rx="5" ry="5" style="stroke:#000000;stroke-width:1.5;" width="55" x="2840.5" y="245.602"/><ellipse cx="2855.5" cy="261.602" fill="#ADD1B2" rx="11" ry="11" style="stroke:#A80036;stroke-width:1.0;"/><path d="M2854.9688,268.5239 Q2853.2188,268.5239 2852.0781,267.7895 Q2850.9531,267.0395 2850.3906,265.6957 Q2849.8438,264.3364 2849.8438,262.5395 Q2849.8438,260.5082 2850.5,259.0551 Q2851.1563,257.602 2852.4375,256.8207 Q2853.7188,256.0395 2855.5938,256.0395 Q2856.4844,256.0395 2857.1563,256.227 Q2857.8281,256.3989 2858.5156,256.7426 L2857.7031,258.7582 Q2857.0781,258.4457 2856.5313,258.3207 Q2856,258.1957 2855.5156,258.1957 Q2854.3438,258.1957 2853.6406,258.727 Q2852.9375,259.2582 2852.6406,260.2114 Q2852.3438,261.1645 2852.3438,262.4301 Q2852.3438,264.4457 2853.0625,265.4145 Q2853.7813,266.3676 2855.375,266.3676 Q2855.9688,266.3676 2856.5938,266.2114 Q2857.2188,266.0551 2858.0469,265.6801 L2858.0469,267.8989 Q2857.3125,268.2114 2856.5156,268.3676 Q2855.7344,268.5239 2854.9688,268.5239 Z " fill="#000000"/><text fill="#000000" font-family="sans-serif" font-size="14" lengthAdjust="spacing" textLength="23" x="2869.5" y="267.034">s88</text><line style="stroke:#000000;stroke-width:1.5;" x1="2841.5" x2="2894.5" y1="277.602" y2="277.602"/><line style="stroke:#000000;stroke-width:1.5;" x1="2841.5" x2="2894.5" y1="285.602" y2="285.602"/><!--MD5=[607de096d7b59f40ba53b7542b68e0a3]
class app.services.high_level_can.schemas.system--><rect fill="#FFFFFF" filter="url(#f1pz5hxwlkpouv)" height="48" id="app.services.high_level_can.schemas.system" rx="5" ry="5" style="stroke:#000000;stroke-width:1.5;" width="79" x="2726.5" y="245.602"/><ellipse cx="2741.5" cy="261.602" fill="#ADD1B2" rx="11" ry="11" style="stroke:#A80036;stroke-width:1.0;"/><path d="M2740.9688,268.5239 Q2739.2188,268.5239 2738.0781,267.7895 Q2736.9531,267.0395 2736.3906,265.6957 Q2735.8438,264.3364 2735.8438,262.5395 Q2735.8438,260.5082 2736.5,259.0551 Q2737.1563,257.602 2738.4375,256.8207 Q2739.7188,256.0395 2741.5938,256.0395 Q2742.4844,256.0395 2743.1563,256.227 Q2743.8281,256.3989 2744.5156,256.7426 L2743.7031,258.7582 Q2743.0781,258.4457 2742.5313,258.3207 Q2742,258.1957 2741.5156,258.1957 Q2740.3438,258.1957 2739.6406,258.727 Q2738.9375,259.2582 2738.6406,260.2114 Q2738.3438,261.1645 2738.3438,262.4301 Q2738.3438,264.4457 2739.0625,265.4145 Q2739.7813,266.3676 2741.375,266.3676 Q2741.9688,266.3676 2742.5938,266.2114 Q2743.2188,266.0551 2744.0469,265.6801 L2744.0469,267.8989 Q2743.3125,268.2114 2742.5156,268.3676 Q2741.7344,268.5239 2740.9688,268.5239 Z " fill="#000000"/><text fill="#000000" font-family="sans-serif" font-size="14" lengthAdjust="spacing" textLength="47" x="2755.5" y="267.034">system</text><line style="stroke:#000000;stroke-width:1.5;" x1="2727.5" x2="2804.5" y1="277.602" y2="277.602"/><line style="stroke:#000000;stroke-width:1.5;" x1="2727.5" x2="2804.5" y1="285.602" y2="285.602"/><!--MD5=[6f22a36d7b170394f5f24c713762303d]
class app.models--><rect fill="#FFFFFF" filter="url(#f1pz5hxwlkpouv)" height="48" id="app.models" rx="5" ry="5" style="stroke:#000000;stroke-width:1.5;" width="81" x="3142.5" y="245.602"/><ellipse cx="3157.5" cy="261.602" fill="#ADD1B2" rx="11" ry="11" style="stroke:#A80036;stroke-width:1.0;"/><path d="M3156.9688,268.5239 Q3155.2188,268.5239 3154.0781,267.7895 Q3152.9531,267.0395 3152.3906,265.6957 Q3151.8438,264.3364 3151.8438,262.5395 Q3151.8438,260.5082 3152.5,259.0551 Q3153.1563,257.602 3154.4375,256.8207 Q3155.7188,256.0395 3157.5938,256.0395 Q3158.4844,256.0395 3159.1563,256.227 Q3159.8281,256.3989 3160.5156,256.7426 L3159.7031,258.7582 Q3159.0781,258.4457 3158.5313,258.3207 Q3158,258.1957 3157.5156,258.1957 Q3156.3438,258.1957 3155.6406,258.727 Q3154.9375,259.2582 3154.6406,260.2114 Q3154.3438,261.1645 3154.3438,262.4301 Q3154.3438,264.4457 3155.0625,265.4145 Q3155.7813,266.3676 3157.375,266.3676 Q3157.9688,266.3676 3158.5938,266.2114 Q3159.2188,266.0551 3160.0469,265.6801 L3160.0469,267.8989 Q3159.3125,268.2114 3158.5156,268.3676 Q3157.7344,268.5239 3156.9688,268.5239 Z " fill="#000000"/><text fill="#000000" font-family="sans-serif" font-size="14" lengthAdjust="spacing" textLength="49" x="3171.5" y="267.034">models</text><line style="stroke:#000000;stroke-width:1.5;" x1="3143.5" x2="3222.5" y1="277.602" y2="277.602"/><line style="stroke:#000000;stroke-width:1.5;" x1="3143.5" x2="3222.5" y1="285.602" y2="285.602"/><path d="M3276.5,240.602 L3325.5,240.602 A7.5,7.5 0 0 1 3330.5,245.602 L3337.5,265.6699 L3339.5,265.6699 A5,5 0 0 1 3344.5,270.6699 L3344.5,293.7378 A5,5 0 0 1 3339.5,298.7378 L3276.5,298.7378 A5,5 0 0 1 3271.5,293.7378 L3271.5,245.602 A5,5 0 0 1 3276.5,240.602 " fill="#FFFFFF" filter="url(#f1pz5hxwlkpouv)" style="stroke:#000000;stroke-width:2.0;"/><line style="stroke:#000000;stroke-width:2.0;" x1="3271.5" x2="3337.5" y1="265.6699" y2="265.6699"/><text fill="#000000" font-family="sans-serif" font-size="14" lengthAdjust="spacing" textLength="53" x="3275.5" y="257.5679">grafana</text><path d="M3043.5,240.602 L3088.5,240.602 A7.5,7.5 0 0 1 3093.5,245.602 L3100.5,265.6699 L3102.5,265.6699 A5,5 0 0 1 3107.5,270.6699 L3107.5,293.7378 A5,5 0 0 1 3102.5,298.7378 L3043.5,298.7378 A5,5 0 0 1 3038.5,293.7378 L3038.5,245.602 A5,5 0 0 1 3043.5,240.602 " fill="#FFFFFF" filter="url(#f1pz5hxwlkpouv)" style="stroke:#000000;stroke-width:2.0;"/><line style="stroke:#000000;stroke-width:2.0;" x1="3038.5" x2="3100.5" y1="265.6699" y2="265.6699"/><text fill="#000000" font-family="sans-serif" font-size="14" lengthAdjust="spacing" textLength="49" x="3042.5" y="257.5679">models</text><!--MD5=[1545e0e325bd3fac8430c2ae13a119aa]
reverse link app.utils.coding to app.services.raw_can_recv--><path codeLine="14" d="M269.5,120.732 C269.5,120.732 269.5,374.602 269.5,374.602 C269.5,374.602 318.76,374.602 361.29,374.602 " fill="none" id="app.utils.coding-backto-app.services.raw_can_recv" style="stroke:#000000;stroke-width:2.0;"/><polygon fill="none" points="262.5,120.732,269.5,100.732,276.5,120.732,262.5,120.732" style="stroke:#000000;stroke-width:2.0;"/><!--MD5=[0ac386b668c40bacf2cb6968964a79f8]
reverse link app.services.raw_can_recv.reader to app.services.raw_can_recv--><path codeLine="15" d="M1194,313.692 C1194,313.692 1194,374.602 1194,374.602 C1194,374.602 664.57,374.602 482.58,374.602 " fill="none" id="app.services.raw_can_recv.reader-backto-app.services.raw_can_recv" style="stroke:#000000;stroke-width:2.0;"/><polygon fill="none" points="1187,313.692,1194,293.692,1201,313.692,1187,313.692" style="stroke:#000000;stroke-width:2.0;"/><!--MD5=[766a7949769b609a0b9498064bda61dd]
reverse link app.utils.communication to app.services.raw_can_recv--><path codeLine="16" d="M85.33,120.722 C85.33,120.722 85.33,390.602 85.33,390.602 C85.33,390.602 264.49,390.602 361.42,390.602 " fill="none" id="app.utils.communication-backto-app.services.raw_can_recv" style="stroke:#000000;stroke-width:2.0;"/><polygon fill="none" points="78.33,120.722,85.33,100.722,92.33,120.722,78.33,120.722" style="stroke:#000000;stroke-width:2.0;"/><!--MD5=[69a111d07839b77b63a68e6b424f691b]
reverse link app.utils.coding to app.services.raw_can_send--><path codeLine="17" d="M309.35,70.602 C309.35,70.602 1553,70.602 1553,70.602 C1553,70.602 1553,192.672 1553,245.602 " fill="none" id="app.utils.coding-backto-app.services.raw_can_send" style="stroke:#000000;stroke-width:2.0;"/><polygon fill="none" points="309.35,77.602,289.35,70.602,309.35,63.602,309.35,77.602" style="stroke:#000000;stroke-width:2.0;"/><!--MD5=[ea88846d272b76d8eebf4c6edef998f6]
reverse link app.schemas.can to app.services.raw_can_send--><path codeLine="18" d="M1804.77,88.602 C1804.77,88.602 1584.5,88.602 1584.5,88.602 C1584.5,88.602 1584.5,196.332 1584.5,245.562 " fill="none" id="app.schemas.can-backto-app.services.raw_can_send" style="stroke:#000000;stroke-width:2.0;"/><polygon fill="none" points="1804.77,81.602,1824.77,88.602,1804.77,95.602,1804.77,81.602" style="stroke:#000000;stroke-width:2.0;"/><!--MD5=[4c9bca7bfb78dc3b5579f73f9a0f56f7]
reverse link app.utils.communication to app.services.raw_can_send--><path codeLine="19" d="M153.33,120.872 C153.33,120.872 153.33,225.602 153.33,225.602 C153.33,225.602 1521.5,225.602 1521.5,225.602 C1521.5,225.602 1521.5,235.272 1521.5,245.542 " fill="none" id="app.utils.communication-backto-app.services.raw_can_send" style="stroke:#000000;stroke-width:2.0;"/><polygon fill="none" points="146.33,120.872,153.33,100.872,160.33,120.872,146.33,120.872" style="stroke:#000000;stroke-width:2.0;"/><!--MD5=[d53cb5dd0c93ddd4097a5d9c4c6166a5]
reverse link app.services.high_level_can_recv.reader to app.services.high_level_can_recv--><path codeLine="20" d="M3624,120.652 C3624,120.652 3624,269.602 3624,269.602 C3624,269.602 3449.44,269.602 3438.53,269.602 " fill="none" id="app.services.high_level_can_recv.reader-backto-app.services.high_level_can_recv" style="stroke:#000000;stroke-width:2.0;"/><polygon fill="none" points="3617,120.652,3624,100.652,3631,120.652,3617,120.652" style="stroke:#000000;stroke-width:2.0;"/><!--MD5=[1054a864848c33b1904355355b235ed8]
reverse link app.services.high_level_can_recv.converter to app.services.high_level_can_recv--><path codeLine="21" d="M3439.87,76.602 C3439.87,76.602 3438.33,76.602 3438.33,76.602 C3438.33,76.602 3438.33,263.622 3438.33,269.462 " fill="none" id="app.services.high_level_can_recv.converter-backto-app.services.high_level_can_recv" style="stroke:#000000;stroke-width:2.0;"/><polygon fill="none" points="3433.75,69.602,3453.75,76.602,3433.75,83.602,3433.75,69.602" style="stroke:#000000;stroke-width:2.0;"/><!--MD5=[248403990d6d638dfd255b0c8800fb00]
reverse link app.utils.communication to app.services.high_level_can_recv--><path codeLine="22" d="M62.67,120.792 C62.67,120.792 62.67,424.602 62.67,424.602 C62.67,424.602 3438.33,424.602 3438.33,424.602 C3438.33,424.602 3438.33,388.237 3438.33,350.7345 C3438.33,331.9832 3438.33,312.9476 3438.33,298.031 C3438.33,290.5728 3438.33,284.1442 3438.33,279.2959 C3438.33,278.9929 3438.33,278.6961 3438.33,278.4055 C3438.33,278.2602 3438.33,278.1166 3438.33,277.9745 " fill="none" id="app.utils.communication-backto-app.services.high_level_can_recv" style="stroke:#000000;stroke-width:2.0;"/><polygon fill="none" points="55.67,120.792,62.67,100.792,69.67,120.792,55.67,120.792" style="stroke:#000000;stroke-width:2.0;"/><!--MD5=[56e09fffadf32ff060c3e29e5e1050fb]
reverse link app.utils.coding to app.services.high_level_can_recv--><path codeLine="23" d="M250,115.022 C250,115.022 250,116.602 250,116.602 C250,116.602 1046.9175,116.602 1843.835,116.602 C2242.2938,116.602 2640.7525,116.602 2939.5966,116.602 C3089.0186,116.602 3213.537,116.602 3300.6998,116.602 C3344.2812,116.602 3378.5238,116.602 3401.871,116.602 C3413.5446,116.602 3422.4943,116.602 3428.5257,116.602 " fill="none" id="app.utils.coding-backto-app.services.high_level_can_recv" style="stroke:#000000;stroke-width:2.0;"/><polygon fill="none" points="243,120.792,250,100.792,257,120.792,243,120.792" style="stroke:#000000;stroke-width:2.0;"/><!--MD5=[86b803e58f3128d3000b17cfec4e4ddd]
reverse link app.schemas.can to app.services.high_level_can_recv--><path codeLine="24" d="M1867.33,120.672 C1867.33,120.672 1867.33,132.602 1867.33,132.602 C1867.33,132.602 3390.75,132.602 3390.75,132.602 C3390.75,132.602 3390.75,269.602 3390.75,269.602 C3390.75,269.602 3401.1325,269.602 3412.1638,269.602 C3417.6794,269.602 3423.3572,269.602 3427.9805,269.602 C3428.5584,269.602 3429.1198,269.602 3429.6624,269.602 C3429.7302,269.602 3429.7977,269.602 3429.865,269.602 " fill="none" id="app.schemas.can-backto-app.services.high_level_can_recv" style="stroke:#000000;stroke-width:2.0;"/><polygon fill="none" points="1860.33,120.672,1867.33,100.672,1874.33,120.672,1860.33,120.672" style="stroke:#000000;stroke-width:2.0;"/><!--MD5=[315612e6e792004c5a4c8a0373490d21]
reverse link app.schemas.can_commands.base to app.services.high_level_can_recv--><path codeLine="25" d="M2434.67,120.672 C2434.67,120.672 2434.67,305.602 2434.67,305.602 C2434.67,305.602 3437.67,305.602 3437.67,305.602 C3437.67,305.602 3437.67,297.692 3437.67,289.287 C3437.67,287.1857 3437.67,285.0535 3437.67,283.0063 C3437.67,281.9826 3437.67,280.9802 3437.67,280.0136 C3437.67,279.5302 3437.67,279.0558 3437.67,278.5921 C3437.67,278.4762 3437.67,278.3609 3437.67,278.2464 C3437.67,278.1891 3437.67,278.132 3437.67,278.0751 " fill="none" id="app.schemas.can_commands.base-backto-app.services.high_level_can_recv" style="stroke:#000000;stroke-width:2.0;"/><polygon fill="none" points="2427.67,120.672,2434.67,100.672,2441.67,120.672,2427.67,120.672" style="stroke:#000000;stroke-width:2.0;"/><!--MD5=[d7e0bef3f8e8bc10c82cd1fb7b9d6c62]
reverse link app.utils.communication to app.services.high_level_can_send--><path codeLine="26" d="M108,120.612 C108,120.612 108,352.602 108,352.602 C108,352.602 1417.33,352.602 1417.33,352.602 C1417.33,352.602 1417.33,354.972 1417.33,358.382 " fill="none" id="app.utils.communication-backto-app.services.high_level_can_send" style="stroke:#000000;stroke-width:2.0;"/><polygon fill="none" points="101,120.612,108,100.612,115,120.612,101,120.612" style="stroke:#000000;stroke-width:2.0;"/><!--MD5=[63c6c4332fcca93345bebd97cf361b2d]
reverse link app.utils.coding to app.services.high_level_can_send--><path codeLine="27" d="M309.01,76.602 C309.01,76.602 1463.75,76.602 1463.75,76.602 C1463.75,76.602 1463.75,286.452 1463.75,358.592 " fill="none" id="app.utils.coding-backto-app.services.high_level_can_send" style="stroke:#000000;stroke-width:2.0;"/><polygon fill="none" points="309.01,83.602,289.01,76.602,309.01,69.602,309.01,83.602" style="stroke:#000000;stroke-width:2.0;"/><!--MD5=[ccef37c82531a86843dcbf5a4cafc92e]
reverse link app.schemas.can_commands to app.services.high_level_can_send--><path codeLine="28" d="M2136.4971,34.602 C2136.1714,34.602 2135.8368,34.602 2135.4933,34.602 C2134.8064,34.602 2134.0843,34.602 2133.3275,34.602 C2131.8139,34.602 2130.1618,34.602 2128.3763,34.602 C2124.8053,34.602 2120.7007,34.602 2116.1035,34.602 C2097.7148,34.602 2071.4453,34.602 2039.9219,34.602 C1976.875,34.602 1892.8125,34.602 1808.75,34.602 C1640.625,34.602 1472.5,34.602 1472.5,34.602 C1472.5,34.602 1472.5,279.492 1472.5,358.412 " fill="none" id="app.schemas.can_commands-backto-app.services.high_level_can_send" style="stroke:#000000;stroke-width:2.0;"/><polygon fill="#FFFFFF" points="2136.4971,34.602,2117.4971,27.602,2117.4971,41.602,2136.4971,34.602" style="stroke:#000000;stroke-width:2.0;"/><!--MD5=[57faedd5a8e4f28a6d609151ff9fc8fa]
reverse link app.services.high_level_can_send.helper to app.services.high_level_can_send--><path codeLine="29" d="M1306,313.802 C1306,313.802 1306,390.602 1306,390.602 C1306,390.602 1352.88,390.602 1398.39,390.602 " fill="none" id="app.services.high_level_can_send.helper-backto-app.services.high_level_can_send" style="stroke:#000000;stroke-width:2.0;"/><polygon fill="none" points="1299,313.802,1306,293.802,1313,313.802,1299,313.802" style="stroke:#000000;stroke-width:2.0;"/><!--MD5=[81ce309f755abb6333f127a4eebc1c64]
reverse link app.schemas.can to app.services.high_level_can_send--><path codeLine="30" d="M1804.75,82.602 C1804.75,82.602 1481.25,82.602 1481.25,82.602 C1481.25,82.602 1481.25,287.372 1481.25,358.562 " fill="none" id="app.schemas.can-backto-app.services.high_level_can_send" style="stroke:#000000;stroke-width:2.0;"/><polygon fill="none" points="1804.75,75.602,1824.75,82.602,1804.75,89.602,1804.75,75.602" style="stroke:#000000;stroke-width:2.0;"/><!--MD5=[89437194165add8fab6276d9fff36bcc]
reverse link app.schemas.can_commands.base to app.services.high_level_can_send--><path codeLine="31" d="M2413.33,120.932 C2413.33,120.932 2413.33,325.602 2413.33,325.602 C2413.33,325.602 1536.5,325.602 1536.5,325.602 C1536.5,325.602 1536.5,342.892 1536.5,358.432 " fill="none" id="app.schemas.can_commands.base-backto-app.services.high_level_can_send" style="stroke:#000000;stroke-width:2.0;"/><polygon fill="none" points="2406.33,120.932,2413.33,100.932,2420.33,120.932,2406.33,120.932" style="stroke:#000000;stroke-width:2.0;"/><!--MD5=[a3dff89e32ad8d99eebdb5df42aed192]
reverse link app.schemas.can_commands.system to app.services.high_level_can_send--><path codeLine="32" d="M2511.25,120.682 C2511.25,120.682 2511.25,332.602 2511.25,332.602 C2511.25,332.602 1552,332.602 1552,332.602 C1552,332.602 1552,345.692 1552,358.482 " fill="none" id="app.schemas.can_commands.system-backto-app.services.high_level_can_send" style="stroke:#000000;stroke-width:2.0;"/><polygon fill="none" points="2504.25,120.682,2511.25,100.682,2518.25,120.682,2504.25,120.682" style="stroke:#000000;stroke-width:2.0;"/><!--MD5=[53360f7af6f2cde5ebd44b874858b543]
reverse link app.schemas.can_commands.general to app.services.high_level_can_send--><path codeLine="33" d="M2301,120.692 C2301,120.692 2301,318.602 2301,318.602 C2301,318.602 1521,318.602 1521,318.602 C1521,318.602 1521,340.282 1521,358.402 " fill="none" id="app.schemas.can_commands.general-backto-app.services.high_level_can_send" style="stroke:#000000;stroke-width:2.0;"/><polygon fill="none" points="2294,120.692,2301,100.692,2308,120.692,2294,120.692" style="stroke:#000000;stroke-width:2.0;"/><!--MD5=[270d54977d6ef6b50b869b0cef63ee9f]
reverse link app.schemas.can_commands.mfx to app.services.high_level_can_send--><path codeLine="34" d="M2209,120.972 C2209,120.972 2209,312.602 2209,312.602 C2209,312.602 1505.5,312.602 1505.5,312.602 C1505.5,312.602 1505.5,338.262 1505.5,358.512 " fill="none" id="app.schemas.can_commands.mfx-backto-app.services.high_level_can_send" style="stroke:#000000;stroke-width:2.0;"/><polygon fill="none" points="2202,120.972,2209,100.972,2216,120.972,2202,120.972" style="stroke:#000000;stroke-width:2.0;"/><!--MD5=[f31fcd32cd6b3cb7527f0f9c05a99fcd]
reverse link app.services.high_level_can_recv.converter to app.services.high_level_can--><path codeLine="35" d="M3502,120.842 C3502,120.842 3502,402.602 3502,402.602 C3502,402.602 2059.19,402.602 1733,402.602 " fill="none" id="app.services.high_level_can_recv.converter-backto-app.services.high_level_can" style="stroke:#000000;stroke-width:2.0;"/><polygon fill="none" points="3495,120.842,3502,100.842,3509,120.842,3495,120.842" style="stroke:#000000;stroke-width:2.0;"/><!--MD5=[ef02879c91bb24cc8b496cb53945267c]
reverse link app.services.high_level_can.schemas.lok to app.services.high_level_can--><path codeLine="36" d="M2956,313.862 C2956,313.862 2956,398.602 2956,398.602 C2956,398.602 1995.03,398.602 1733.2,398.602 " fill="none" id="app.services.high_level_can.schemas.lok-backto-app.services.high_level_can" style="stroke:#000000;stroke-width:2.0;"/><polygon fill="none" points="2949,313.862,2956,293.862,2963,313.862,2949,313.862" style="stroke:#000000;stroke-width:2.0;"/><!--MD5=[8235a72d72be9db22d79c3c0bdcfb8d5]
reverse link app.utils.communication to app.services.high_level_can--><path codeLine="37" d="M130.67,120.952 C130.67,120.952 130.67,345.602 130.67,345.602 C130.67,345.602 1607.33,345.602 1607.33,345.602 C1607.33,345.602 1607.33,351.472 1607.33,358.542 " fill="none" id="app.utils.communication-backto-app.services.high_level_can" style="stroke:#000000;stroke-width:2.0;"/><polygon fill="none" points="123.67,120.952,130.67,100.952,137.67,120.952,123.67,120.952" style="stroke:#000000;stroke-width:2.0;"/><!--MD5=[e3eeb2bb8502ab399352e6c0a07aa125]
reverse link app.services.high_level_can.schemas.s88 to app.services.high_level_can--><path codeLine="38" d="M2868,313.802 C2868,313.802 2868,393.602 2868,393.602 C2868,393.602 1983.78,393.602 1733.37,393.602 " fill="none" id="app.services.high_level_can.schemas.s88-backto-app.services.high_level_can" style="stroke:#000000;stroke-width:2.0;"/><polygon fill="none" points="2861,313.802,2868,293.802,2875,313.802,2861,313.802" style="stroke:#000000;stroke-width:2.0;"/><!--MD5=[c5a8a2136c80836cbf0f0b520e765a5c]
reverse link app.utils.coding to app.services.high_level_can--><path codeLine="39" d="M309.18,64.602 C309.18,64.602 1633.75,64.602 1633.75,64.602 C1633.75,64.602 1633.75,284.232 1633.75,358.442 " fill="none" id="app.utils.coding-backto-app.services.high_level_can" style="stroke:#000000;stroke-width:2.0;"/><polygon fill="none" points="309.18,71.602,289.18,64.602,309.18,57.602,309.18,71.602" style="stroke:#000000;stroke-width:2.0;"/><!--MD5=[cc8a88c2dc94885294ff5df1ae65b9bb]
reverse link app.schemas.can_commands to app.services.high_level_can--><path codeLine="40" d="M2145,125.3691 C2145,126.2233 2145,127.0857 2145,127.9559 C2145,155.8029 2145,191.7126 2145,227.2157 C2145,298.222 2145,367.602 2145,367.602 C2145,367.602 1863.96,367.602 1733.32,367.602 " fill="none" id="app.schemas.can_commands-backto-app.services.high_level_can" style="stroke:#000000;stroke-width:2.0;"/><polygon fill="#FFFFFF" points="2145,125.3691,2138,144.3691,2152,144.3691,2145,125.3691" style="stroke:#000000;stroke-width:2.0;"/><!--MD5=[69b931e37a72c9577ced4d30345ff573]
reverse link app.schemas.can to app.services.high_level_can--><path codeLine="41" d="M1831.5,121.072 C1831.5,121.072 1831.5,363.602 1831.5,363.602 C1831.5,363.602 1778.68,363.602 1733.09,363.602 " fill="none" id="app.schemas.can-backto-app.services.high_level_can" style="stroke:#000000;stroke-width:2.0;"/><polygon fill="none" points="1824.5,121.072,1831.5,101.072,1838.5,121.072,1824.5,121.072" style="stroke:#000000;stroke-width:2.0;"/><!--MD5=[6ef751078f23a0216dbb35d4e209cac4]
reverse link app.services.high_level_can.schemas.system to app.services.high_level_can--><path codeLine="42" d="M2766,313.882 C2766,313.882 2766,389.602 2766,389.602 C2766,389.602 1969.78,389.602 1733.4,389.602 " fill="none" id="app.services.high_level_can.schemas.system-backto-app.services.high_level_can" style="stroke:#000000;stroke-width:2.0;"/><polygon fill="none" points="2759,313.882,2766,293.882,2773,313.882,2759,313.882" style="stroke:#000000;stroke-width:2.0;"/><!--MD5=[e4f0ea68a40a0cb688b878c81606fe42]
reverse link app.schemas.can_commands.base to app.services.high_level_can--><path codeLine="43" d="M2424,120.642 C2424,120.642 2424,376.602 2424,376.602 C2424,376.602 1916.49,376.602 1733.11,376.602 " fill="none" id="app.schemas.can_commands.base-backto-app.services.high_level_can" style="stroke:#000000;stroke-width:2.0;"/><polygon fill="none" points="2417,120.642,2424,100.642,2431,120.642,2417,120.642" style="stroke:#000000;stroke-width:2.0;"/><!--MD5=[e356100cb731dd023a8ab0e1a6f8897d]
reverse link app.schemas.can_commands.system to app.services.high_level_can--><path codeLine="44" d="M2531,120.712 C2531,120.712 2531,380.602 2531,380.602 C2531,380.602 1934.27,380.602 1733.22,380.602 " fill="none" id="app.schemas.can_commands.system-backto-app.services.high_level_can" style="stroke:#000000;stroke-width:2.0;"/><polygon fill="none" points="2524,120.712,2531,100.712,2538,120.712,2524,120.712" style="stroke:#000000;stroke-width:2.0;"/><!--MD5=[40e14e8e6c5451a457c1c8d7d0bc646f]
reverse link app.services.high_level_can.configs to app.services.high_level_can--><path codeLine="45" d="M1692,313.842 C1692,313.842 1692,358.402 1692,358.402 " fill="none" id="app.services.high_level_can.configs-backto-app.services.high_level_can" style="stroke:#000000;stroke-width:2.0;"/><polygon fill="none" points="1685,313.842,1692,293.842,1699,313.842,1685,313.842" style="stroke:#000000;stroke-width:2.0;"/><!--MD5=[9790f27287a147070d3ebdd23ee6ebe8]
reverse link app.schemas.can_commands.general to app.services.high_level_can--><path codeLine="46" d="M2329,120.822 C2329,120.822 2329,372.602 2329,372.602 C2329,372.602 1899.95,372.602 1733.19,372.602 " fill="none" id="app.schemas.can_commands.general-backto-app.services.high_level_can" style="stroke:#000000;stroke-width:2.0;"/><polygon fill="none" points="2322,120.822,2329,100.822,2336,120.822,2322,120.822" style="stroke:#000000;stroke-width:2.0;"/><!--MD5=[f18fb2c269b67a642a43e98bb81a5a6a]
reverse link app.schemas.can_commands.loc to app.services.high_level_can--><path codeLine="47" d="M2631,120.852 C2631,120.852 2631,385.602 2631,385.602 C2631,385.602 1949.39,385.602 1733.06,385.602 " fill="none" id="app.schemas.can_commands.loc-backto-app.services.high_level_can" style="stroke:#000000;stroke-width:2.0;"/><polygon fill="none" points="2624,120.852,2631,100.852,2638,120.852,2624,120.852" style="stroke:#000000;stroke-width:2.0;"/><!--MD5=[02e5ce8bbdb29b3847f77ffc8d1df622]
reverse link app.services.high_level_can.helper to app.services.high_level_can--><path codeLine="48" d="M1436.17,313.732 C1436.17,313.732 1436.17,338.602 1436.17,338.602 C1436.17,338.602 1611.67,338.602 1611.67,338.602 C1611.67,338.602 1611.67,348.272 1611.67,358.542 " fill="none" id="app.services.high_level_can.helper-backto-app.services.high_level_can" style="stroke:#000000;stroke-width:2.0;"/><polygon fill="none" points="1429.17,313.732,1436.17,293.732,1443.17,313.732,1429.17,313.732" style="stroke:#000000;stroke-width:2.0;"/><!--MD5=[c5d5ed8669a9a12d8f1c3c27f0ac9dca]
reverse link app.utils.coding to app.schemas--><path codeLine="49" d="M309.33,58.602 C309.33,58.602 1779,58.602 1779,58.602 C1779,58.602 1779,269.602 1779,269.602 C1779,269.602 1782.4069,269.602 1787.597,269.602 C1790.1921,269.602 1793.233,269.602 1796.5168,269.602 C1797.3377,269.602 1798.1738,269.602 1799.022,269.602 C1799.234,269.602 1799.4468,269.602 1799.6603,269.602 C1799.767,269.602 1799.8739,269.602 1799.981,269.602 " fill="none" id="app.utils.coding-backto-app.schemas" style="stroke:#000000;stroke-width:2.0;"/><polygon fill="none" points="309.33,65.602,289.33,58.602,309.33,51.602,309.33,65.602" style="stroke:#000000;stroke-width:2.0;"/><!--MD5=[ba34c4473afce16d0287e84ee0d867e4]
reverse link app.schemas.can_commands.base to app.schemas--><path codeLine="50" d="M2402.67,120.652 C2402.67,120.652 2402.67,269.602 2402.67,269.602 C2402.67,269.602 2266.1225,269.602 2127.4413,269.602 C2058.1006,269.602 1988.2266,269.602 1934.6208,269.602 C1927.9201,269.602 1921.4735,269.602 1915.314,269.602 C1912.2342,269.602 1909.2262,269.602 1906.2941,269.602 " fill="none" id="app.schemas.can_commands.base-backto-app.schemas" style="stroke:#000000;stroke-width:2.0;"/><polygon fill="none" points="2395.67,120.652,2402.67,100.652,2409.67,120.652,2395.67,120.652" style="stroke:#000000;stroke-width:2.0;"/><!--MD5=[be3173a1d075d1a7971e5bbb8ca3e626]
reverse link app.schemas.can to app.schemas--><path codeLine="51" d="M1839,120.652 C1839,120.652 1839,268.852 1839,268.852 " fill="none" id="app.schemas.can-backto-app.schemas" style="stroke:#000000;stroke-width:2.0;"/><polygon fill="none" points="1832,120.652,1839,100.652,1846,120.652,1832,120.652" style="stroke:#000000;stroke-width:2.0;"/><!--MD5=[80405d7c8117bb34840fcc56869a0c4c]
reverse link app.utils.coding to app.models--><path codeLine="52" d="M230.5,120.692 C230.5,120.692 230.5,209.602 230.5,209.602 C230.5,209.602 3156,209.602 3156,209.602 C3156,209.602 3156,228.852 3156,245.542 " fill="none" id="app.utils.coding-backto-app.models" style="stroke:#000000;stroke-width:2.0;"/><polygon fill="none" points="223.5,120.692,230.5,100.692,237.5,120.692,223.5,120.692" style="stroke:#000000;stroke-width:2.0;"/><!--MD5=[642e5f081293b9de9ef897828a77d4a5]
reverse link app.schemas.can_commands to app.models--><path codeLine="53" d="M2163.25,124.6152 C2163.25,124.8141 2163.25,125.0131 2163.25,125.2121 C2163.25,126.0082 2163.25,126.8051 2163.25,127.602 C2163.25,153.102 2163.25,178.602 2163.25,178.602 C2163.25,178.602 3183,178.602 3183,178.602 C3183,178.602 3183,218.262 3183,245.212 " fill="none" id="app.schemas.can_commands-backto-app.models" style="stroke:#000000;stroke-width:2.0;"/><polygon fill="#FFFFFF" points="2163.25,124.6152,2156.25,143.6152,2170.25,143.6152,2163.25,124.6152" style="stroke:#000000;stroke-width:2.0;"/><!--MD5=[311bd65001d95a2fedf5787407940f47]
reverse link app.schemas.can to app.models--><path codeLine="54" d="M1853.67,120.762 C1853.67,120.762 1853.67,194.602 1853.67,194.602 C1853.67,194.602 3169.5,194.602 3169.5,194.602 C3169.5,194.602 3169.5,223.532 3169.5,245.462 " fill="none" id="app.schemas.can-backto-app.models" style="stroke:#000000;stroke-width:2.0;"/><polygon fill="none" points="1846.67,120.762,1853.67,100.762,1860.67,120.762,1846.67,120.762" style="stroke:#000000;stroke-width:2.0;"/><!--MD5=[b623a78138fb31b290097038cddbe4f9]
reverse link app.schemas.can_commands.base to app.models--><path codeLine="55" d="M2445.33,120.832 C2445.33,120.832 2445.33,163.602 2445.33,163.602 C2445.33,163.602 3196.5,163.602 3196.5,163.602 C3196.5,163.602 3196.5,214.272 3196.5,245.552 " fill="none" id="app.schemas.can_commands.base-backto-app.models" style="stroke:#000000;stroke-width:2.0;"/><polygon fill="none" points="2438.33,120.832,2445.33,100.832,2452.33,120.832,2438.33,120.832" style="stroke:#000000;stroke-width:2.0;"/><!--MD5=[ade719560bd983975faf7e803aa63174]
reverse link app.schemas.can_commands.system to app.models--><path codeLine="56" d="M2550.75,120.642 C2550.75,120.642 2550.75,147.602 2550.75,147.602 C2550.75,147.602 3210,147.602 3210,147.602 C3210,147.602 3210,209.942 3210,245.502 " fill="none" id="app.schemas.can_commands.system-backto-app.models" style="stroke:#000000;stroke-width:2.0;"/><polygon fill="none" points="2543.75,120.642,2550.75,100.642,2557.75,120.642,2543.75,120.642" style="stroke:#000000;stroke-width:2.0;"/><!--MD5=[7d338afafb47b849cc54a39ab3f0e360]
reverse link app.utils.coding to app.utils--><path codeLine="57" d="M303.41,94.602 C303.41,94.602 305,94.602 305,94.602 C305,94.602 305,258.832 305,269.102 " fill="none" id="app.utils.coding-backto-app.utils" style="stroke:#000000;stroke-width:2.0;"/><polygon fill="none" points="309.09,101.602,289.09,94.602,309.09,87.602,309.09,101.602" style="stroke:#000000;stroke-width:2.0;"/><!--MD5=[009846846daffcf06abc4f8ffc961bf2]
@startuml
skinparam useBetaStyle true
skinparam linetype ortho

<style>
    classDiagram{
        FontColor Black
        BackgroundColor White
        LineThickness 2
        LineColor Black
        RoundCorner 10
    }
</style>

app.utils.coding <|- - app.services.raw_can_recv
app.services.raw_can_recv.reader <|- - app.services.raw_can_recv
app.utils.communication <|- - app.services.raw_can_recv
app.utils.coding <|- - app.services.raw_can_send
app.schemas.can <|- - app.services.raw_can_send
app.utils.communication <|- - app.services.raw_can_send
app.services.high_level_can_recv.reader <|- - app.services.high_level_can_recv
app.services.high_level_can_recv.converter <|- - app.services.high_level_can_recv
app.utils.communication <|- - app.services.high_level_can_recv
app.utils.coding <|- - app.services.high_level_can_recv
app.schemas.can <|- - app.services.high_level_can_recv
app.schemas.can_commands.base <|- - app.services.high_level_can_recv
app.utils.communication <|- - app.services.high_level_can_send
app.utils.coding <|- - app.services.high_level_can_send
app.schemas.can_commands <|- - app.services.high_level_can_send
app.services.high_level_can_send.helper <|- - app.services.high_level_can_send
app.schemas.can <|- - app.services.high_level_can_send
app.schemas.can_commands.base <|- - app.services.high_level_can_send
app.schemas.can_commands.system <|- - app.services.high_level_can_send
app.schemas.can_commands.general <|- - app.services.high_level_can_send
app.schemas.can_commands.mfx <|- - app.services.high_level_can_send
app.services.high_level_can_recv.converter <|- - app.services.high_level_can
app.services.high_level_can.schemas.lok <|- - app.services.high_level_can
app.utils.communication <|- - app.services.high_level_can
app.services.high_level_can.schemas.s88 <|- - app.services.high_level_can
app.utils.coding <|- - app.services.high_level_can
app.schemas.can_commands <|- - app.services.high_level_can
app.schemas.can <|- - app.services.high_level_can
app.services.high_level_can.schemas.system <|- - app.services.high_level_can
app.schemas.can_commands.base <|- - app.services.high_level_can
app.schemas.can_commands.system <|- - app.services.high_level_can
app.services.high_level_can.configs <|- - app.services.high_level_can
app.schemas.can_commands.general <|- - app.services.high_level_can
app.schemas.can_commands.loc <|- - app.services.high_level_can
app.services.high_level_can.helper <|- - app.services.high_level_can
app.utils.coding <|- - app.schemas
app.schemas.can_commands.base <|- - app.schemas
app.schemas.can <|- - app.schemas
app.utils.coding <|- - app.models
app.schemas.can_commands <|- - app.models
app.schemas.can <|- - app.models
app.schemas.can_commands.base <|- - app.models
app.schemas.can_commands.system <|- - app.models
app.utils.coding <|- - app.utils
namespace app {
namespace external_services {
namespace grafana {
}
}
namespace services {
namespace raw_can_recv {
}
namespace raw_can_send {
}
namespace high_level_can_recv {
}
namespace high_level_can_send {
}
namespace high_level_can {
}
namespace database_read {
}
}
namespace schemas {
}
namespace models {
}
namespace utils {
}
}
@enduml

PlantUML version 1.2021.16(Wed Dec 08 18:25:22 CET 2021)
(GPL source distribution)
Java Runtime: OpenJDK Runtime Environment
JVM: OpenJDK 64-Bit Server VM
Default Encoding: UTF-8
Language: en
Country: US
--></g></svg>