<?xml version="1.0" encoding="UTF-8" standalone="no"?><svg xmlns="http://www.w3.org/2000/svg" xmlns:xlink="http://www.w3.org/1999/xlink" contentScriptType="application/ecmascript" contentStyleType="text/css" height="825px" preserveAspectRatio="none" style="width:4033px;height:825px;background:#FFFFFF;" version="1.1" viewBox="0 0 4033 825" width="4033px" zoomAndPan="magnify"><defs><filter height="300%" id="fl8ydmamfii53" width="300%" x="-1" y="-1"><feGaussianBlur result="blurOut" stdDeviation="2.0"/><feColorMatrix in="blurOut" result="blurOut2" type="matrix" values="0 0 0 0 0 0 0 0 0 0 0 0 0 0 0 0 0 0 .4 0"/><feOffset dx="4.0" dy="4.0" in="blurOut2" result="blurOut3"/><feBlend in="SourceGraphic" in2="blurOut3" mode="normal"/></filter></defs><g><!--MD5=[dab94714f3e9c56827fcd7ff6ba63286]
class AbstractCANMessage--><rect codeLine="16" fill="#FFFFFF" filter="url(#fl8ydmamfii53)" height="48" id="AbstractCANMessage" rx="5" ry="5" style="stroke:#000000;stroke-width:1.5;" width="164" x="1684" y="83.5"/><ellipse cx="1699" cy="99.5" fill="#A9DCDF" rx="11" ry="11" style="stroke:#A80036;stroke-width:1.0;"/><path d="M1694.1719,105.25 L1697.5156,93.0625 L1700.6563,93.0625 L1704.0313,105.25 L1701.5625,105.25 L1700.8281,102.2344 L1697.3125,102.2344 L1696.5625,105.25 L1694.1719,105.25 Z M1698.5781,97.2031 L1697.8281,100.2031 L1700.3438,100.2031 L1699.625,97.2031 Q1699.4844,96.625 1699.3594,96.0781 Q1699.2344,95.5156 1699.0938,94.9375 Q1698.9844,95.5156 1698.8438,96.0781 Q1698.7031,96.625 1698.5781,97.2031 Z " fill="#000000"/><text fill="#000000" font-family="sans-serif" font-size="14" font-style="italic" lengthAdjust="spacing" textLength="132" x="1713" y="104.932">AbstractCANMessage</text><line style="stroke:#000000;stroke-width:1.5;" x1="1685" x2="1847" y1="115.5" y2="115.5"/><line style="stroke:#000000;stroke-width:1.5;" x1="1685" x2="1847" y1="123.5" y2="123.5"/><!--MD5=[926f72e0bbfb58b735dd5d6b7e566b95]
class AbstractLocomotiveMessage--><rect codeLine="19" fill="#FFFFFF" filter="url(#fl8ydmamfii53)" height="48" id="AbstractLocomotiveMessage" rx="5" ry="5" style="stroke:#000000;stroke-width:1.5;" width="210" x="7" y="516"/><ellipse cx="22" cy="532" fill="#A9DCDF" rx="11" ry="11" style="stroke:#A80036;stroke-width:1.0;"/><path d="M17.1719,537.75 L20.5156,525.5625 L23.6563,525.5625 L27.0313,537.75 L24.5625,537.75 L23.8281,534.7344 L20.3125,534.7344 L19.5625,537.75 L17.1719,537.75 Z M21.5781,529.7031 L20.8281,532.7031 L23.3438,532.7031 L22.625,529.7031 Q22.4844,529.125 22.3594,528.5781 Q22.2344,528.0156 22.0938,527.4375 Q21.9844,528.0156 21.8438,528.5781 Q21.7031,529.125 21.5781,529.7031 Z " fill="#000000"/><text fill="#000000" font-family="sans-serif" font-size="14" font-style="italic" lengthAdjust="spacing" textLength="178" x="36" y="537.432">AbstractLocomotiveMessage</text><line style="stroke:#000000;stroke-width:1.5;" x1="8" x2="216" y1="548" y2="548"/><line style="stroke:#000000;stroke-width:1.5;" x1="8" x2="216" y1="556" y2="556"/><!--MD5=[14a399a0a831a43f01ea2cf8fe934028]
class AbstractSystemMessage--><rect codeLine="23" fill="#FFFFFF" filter="url(#fl8ydmamfii53)" height="48" id="AbstractSystemMessage" rx="5" ry="5" style="stroke:#000000;stroke-width:1.5;" width="182" x="252" y="516"/><ellipse cx="267" cy="532" fill="#A9DCDF" rx="11" ry="11" style="stroke:#A80036;stroke-width:1.0;"/><path d="M262.1719,537.75 L265.5156,525.5625 L268.6563,525.5625 L272.0313,537.75 L269.5625,537.75 L268.8281,534.7344 L265.3125,534.7344 L264.5625,537.75 L262.1719,537.75 Z M266.5781,529.7031 L265.8281,532.7031 L268.3438,532.7031 L267.625,529.7031 Q267.4844,529.125 267.3594,528.5781 Q267.2344,528.0156 267.0938,527.4375 Q266.9844,528.0156 266.8438,528.5781 Q266.7031,529.125 266.5781,529.7031 Z " fill="#000000"/><text fill="#000000" font-family="sans-serif" font-size="14" font-style="italic" lengthAdjust="spacing" textLength="150" x="281" y="537.432">AbstractSystemMessage</text><line style="stroke:#000000;stroke-width:1.5;" x1="253" x2="433" y1="548" y2="548"/><line style="stroke:#000000;stroke-width:1.5;" x1="253" x2="433" y1="556" y2="556"/><!--MD5=[b7624012a83b62e2e1f03faa2d480c4c]
class ConfigMessage - config--><rect codeLine="25" fill="#FFFFFF" filter="url(#fl8ydmamfii53)" height="162.4075" id="ConfigMessage - config" rx="5" ry="5" style="stroke:#000000;stroke-width:1.5;" width="191" x="469.5" y="459"/><ellipse cx="484.5" cy="475" fill="#ADD1B2" rx="11" ry="11" style="stroke:#A80036;stroke-width:1.0;"/><path d="M483.9688,481.9219 Q482.2188,481.9219 481.0781,481.1875 Q479.9531,480.4375 479.3906,479.0938 Q478.8438,477.7344 478.8438,475.9375 Q478.8438,473.9063 479.5,472.4531 Q480.1563,471 481.4375,470.2188 Q482.7188,469.4375 484.5938,469.4375 Q485.4844,469.4375 486.1563,469.625 Q486.8281,469.7969 487.5156,470.1406 L486.7031,472.1563 Q486.0781,471.8438 485.5313,471.7188 Q485,471.5938 484.5156,471.5938 Q483.3438,471.5938 482.6406,472.125 Q481.9375,472.6563 481.6406,473.6094 Q481.3438,474.5625 481.3438,475.8281 Q481.3438,477.8438 482.0625,478.8125 Q482.7813,479.7656 484.375,479.7656 Q484.9688,479.7656 485.5938,479.6094 Q486.2188,479.4531 487.0469,479.0781 L487.0469,481.2969 Q486.3125,481.6094 485.5156,481.7656 Q484.7344,481.9219 483.9688,481.9219 Z " fill="#000000"/><text fill="#000000" font-family="sans-serif" font-size="14" lengthAdjust="spacing" textLength="159" x="498.5" y="480.432">ConfigMessage - config</text><line style="stroke:#000000;stroke-width:1.5;" x1="470.5" x2="659.5" y1="491" y2="491"/><text fill="#000000" font-family="sans-serif" font-size="14" lengthAdjust="spacing" textLength="149" x="475.5" y="509.9659">timestamp: DATETIME</text><text fill="#000000" font-family="sans-serif" font-size="14" lengthAdjust="spacing" textLength="164" x="475.5" y="529.0339">timestamp_iso: INTEGER</text><text fill="#000000" font-family="sans-serif" font-size="14" lengthAdjust="spacing" textLength="142" x="475.5" y="548.1018">hash_value: INTEGER</text><text fill="#000000" font-family="sans-serif" font-size="14" lengthAdjust="spacing" textLength="136" x="475.5" y="567.1697">response: BOOLEAN</text><text fill="#000000" font-family="sans-serif" font-size="14" lengthAdjust="spacing" textLength="82" x="475.5" y="586.2376">config: TEXT</text><text fill="#000000" font-family="sans-serif" font-size="14" lengthAdjust="spacing" textLength="111" x="475.5" y="605.3055">length: INTEGER</text><line style="stroke:#000000;stroke-width:1.5;" x1="470.5" x2="659.5" y1="613.4075" y2="613.4075"/><!--MD5=[0065dace9e9ba2a3a6c12220cc8d8e92]
class LocomotiveMetricMessage - locomotive_metrics--><rect codeLine="34" fill="#FFFFFF" filter="url(#fl8ydmamfii53)" height="200.5433" id="LocomotiveMetricMessage - locomotive_metrics" rx="5" ry="5" style="stroke:#000000;stroke-width:1.5;" width="351" x="1883.5" y="7"/><ellipse cx="1898.5" cy="23" fill="#ADD1B2" rx="11" ry="11" style="stroke:#A80036;stroke-width:1.0;"/><path d="M1897.9688,29.9219 Q1896.2188,29.9219 1895.0781,29.1875 Q1893.9531,28.4375 1893.3906,27.0938 Q1892.8438,25.7344 1892.8438,23.9375 Q1892.8438,21.9063 1893.5,20.4531 Q1894.1563,19 1895.4375,18.2188 Q1896.7188,17.4375 1898.5938,17.4375 Q1899.4844,17.4375 1900.1563,17.625 Q1900.8281,17.7969 1901.5156,18.1406 L1900.7031,20.1563 Q1900.0781,19.8438 1899.5313,19.7188 Q1899,19.5938 1898.5156,19.5938 Q1897.3438,19.5938 1896.6406,20.125 Q1895.9375,20.6563 1895.6406,21.6094 Q1895.3438,22.5625 1895.3438,23.8281 Q1895.3438,25.8438 1896.0625,26.8125 Q1896.7813,27.7656 1898.375,27.7656 Q1898.9688,27.7656 1899.5938,27.6094 Q1900.2188,27.4531 1901.0469,27.0781 L1901.0469,29.2969 Q1900.3125,29.6094 1899.5156,29.7656 Q1898.7344,29.9219 1897.9688,29.9219 Z " fill="#000000"/><text fill="#000000" font-family="sans-serif" font-size="14" lengthAdjust="spacing" textLength="319" x="1912.5" y="28.432">LocomotiveMetricMessage - locomotive_metrics</text><line style="stroke:#000000;stroke-width:1.5;" x1="1884.5" x2="2233.5" y1="39" y2="39"/><text fill="#000000" font-family="sans-serif" font-size="14" lengthAdjust="spacing" textLength="149" x="1889.5" y="57.9659">timestamp: DATETIME</text><text fill="#000000" font-family="sans-serif" font-size="14" lengthAdjust="spacing" textLength="164" x="1889.5" y="77.0339">timestamp_iso: INTEGER</text><text fill="#000000" font-family="sans-serif" font-size="14" lengthAdjust="spacing" textLength="114" x="1889.5" y="96.1018">mfxuid: INTEGER</text><text fill="#000000" font-family="sans-serif" font-size="14" lengthAdjust="spacing" textLength="105" x="1889.5" y="115.1697">loc_id: INTEGER</text><text fill="#000000" font-family="sans-serif" font-size="14" lengthAdjust="spacing" textLength="102" x="1889.5" y="134.2376">fuelA: INTEGER</text><text fill="#000000" font-family="sans-serif" font-size="14" lengthAdjust="spacing" textLength="102" x="1889.5" y="153.3055">fuelB: INTEGER</text><text fill="#000000" font-family="sans-serif" font-size="14" lengthAdjust="spacing" textLength="100" x="1889.5" y="172.3734">sand: INTEGER</text><text fill="#000000" font-family="sans-serif" font-size="14" lengthAdjust="spacing" textLength="124" x="1889.5" y="191.4414">distance: INTEGER</text><line style="stroke:#000000;stroke-width:1.5;" x1="1884.5" x2="2233.5" y1="199.5433" y2="199.5433"/><!--MD5=[fbe661e2c4b7a5c55283a1178a750d6d]
class ConfigUsageMessage - config_usage--><rect codeLine="44" fill="#FFFFFF" filter="url(#fl8ydmamfii53)" height="295.8829" id="ConfigUsageMessage - config_usage" rx="5" ry="5" style="stroke:#000000;stroke-width:1.5;" width="280" x="696" y="392"/><ellipse cx="711" cy="408" fill="#ADD1B2" rx="11" ry="11" style="stroke:#A80036;stroke-width:1.0;"/><path d="M710.4688,414.9219 Q708.7188,414.9219 707.5781,414.1875 Q706.4531,413.4375 705.8906,412.0938 Q705.3438,410.7344 705.3438,408.9375 Q705.3438,406.9063 706,405.4531 Q706.6563,404 707.9375,403.2188 Q709.2188,402.4375 711.0938,402.4375 Q711.9844,402.4375 712.6563,402.625 Q713.3281,402.7969 714.0156,403.1406 L713.2031,405.1563 Q712.5781,404.8438 712.0313,404.7188 Q711.5,404.5938 711.0156,404.5938 Q709.8438,404.5938 709.1406,405.125 Q708.4375,405.6563 708.1406,406.6094 Q707.8438,407.5625 707.8438,408.8281 Q707.8438,410.8438 708.5625,411.8125 Q709.2813,412.7656 710.875,412.7656 Q711.4688,412.7656 712.0938,412.6094 Q712.7188,412.4531 713.5469,412.0781 L713.5469,414.2969 Q712.8125,414.6094 712.0156,414.7656 Q711.2344,414.9219 710.4688,414.9219 Z " fill="#000000"/><text fill="#000000" font-family="sans-serif" font-size="14" lengthAdjust="spacing" textLength="248" x="725" y="413.432">ConfigUsageMessage - config_usage</text><line style="stroke:#000000;stroke-width:1.5;" x1="697" x2="975" y1="424" y2="424"/><text fill="#000000" font-family="sans-serif" font-size="14" lengthAdjust="spacing" textLength="149" x="702" y="442.9659">timestamp: DATETIME</text><text fill="#000000" font-family="sans-serif" font-size="14" lengthAdjust="spacing" textLength="164" x="702" y="462.0339">timestamp_iso: INTEGER</text><text fill="#000000" font-family="sans-serif" font-size="14" lengthAdjust="spacing" textLength="142" x="702" y="481.1018">hash_value: INTEGER</text><text fill="#000000" font-family="sans-serif" font-size="14" lengthAdjust="spacing" textLength="136" x="702" y="500.1697">response: BOOLEAN</text><text fill="#000000" font-family="sans-serif" font-size="14" lengthAdjust="spacing" textLength="114" x="702" y="519.2376">mfxuid: INTEGER</text><text fill="#000000" font-family="sans-serif" font-size="14" lengthAdjust="spacing" textLength="132" x="702" y="538.3055">maxFuelA: INTEGER</text><text fill="#000000" font-family="sans-serif" font-size="14" lengthAdjust="spacing" textLength="132" x="702" y="557.3734">maxFuelB: INTEGER</text><text fill="#000000" font-family="sans-serif" font-size="14" lengthAdjust="spacing" textLength="129" x="702" y="576.4414">maxSand: INTEGER</text><text fill="#000000" font-family="sans-serif" font-size="14" lengthAdjust="spacing" textLength="143" x="702" y="595.5093">faktorFuelA: INTEGER</text><text fill="#000000" font-family="sans-serif" font-size="14" lengthAdjust="spacing" textLength="102" x="702" y="614.5772">fuelA: INTEGER</text><text fill="#000000" font-family="sans-serif" font-size="14" lengthAdjust="spacing" textLength="102" x="702" y="633.6451">fuelB: INTEGER</text><text fill="#000000" font-family="sans-serif" font-size="14" lengthAdjust="spacing" textLength="100" x="702" y="652.713">sand: INTEGER</text><text fill="#000000" font-family="sans-serif" font-size="14" lengthAdjust="spacing" textLength="98" x="702" y="671.7809">alter: INTEGER</text><line style="stroke:#000000;stroke-width:1.5;" x1="697" x2="975" y1="679.8829" y2="679.8829"/><!--MD5=[18e8ff5e1790a84c41e74931ec64b753]
class ConfigLocomotiveMessage - config_locomotive--><rect codeLine="60" fill="#FFFFFF" filter="url(#fl8ydmamfii53)" height="543.7658" id="ConfigLocomotiveMessage - config_locomotive" rx="5" ry="5" style="stroke:#000000;stroke-width:1.5;" width="344" x="1011" y="268"/><ellipse cx="1026" cy="284" fill="#ADD1B2" rx="11" ry="11" style="stroke:#A80036;stroke-width:1.0;"/><path d="M1025.4688,290.9219 Q1023.7188,290.9219 1022.5781,290.1875 Q1021.4531,289.4375 1020.8906,288.0938 Q1020.3438,286.7344 1020.3438,284.9375 Q1020.3438,282.9063 1021,281.4531 Q1021.6563,280 1022.9375,279.2188 Q1024.2188,278.4375 1026.0938,278.4375 Q1026.9844,278.4375 1027.6563,278.625 Q1028.3281,278.7969 1029.0156,279.1406 L1028.2031,281.1563 Q1027.5781,280.8438 1027.0313,280.7188 Q1026.5,280.5938 1026.0156,280.5938 Q1024.8438,280.5938 1024.1406,281.125 Q1023.4375,281.6563 1023.1406,282.6094 Q1022.8438,283.5625 1022.8438,284.8281 Q1022.8438,286.8438 1023.5625,287.8125 Q1024.2813,288.7656 1025.875,288.7656 Q1026.4688,288.7656 1027.0938,288.6094 Q1027.7188,288.4531 1028.5469,288.0781 L1028.5469,290.2969 Q1027.8125,290.6094 1027.0156,290.7656 Q1026.2344,290.9219 1025.4688,290.9219 Z " fill="#000000"/><text fill="#000000" font-family="sans-serif" font-size="14" lengthAdjust="spacing" textLength="312" x="1040" y="289.432">ConfigLocomotiveMessage - config_locomotive</text><line style="stroke:#000000;stroke-width:1.5;" x1="1012" x2="1354" y1="300" y2="300"/><text fill="#000000" font-family="sans-serif" font-size="14" lengthAdjust="spacing" textLength="149" x="1017" y="318.9659">timestamp: DATETIME</text><text fill="#000000" font-family="sans-serif" font-size="14" lengthAdjust="spacing" textLength="164" x="1017" y="338.0339">timestamp_iso: INTEGER</text><text fill="#000000" font-family="sans-serif" font-size="14" lengthAdjust="spacing" textLength="142" x="1017" y="357.1018">hash_value: INTEGER</text><text fill="#000000" font-family="sans-serif" font-size="14" lengthAdjust="spacing" textLength="136" x="1017" y="376.1697">response: BOOLEAN</text><text fill="#000000" font-family="sans-serif" font-size="14" lengthAdjust="spacing" textLength="78" x="1017" y="395.2376">name: TEXT</text><text fill="#000000" font-family="sans-serif" font-size="14" lengthAdjust="spacing" textLength="99" x="1017" y="414.3055">vorname: TEXT</text><text fill="#000000" font-family="sans-serif" font-size="14" lengthAdjust="spacing" textLength="89" x="1017" y="433.3734">uid: INTEGER</text><text fill="#000000" font-family="sans-serif" font-size="14" lengthAdjust="spacing" textLength="114" x="1017" y="452.4414">mfxuid: INTEGER</text><text fill="#000000" font-family="sans-serif" font-size="14" lengthAdjust="spacing" textLength="120" x="1017" y="471.5093">adresse: INTEGER</text><text fill="#000000" font-family="sans-serif" font-size="14" lengthAdjust="spacing" textLength="68" x="1017" y="490.5772">icon: TEXT</text><text fill="#000000" font-family="sans-serif" font-size="14" lengthAdjust="spacing" textLength="61" x="1017" y="509.6451">typ: TEXT</text><text fill="#000000" font-family="sans-serif" font-size="14" lengthAdjust="spacing" textLength="87" x="1017" y="528.713">sid: INTEGER</text><text fill="#000000" font-family="sans-serif" font-size="14" lengthAdjust="spacing" textLength="115" x="1017" y="547.7809">symbol: INTEGER</text><text fill="#000000" font-family="sans-serif" font-size="14" lengthAdjust="spacing" textLength="132" x="1017" y="566.8489">tachomax: INTEGER</text><text fill="#000000" font-family="sans-serif" font-size="14" lengthAdjust="spacing" textLength="102" x="1017" y="585.9168">vmax: INTEGER</text><text fill="#000000" font-family="sans-serif" font-size="14" lengthAdjust="spacing" textLength="100" x="1017" y="604.9847">vmin: INTEGER</text><text fill="#000000" font-family="sans-serif" font-size="14" lengthAdjust="spacing" textLength="82" x="1017" y="624.0526">av: INTEGER</text><text fill="#000000" font-family="sans-serif" font-size="14" lengthAdjust="spacing" textLength="83" x="1017" y="643.1205">bv: INTEGER</text><text fill="#000000" font-family="sans-serif" font-size="14" lengthAdjust="spacing" textLength="116" x="1017" y="662.1884">volume: INTEGER</text><text fill="#000000" font-family="sans-serif" font-size="14" lengthAdjust="spacing" textLength="91" x="1017" y="681.2564">spa: INTEGER</text><text fill="#000000" font-family="sans-serif" font-size="14" lengthAdjust="spacing" textLength="96" x="1017" y="700.3243">spm: INTEGER</text><text fill="#000000" font-family="sans-serif" font-size="14" lengthAdjust="spacing" textLength="77" x="1017" y="719.3922">ft: INTEGER</text><text fill="#000000" font-family="sans-serif" font-size="14" lengthAdjust="spacing" textLength="117" x="1017" y="738.4601">velocity: INTEGER</text><text fill="#000000" font-family="sans-serif" font-size="14" lengthAdjust="spacing" textLength="125" x="1017" y="757.528">richtung: INTEGER</text><text fill="#000000" font-family="sans-serif" font-size="14" lengthAdjust="spacing" textLength="113" x="1017" y="776.5959">mfxtyp: INTEGER</text><text fill="#000000" font-family="sans-serif" font-size="14" lengthAdjust="spacing" textLength="82" x="1017" y="795.6639">blocks: TEXT</text><line style="stroke:#000000;stroke-width:1.5;" x1="1012" x2="1354" y1="803.7658" y2="803.7658"/><!--MD5=[5ce5bdb6b10c0404844ec299f604b932]
class RequestConfigDataMessage - request_config_data--><rect codeLine="89" fill="#FFFFFF" filter="url(#fl8ydmamfii53)" height="143.3396" id="RequestConfigDataMessage - request_config_data" rx="5" ry="5" style="stroke:#000000;stroke-width:1.5;" width="371" x="1390.5" y="468.5"/><ellipse cx="1405.5" cy="484.5" fill="#ADD1B2" rx="11" ry="11" style="stroke:#A80036;stroke-width:1.0;"/><path d="M1404.9688,491.4219 Q1403.2188,491.4219 1402.0781,490.6875 Q1400.9531,489.9375 1400.3906,488.5938 Q1399.8438,487.2344 1399.8438,485.4375 Q1399.8438,483.4063 1400.5,481.9531 Q1401.1563,480.5 1402.4375,479.7188 Q1403.7188,478.9375 1405.5938,478.9375 Q1406.4844,478.9375 1407.1563,479.125 Q1407.8281,479.2969 1408.5156,479.6406 L1407.7031,481.6563 Q1407.0781,481.3438 1406.5313,481.2188 Q1406,481.0938 1405.5156,481.0938 Q1404.3438,481.0938 1403.6406,481.625 Q1402.9375,482.1563 1402.6406,483.1094 Q1402.3438,484.0625 1402.3438,485.3281 Q1402.3438,487.3438 1403.0625,488.3125 Q1403.7813,489.2656 1405.375,489.2656 Q1405.9688,489.2656 1406.5938,489.1094 Q1407.2188,488.9531 1408.0469,488.5781 L1408.0469,490.7969 Q1407.3125,491.1094 1406.5156,491.2656 Q1405.7344,491.4219 1404.9688,491.4219 Z " fill="#000000"/><text fill="#000000" font-family="sans-serif" font-size="14" lengthAdjust="spacing" textLength="339" x="1419.5" y="489.932">RequestConfigDataMessage - request_config_data</text><line style="stroke:#000000;stroke-width:1.5;" x1="1391.5" x2="1760.5" y1="500.5" y2="500.5"/><text fill="#000000" font-family="sans-serif" font-size="14" lengthAdjust="spacing" textLength="149" x="1396.5" y="519.4659">timestamp: DATETIME</text><text fill="#000000" font-family="sans-serif" font-size="14" lengthAdjust="spacing" textLength="164" x="1396.5" y="538.5339">timestamp_iso: INTEGER</text><text fill="#000000" font-family="sans-serif" font-size="14" lengthAdjust="spacing" textLength="142" x="1396.5" y="557.6018">hash_value: INTEGER</text><text fill="#000000" font-family="sans-serif" font-size="14" lengthAdjust="spacing" textLength="136" x="1396.5" y="576.6697">response: BOOLEAN</text><text fill="#000000" font-family="sans-serif" font-size="14" lengthAdjust="spacing" textLength="99" x="1396.5" y="595.7376">filename: TEXT</text><line style="stroke:#000000;stroke-width:1.5;" x1="1391.5" x2="1760.5" y1="603.8396" y2="603.8396"/><!--MD5=[90a6b7b9e2201b6186d60a395c95820f]
class ParticipantPingMessage - participant_ping--><rect codeLine="97" fill="#FFFFFF" filter="url(#fl8ydmamfii53)" height="181.4754" id="ParticipantPingMessage - participant_ping" rx="5" ry="5" style="stroke:#000000;stroke-width:1.5;" width="319" x="1796.5" y="449.5"/><ellipse cx="1811.5" cy="465.5" fill="#ADD1B2" rx="11" ry="11" style="stroke:#A80036;stroke-width:1.0;"/><path d="M1810.9688,472.4219 Q1809.2188,472.4219 1808.0781,471.6875 Q1806.9531,470.9375 1806.3906,469.5938 Q1805.8438,468.2344 1805.8438,466.4375 Q1805.8438,464.4063 1806.5,462.9531 Q1807.1563,461.5 1808.4375,460.7188 Q1809.7188,459.9375 1811.5938,459.9375 Q1812.4844,459.9375 1813.1563,460.125 Q1813.8281,460.2969 1814.5156,460.6406 L1813.7031,462.6563 Q1813.0781,462.3438 1812.5313,462.2188 Q1812,462.0938 1811.5156,462.0938 Q1810.3438,462.0938 1809.6406,462.625 Q1808.9375,463.1563 1808.6406,464.1094 Q1808.3438,465.0625 1808.3438,466.3281 Q1808.3438,468.3438 1809.0625,469.3125 Q1809.7813,470.2656 1811.375,470.2656 Q1811.9688,470.2656 1812.5938,470.1094 Q1813.2188,469.9531 1814.0469,469.5781 L1814.0469,471.7969 Q1813.3125,472.1094 1812.5156,472.2656 Q1811.7344,472.4219 1810.9688,472.4219 Z " fill="#000000"/><text fill="#000000" font-family="sans-serif" font-size="14" lengthAdjust="spacing" textLength="287" x="1825.5" y="470.932">ParticipantPingMessage - participant_ping</text><line style="stroke:#000000;stroke-width:1.5;" x1="1797.5" x2="2114.5" y1="481.5" y2="481.5"/><text fill="#000000" font-family="sans-serif" font-size="14" lengthAdjust="spacing" textLength="149" x="1802.5" y="500.4659">timestamp: DATETIME</text><text fill="#000000" font-family="sans-serif" font-size="14" lengthAdjust="spacing" textLength="164" x="1802.5" y="519.5339">timestamp_iso: INTEGER</text><text fill="#000000" font-family="sans-serif" font-size="14" lengthAdjust="spacing" textLength="142" x="1802.5" y="538.6018">hash_value: INTEGER</text><text fill="#000000" font-family="sans-serif" font-size="14" lengthAdjust="spacing" textLength="136" x="1802.5" y="557.6697">response: BOOLEAN</text><text fill="#000000" font-family="sans-serif" font-size="14" lengthAdjust="spacing" textLength="133" x="1802.5" y="576.7376">sender_id: INTEGER</text><text fill="#000000" font-family="sans-serif" font-size="14" lengthAdjust="spacing" textLength="180" x="1802.5" y="595.8055">software_version: INTEGER</text><text fill="#000000" font-family="sans-serif" font-size="14" lengthAdjust="spacing" textLength="129" x="1802.5" y="614.8734">device_id: INTEGER</text><line style="stroke:#000000;stroke-width:1.5;" x1="1797.5" x2="2114.5" y1="622.9754" y2="622.9754"/><!--MD5=[fb3432a072541efe8fac4324c27a681a]
class LocomotiveDiscoveryMessage - locomotive_discovery--><rect codeLine="107" fill="#FFFFFF" filter="url(#fl8ydmamfii53)" height="200.5433" id="LocomotiveDiscoveryMessage - locomotive_discovery" rx="5" ry="5" style="stroke:#000000;stroke-width:1.5;" width="385" x="2150.5" y="439.5"/><ellipse cx="2165.5" cy="455.5" fill="#ADD1B2" rx="11" ry="11" style="stroke:#A80036;stroke-width:1.0;"/><path d="M2164.9688,462.4219 Q2163.2188,462.4219 2162.0781,461.6875 Q2160.9531,460.9375 2160.3906,459.5938 Q2159.8438,458.2344 2159.8438,456.4375 Q2159.8438,454.4063 2160.5,452.9531 Q2161.1563,451.5 2162.4375,450.7188 Q2163.7188,449.9375 2165.5938,449.9375 Q2166.4844,449.9375 2167.1563,450.125 Q2167.8281,450.2969 2168.5156,450.6406 L2167.7031,452.6563 Q2167.0781,452.3438 2166.5313,452.2188 Q2166,452.0938 2165.5156,452.0938 Q2164.3438,452.0938 2163.6406,452.625 Q2162.9375,453.1563 2162.6406,454.1094 Q2162.3438,455.0625 2162.3438,456.3281 Q2162.3438,458.3438 2163.0625,459.3125 Q2163.7813,460.2656 2165.375,460.2656 Q2165.9688,460.2656 2166.5938,460.1094 Q2167.2188,459.9531 2168.0469,459.5781 L2168.0469,461.7969 Q2167.3125,462.1094 2166.5156,462.2656 Q2165.7344,462.4219 2164.9688,462.4219 Z " fill="#000000"/><text fill="#000000" font-family="sans-serif" font-size="14" lengthAdjust="spacing" textLength="353" x="2179.5" y="460.932">LocomotiveDiscoveryMessage - locomotive_discovery</text><line style="stroke:#000000;stroke-width:1.5;" x1="2151.5" x2="2534.5" y1="471.5" y2="471.5"/><text fill="#000000" font-family="sans-serif" font-size="14" lengthAdjust="spacing" textLength="149" x="2156.5" y="490.4659">timestamp: DATETIME</text><text fill="#000000" font-family="sans-serif" font-size="14" lengthAdjust="spacing" textLength="164" x="2156.5" y="509.5339">timestamp_iso: INTEGER</text><text fill="#000000" font-family="sans-serif" font-size="14" lengthAdjust="spacing" textLength="142" x="2156.5" y="528.6018">hash_value: INTEGER</text><text fill="#000000" font-family="sans-serif" font-size="14" lengthAdjust="spacing" textLength="136" x="2156.5" y="547.6697">response: BOOLEAN</text><text fill="#000000" font-family="sans-serif" font-size="14" lengthAdjust="spacing" textLength="105" x="2156.5" y="566.7376">loc_id: INTEGER</text><text fill="#000000" font-family="sans-serif" font-size="14" lengthAdjust="spacing" textLength="95" x="2156.5" y="585.8055">protocol: TEXT</text><text fill="#000000" font-family="sans-serif" font-size="14" lengthAdjust="spacing" textLength="138" x="2156.5" y="604.8734">mfx_range: INTEGER</text><text fill="#000000" font-family="sans-serif" font-size="14" lengthAdjust="spacing" textLength="126" x="2156.5" y="623.9414">ask_ratio: INTEGER</text><line style="stroke:#000000;stroke-width:1.5;" x1="2151.5" x2="2534.5" y1="632.0433" y2="632.0433"/><!--MD5=[a12dba8ed2c1961f94269dca95c93c00]
class S88EventMessage - s88_event--><rect codeLine="118" fill="#FFFFFF" filter="url(#fl8ydmamfii53)" height="219.6113" id="S88EventMessage - s88_event" rx="5" ry="5" style="stroke:#000000;stroke-width:1.5;" width="232" x="2571" y="430"/><ellipse cx="2586" cy="446" fill="#ADD1B2" rx="11" ry="11" style="stroke:#A80036;stroke-width:1.0;"/><path d="M2585.4688,452.9219 Q2583.7188,452.9219 2582.5781,452.1875 Q2581.4531,451.4375 2580.8906,450.0938 Q2580.3438,448.7344 2580.3438,446.9375 Q2580.3438,444.9063 2581,443.4531 Q2581.6563,442 2582.9375,441.2188 Q2584.2188,440.4375 2586.0938,440.4375 Q2586.9844,440.4375 2587.6563,440.625 Q2588.3281,440.7969 2589.0156,441.1406 L2588.2031,443.1563 Q2587.5781,442.8438 2587.0313,442.7188 Q2586.5,442.5938 2586.0156,442.5938 Q2584.8438,442.5938 2584.1406,443.125 Q2583.4375,443.6563 2583.1406,444.6094 Q2582.8438,445.5625 2582.8438,446.8281 Q2582.8438,448.8438 2583.5625,449.8125 Q2584.2813,450.7656 2585.875,450.7656 Q2586.4688,450.7656 2587.0938,450.6094 Q2587.7188,450.4531 2588.5469,450.0781 L2588.5469,452.2969 Q2587.8125,452.6094 2587.0156,452.7656 Q2586.2344,452.9219 2585.4688,452.9219 Z " fill="#000000"/><text fill="#000000" font-family="sans-serif" font-size="14" lengthAdjust="spacing" textLength="200" x="2600" y="451.432">S88EventMessage - s88_event</text><line style="stroke:#000000;stroke-width:1.5;" x1="2572" x2="2802" y1="462" y2="462"/><text fill="#000000" font-family="sans-serif" font-size="14" lengthAdjust="spacing" textLength="149" x="2577" y="480.9659">timestamp: DATETIME</text><text fill="#000000" font-family="sans-serif" font-size="14" lengthAdjust="spacing" textLength="164" x="2577" y="500.0339">timestamp_iso: INTEGER</text><text fill="#000000" font-family="sans-serif" font-size="14" lengthAdjust="spacing" textLength="142" x="2577" y="519.1018">hash_value: INTEGER</text><text fill="#000000" font-family="sans-serif" font-size="14" lengthAdjust="spacing" textLength="136" x="2577" y="538.1697">response: BOOLEAN</text><text fill="#000000" font-family="sans-serif" font-size="14" lengthAdjust="spacing" textLength="129" x="2577" y="557.2376">device_id: INTEGER</text><text fill="#000000" font-family="sans-serif" font-size="14" lengthAdjust="spacing" textLength="135" x="2577" y="576.3055">contact_id: INTEGER</text><text fill="#000000" font-family="sans-serif" font-size="14" lengthAdjust="spacing" textLength="127" x="2577" y="595.3734">state_old: INTEGER</text><text fill="#000000" font-family="sans-serif" font-size="14" lengthAdjust="spacing" textLength="134" x="2577" y="614.4414">state_new: INTEGER</text><text fill="#000000" font-family="sans-serif" font-size="14" lengthAdjust="spacing" textLength="97" x="2577" y="633.5093">time: INTEGER</text><line style="stroke:#000000;stroke-width:1.5;" x1="2572" x2="2802" y1="641.6113" y2="641.6113"/><!--MD5=[a431c4698e882f1dfe42ed69dd6e9c8b]
class ServiceStatusDataConfigurationMessage - service_status_data_configuration--><rect codeLine="130" fill="#FFFFFF" filter="url(#fl8ydmamfii53)" height="200.5433" id="ServiceStatusDataConfigurationMessage - service_status_data_configuration" rx="5" ry="5" style="stroke:#000000;stroke-width:1.5;" width="546" x="2838" y="439.5"/><ellipse cx="2853" cy="455.5" fill="#ADD1B2" rx="11" ry="11" style="stroke:#A80036;stroke-width:1.0;"/><path d="M2852.4688,462.4219 Q2850.7188,462.4219 2849.5781,461.6875 Q2848.4531,460.9375 2847.8906,459.5938 Q2847.3438,458.2344 2847.3438,456.4375 Q2847.3438,454.4063 2848,452.9531 Q2848.6563,451.5 2849.9375,450.7188 Q2851.2188,449.9375 2853.0938,449.9375 Q2853.9844,449.9375 2854.6563,450.125 Q2855.3281,450.2969 2856.0156,450.6406 L2855.2031,452.6563 Q2854.5781,452.3438 2854.0313,452.2188 Q2853.5,452.0938 2853.0156,452.0938 Q2851.8438,452.0938 2851.1406,452.625 Q2850.4375,453.1563 2850.1406,454.1094 Q2849.8438,455.0625 2849.8438,456.3281 Q2849.8438,458.3438 2850.5625,459.3125 Q2851.2813,460.2656 2852.875,460.2656 Q2853.4688,460.2656 2854.0938,460.1094 Q2854.7188,459.9531 2855.5469,459.5781 L2855.5469,461.7969 Q2854.8125,462.1094 2854.0156,462.2656 Q2853.2344,462.4219 2852.4688,462.4219 Z " fill="#000000"/><text fill="#000000" font-family="sans-serif" font-size="14" lengthAdjust="spacing" textLength="514" x="2867" y="460.932">ServiceStatusDataConfigurationMessage - service_status_data_configuration</text><line style="stroke:#000000;stroke-width:1.5;" x1="2839" x2="3383" y1="471.5" y2="471.5"/><text fill="#000000" font-family="sans-serif" font-size="14" lengthAdjust="spacing" textLength="149" x="2844" y="490.4659">timestamp: DATETIME</text><text fill="#000000" font-family="sans-serif" font-size="14" lengthAdjust="spacing" textLength="164" x="2844" y="509.5339">timestamp_iso: INTEGER</text><text fill="#000000" font-family="sans-serif" font-size="14" lengthAdjust="spacing" textLength="142" x="2844" y="528.6018">hash_value: INTEGER</text><text fill="#000000" font-family="sans-serif" font-size="14" lengthAdjust="spacing" textLength="136" x="2844" y="547.6697">response: BOOLEAN</text><text fill="#000000" font-family="sans-serif" font-size="14" lengthAdjust="spacing" textLength="129" x="2844" y="566.7376">device_id: INTEGER</text><text fill="#000000" font-family="sans-serif" font-size="14" lengthAdjust="spacing" textLength="104" x="2844" y="585.8055">index: INTEGER</text><text fill="#000000" font-family="sans-serif" font-size="14" lengthAdjust="spacing" textLength="105" x="2844" y="604.8734">count: INTEGER</text><text fill="#000000" font-family="sans-serif" font-size="14" lengthAdjust="spacing" textLength="70" x="2844" y="623.9414">data: TEXT</text><line style="stroke:#000000;stroke-width:1.5;" x1="2839" x2="3383" y1="632.0433" y2="632.0433"/><!--MD5=[8b77f2a11e982ae8a8d1db4a3ca6472c]
class BootloaderCANBoundMessage - bootloader_can_bound--><rect codeLine="141" fill="#FFFFFF" filter="url(#fl8ydmamfii53)" height="143.3396" id="BootloaderCANBoundMessage - bootloader_can_bound" rx="5" ry="5" style="stroke:#000000;stroke-width:1.5;" width="404" x="3419" y="468.5"/><ellipse cx="3434" cy="484.5" fill="#ADD1B2" rx="11" ry="11" style="stroke:#A80036;stroke-width:1.0;"/><path d="M3433.4688,491.4219 Q3431.7188,491.4219 3430.5781,490.6875 Q3429.4531,489.9375 3428.8906,488.5938 Q3428.3438,487.2344 3428.3438,485.4375 Q3428.3438,483.4063 3429,481.9531 Q3429.6563,480.5 3430.9375,479.7188 Q3432.2188,478.9375 3434.0938,478.9375 Q3434.9844,478.9375 3435.6563,479.125 Q3436.3281,479.2969 3437.0156,479.6406 L3436.2031,481.6563 Q3435.5781,481.3438 3435.0313,481.2188 Q3434.5,481.0938 3434.0156,481.0938 Q3432.8438,481.0938 3432.1406,481.625 Q3431.4375,482.1563 3431.1406,483.1094 Q3430.8438,484.0625 3430.8438,485.3281 Q3430.8438,487.3438 3431.5625,488.3125 Q3432.2813,489.2656 3433.875,489.2656 Q3434.4688,489.2656 3435.0938,489.1094 Q3435.7188,488.9531 3436.5469,488.5781 L3436.5469,490.7969 Q3435.8125,491.1094 3435.0156,491.2656 Q3434.2344,491.4219 3433.4688,491.4219 Z " fill="#000000"/><text fill="#000000" font-family="sans-serif" font-size="14" lengthAdjust="spacing" textLength="372" x="3448" y="489.932">BootloaderCANBoundMessage - bootloader_can_bound</text><line style="stroke:#000000;stroke-width:1.5;" x1="3420" x2="3822" y1="500.5" y2="500.5"/><text fill="#000000" font-family="sans-serif" font-size="14" lengthAdjust="spacing" textLength="149" x="3425" y="519.4659">timestamp: DATETIME</text><text fill="#000000" font-family="sans-serif" font-size="14" lengthAdjust="spacing" textLength="164" x="3425" y="538.5339">timestamp_iso: INTEGER</text><text fill="#000000" font-family="sans-serif" font-size="14" lengthAdjust="spacing" textLength="142" x="3425" y="557.6018">hash_value: INTEGER</text><text fill="#000000" font-family="sans-serif" font-size="14" lengthAdjust="spacing" textLength="136" x="3425" y="576.6697">response: BOOLEAN</text><text fill="#000000" font-family="sans-serif" font-size="14" lengthAdjust="spacing" textLength="70" x="3425" y="595.7376">data: TEXT</text><line style="stroke:#000000;stroke-width:1.5;" x1="3420" x2="3822" y1="603.8396" y2="603.8396"/><!--MD5=[b7bd7b1eb059282bb7162de165c5a835]
class AbstractMfxMessage--><rect codeLine="151" fill="#FFFFFF" filter="url(#fl8ydmamfii53)" height="48" id="AbstractMfxMessage" rx="5" ry="5" style="stroke:#000000;stroke-width:1.5;" width="161" x="3858.5" y="516"/><ellipse cx="3873.5" cy="532" fill="#A9DCDF" rx="11" ry="11" style="stroke:#A80036;stroke-width:1.0;"/><path d="M3868.6719,537.75 L3872.0156,525.5625 L3875.1563,525.5625 L3878.5313,537.75 L3876.0625,537.75 L3875.3281,534.7344 L3871.8125,534.7344 L3871.0625,537.75 L3868.6719,537.75 Z M3873.0781,529.7031 L3872.3281,532.7031 L3874.8438,532.7031 L3874.125,529.7031 Q3873.9844,529.125 3873.8594,528.5781 Q3873.7344,528.0156 3873.5938,527.4375 Q3873.4844,528.0156 3873.3438,528.5781 Q3873.2031,529.125 3873.0781,529.7031 Z " fill="#000000"/><text fill="#000000" font-family="sans-serif" font-size="14" font-style="italic" lengthAdjust="spacing" textLength="129" x="3887.5" y="537.432">AbstractMfxMessage</text><line style="stroke:#000000;stroke-width:1.5;" x1="3859.5" x2="4018.5" y1="548" y2="548"/><line style="stroke:#000000;stroke-width:1.5;" x1="3859.5" x2="4018.5" y1="556" y2="556"/><!--MD5=[9d2f3624f5c752fce32843dd56c48e4f]
reverse link AbstractCANMessage to AbstractLocomotiveMessage--><path codeLine="20" d="M1663.98,94 C1663.98,94 112,94 112,94 C112,94 112,422.63 112,515.7 " fill="none" id="AbstractCANMessage-backto-AbstractLocomotiveMessage" style="stroke:#000000;stroke-width:2.0;"/><polygon fill="none" points="1663.98,87,1683.98,94,1663.98,101,1663.98,87" style="stroke:#000000;stroke-width:2.0;"/><!--MD5=[14b3a706b043c8b9ab332fc6ac775723]
reverse link AbstractCANMessage to AbstractSystemMessage--><path codeLine="24" d="M1663.86,103 C1663.86,103 343,103 343,103 C343,103 343,424.27 343,515.88 " fill="none" id="AbstractCANMessage-backto-AbstractSystemMessage" style="stroke:#000000;stroke-width:2.0;"/><polygon fill="none" points="1663.86,96,1683.86,103,1663.86,110,1663.86,96" style="stroke:#000000;stroke-width:2.0;"/><!--MD5=[c7a9ef824b42cbcdf2442229349b0f2b]
reverse link AbstractCANMessage to ConfigMessage - config--><path codeLine="33" d="M1663.92,113 C1663.92,113 565,113 565,113 C565,113 565,335.09 565,458.93 " fill="none" id="AbstractCANMessage-backto-ConfigMessage - config" style="stroke:#000000;stroke-width:2.0;"/><polygon fill="none" points="1663.92,106,1683.92,113,1663.92,120,1663.92,106" style="stroke:#000000;stroke-width:2.0;"/><!--MD5=[921edd18d6ea0022173e99501acf381c]
reverse link AbstractCANMessage to ConfigUsageMessage - config_usage--><path codeLine="59" d="M1663.88,122 C1663.88,122 836,122 836,122 C836,122 836,271.55 836,391.75 " fill="none" id="AbstractCANMessage-backto-ConfigUsageMessage - config_usage" style="stroke:#000000;stroke-width:2.0;"/><polygon fill="none" points="1663.88,115,1683.88,122,1663.88,129,1663.88,115" style="stroke:#000000;stroke-width:2.0;"/><!--MD5=[278cc06e0b83577cfe4c28b3264103ef]
reverse link AbstractCANMessage to ConfigLocomotiveMessage - config_locomotive--><path codeLine="88" d="M1709.83,151.54 C1709.83,151.54 1709.83,349 1709.83,349 C1709.83,349 1508.83,349 1355.14,349 " fill="none" id="AbstractCANMessage-backto-ConfigLocomotiveMessage - config_locomotive" style="stroke:#000000;stroke-width:2.0;"/><polygon fill="none" points="1702.83,151.54,1709.83,131.54,1716.83,151.54,1702.83,151.54" style="stroke:#000000;stroke-width:2.0;"/><!--MD5=[82835dc3a33e3de031c5b0fd337417cd]
reverse link AbstractCANMessage to RequestConfigDataMessage - request_config_data--><path codeLine="96" d="M1735.67,151.68 C1735.67,151.68 1735.67,468.27 1735.67,468.27 " fill="none" id="AbstractCANMessage-backto-RequestConfigDataMessage - request_config_data" style="stroke:#000000;stroke-width:2.0;"/><polygon fill="none" points="1728.67,151.68,1735.67,131.68,1742.67,151.68,1728.67,151.68" style="stroke:#000000;stroke-width:2.0;"/><!--MD5=[ae9852dd10d31ca1b7790a79f022c3ea]
reverse link AbstractCANMessage to ParticipantPingMessage - participant_ping--><path codeLine="106" d="M1803.86,151.68 C1803.86,151.68 1803.86,449.16 1803.86,449.16 " fill="none" id="AbstractCANMessage-backto-ParticipantPingMessage - participant_ping" style="stroke:#000000;stroke-width:2.0;"/><polygon fill="none" points="1796.86,151.68,1803.86,131.68,1810.86,151.68,1796.86,151.68" style="stroke:#000000;stroke-width:2.0;"/><!--MD5=[f24ad32c767f0a3c34cfd2017b4bd420]
reverse link AbstractCANMessage to LocomotiveDiscoveryMessage - locomotive_discovery--><path codeLine="117" d="M1811.21,151.5 C1811.21,151.5 1811.21,445 1811.21,445 C1811.21,445 1998.07,445 2150.26,445 " fill="none" id="AbstractCANMessage-backto-LocomotiveDiscoveryMessage - locomotive_discovery" style="stroke:#000000;stroke-width:2.0;"/><polygon fill="none" points="1804.21,151.5,1811.21,131.5,1818.21,151.5,1804.21,151.5" style="stroke:#000000;stroke-width:2.0;"/><!--MD5=[8fb8f0689d0fcfbcb8ac728df13de588]
reverse link AbstractCANMessage to S88EventMessage - s88_event--><path codeLine="129" d="M1818.57,151.58 C1818.57,151.58 1818.57,435 1818.57,435 C1818.57,435 2334.14,435 2570.78,435 " fill="none" id="AbstractCANMessage-backto-S88EventMessage - s88_event" style="stroke:#000000;stroke-width:2.0;"/><polygon fill="none" points="1811.57,151.58,1818.57,131.58,1825.57,151.58,1811.57,151.58" style="stroke:#000000;stroke-width:2.0;"/><!--MD5=[9abc6cec96e89e50cd6e6109ffe376cc]
reverse link AbstractCANMessage to ServiceStatusDataConfigurationMessage - service_status_data_configuration--><path codeLine="140" d="M1825.93,151.53 C1825.93,151.53 1825.93,253 1825.93,253 C1825.93,253 3111,253 3111,253 C3111,253 3111,356.52 3111,439.22 " fill="none" id="AbstractCANMessage-backto-ServiceStatusDataConfigurationMessage - service_status_data_configuration" style="stroke:#000000;stroke-width:2.0;"/><polygon fill="none" points="1818.93,151.53,1825.93,131.53,1832.93,151.53,1818.93,151.53" style="stroke:#000000;stroke-width:2.0;"/><!--MD5=[97458104a07588da703c6ef999c92c63]
reverse link AbstractCANMessage to BootloaderCANBoundMessage - bootloader_can_bound--><path codeLine="148" d="M1833.29,151.74 C1833.29,151.74 1833.29,238 1833.29,238 C1833.29,238 3621,238 3621,238 C3621,238 3621,379.12 3621,468.43 " fill="none" id="AbstractCANMessage-backto-BootloaderCANBoundMessage - bootloader_can_bound" style="stroke:#000000;stroke-width:2.0;"/><polygon fill="none" points="1826.29,151.74,1833.29,131.74,1840.29,151.74,1826.29,151.74" style="stroke:#000000;stroke-width:2.0;"/><!--MD5=[5db49cdcedfeba5203795b79e2d176d6]
reverse link AbstractCANMessage to AbstractMfxMessage--><path codeLine="152" d="M1840.64,151.71 C1840.64,151.71 1840.64,223 1840.64,223 C1840.64,223 3939,223 3939,223 C3939,223 3939,441.94 3939,515.91 " fill="none" id="AbstractCANMessage-backto-AbstractMfxMessage" style="stroke:#000000;stroke-width:2.0;"/><polygon fill="none" points="1833.64,151.71,1840.64,131.71,1847.64,151.71,1833.64,151.71" style="stroke:#000000;stroke-width:2.0;"/><!--MD5=[6183e335d9a091f05d0716f422579f55]
@startuml
skinparam useBetaStyle true
skinparam linetype ortho

<style>
    classDiagram{
        FontColor Black
        BackgroundColor White
        LineThickness 2
        LineColor Black
        RoundCorner 10
    }
</style>

class AbstractCANMessage {
}
abstract class AbstractCANMessage
class AbstractLocomotiveMessage {
}
abstract class AbstractLocomotiveMessage
AbstractCANMessage <|- - AbstractLocomotiveMessage
class AbstractSystemMessage {
}
abstract class AbstractSystemMessage
AbstractCANMessage <|- - AbstractSystemMessage
class "ConfigMessage - config" {
timestamp: DATETIME
timestamp_iso: INTEGER
hash_value: INTEGER
response: BOOLEAN
config: TEXT
length: INTEGER
}
AbstractCANMessage <|- - "ConfigMessage - config"
class "LocomotiveMetricMessage - locomotive_metrics" {
timestamp: DATETIME
timestamp_iso: INTEGER
mfxuid: INTEGER
loc_id: INTEGER
fuelA: INTEGER
fuelB: INTEGER
sand: INTEGER
distance: INTEGER
}
class "ConfigUsageMessage - config_usage" {
timestamp: DATETIME
timestamp_iso: INTEGER
hash_value: INTEGER
response: BOOLEAN
mfxuid: INTEGER
maxFuelA: INTEGER
maxFuelB: INTEGER
maxSand: INTEGER
faktorFuelA: INTEGER
fuelA: INTEGER
fuelB: INTEGER
sand: INTEGER
alter: INTEGER
}
AbstractCANMessage <|- - "ConfigUsageMessage - config_usage"
class "ConfigLocomotiveMessage - config_locomotive" {
timestamp: DATETIME
timestamp_iso: INTEGER
hash_value: INTEGER
response: BOOLEAN
name: TEXT
vorname: TEXT
uid: INTEGER
mfxuid: INTEGER
adresse: INTEGER
icon: TEXT
typ: TEXT
sid: INTEGER
symbol: INTEGER
tachomax: INTEGER
vmax: INTEGER
vmin: INTEGER
av: INTEGER
bv: INTEGER
volume: INTEGER
spa: INTEGER
spm: INTEGER
ft: INTEGER
velocity: INTEGER
richtung: INTEGER
mfxtyp: INTEGER
blocks: TEXT
}
AbstractCANMessage <|- - "ConfigLocomotiveMessage - config_locomotive"
class "RequestConfigDataMessage - request_config_data" {
timestamp: DATETIME
timestamp_iso: INTEGER
hash_value: INTEGER
response: BOOLEAN
filename: TEXT
}
AbstractCANMessage <|- - "RequestConfigDataMessage - request_config_data"
class "ParticipantPingMessage - participant_ping" {
timestamp: DATETIME
timestamp_iso: INTEGER
hash_value: INTEGER
response: BOOLEAN
sender_id: INTEGER
software_version: INTEGER
device_id: INTEGER
}
AbstractCANMessage <|- - "ParticipantPingMessage - participant_ping"
class "LocomotiveDiscoveryMessage - locomotive_discovery" {
timestamp: DATETIME
timestamp_iso: INTEGER
hash_value: INTEGER
response: BOOLEAN
loc_id: INTEGER
protocol: TEXT
mfx_range: INTEGER
ask_ratio: INTEGER
}
AbstractCANMessage <|- - "LocomotiveDiscoveryMessage - locomotive_discovery"
class "S88EventMessage - s88_event" {
timestamp: DATETIME
timestamp_iso: INTEGER
hash_value: INTEGER
response: BOOLEAN
device_id: INTEGER
contact_id: INTEGER
state_old: INTEGER
state_new: INTEGER
time: INTEGER
}
AbstractCANMessage <|- - "S88EventMessage - s88_event"
class "ServiceStatusDataConfigurationMessage - service_status_data_configuration" {
timestamp: DATETIME
timestamp_iso: INTEGER
hash_value: INTEGER
response: BOOLEAN
device_id: INTEGER
index: INTEGER
count: INTEGER
data: TEXT
}
AbstractCANMessage <|- - "ServiceStatusDataConfigurationMessage - service_status_data_configuration"
class "BootloaderCANBoundMessage - bootloader_can_bound" {
timestamp: DATETIME
timestamp_iso: INTEGER
hash_value: INTEGER
response: BOOLEAN
data: TEXT
}
AbstractCANMessage <|- - "BootloaderCANBoundMessage - bootloader_can_bound"
class AbstractMfxMessage {
}
abstract class AbstractMfxMessage
AbstractCANMessage <|- - AbstractMfxMessage
@enduml

PlantUML version 1.2021.16(Wed Dec 08 18:25:22 CET 2021)
(GPL source distribution)
Java Runtime: OpenJDK Runtime Environment
JVM: OpenJDK 64-Bit Server VM
Default Encoding: UTF-8
Language: en
Country: US
--></g></svg>