<?xml version="1.0" encoding="UTF-8" standalone="no"?><svg xmlns="http://www.w3.org/2000/svg" xmlns:xlink="http://www.w3.org/1999/xlink" contentScriptType="application/ecmascript" contentStyleType="text/css" height="494px" preserveAspectRatio="none" style="width:2507px;height:494px;background:#FFFFFF;" version="1.1" viewBox="0 0 2507 494" width="2507px" zoomAndPan="magnify"><defs><filter height="300%" id="f1j0a53snvla44" width="300%" x="-1" y="-1"><feGaussianBlur result="blurOut" stdDeviation="2.0"/><feColorMatrix in="blurOut" result="blurOut2" type="matrix" values="0 0 0 0 0 0 0 0 0 0 0 0 0 0 0 0 0 0 .4 0"/><feOffset dx="4.0" dy="4.0" in="blurOut2" result="blurOut3"/><feBlend in="SourceGraphic" in2="blurOut3" mode="normal"/></filter></defs><g><!--MD5=[0f7bc2b2700b8f1b8b0a0321832dd523]
class BaseModel--><rect codeLine="14" fill="#FFFFFF" filter="url(#f1j0a53snvla44)" height="48" id="BaseModel" rx="5" ry="5" style="stroke:#000000;stroke-width:1.5;" width="106" x="1477.5" y="7"/><ellipse cx="1492.5" cy="23" fill="#ADD1B2" rx="11" ry="11" style="stroke:#A80036;stroke-width:1.0;"/><path d="M1491.9688,29.9219 Q1490.2188,29.9219 1489.0781,29.1875 Q1487.9531,28.4375 1487.3906,27.0938 Q1486.8438,25.7344 1486.8438,23.9375 Q1486.8438,21.9063 1487.5,20.4531 Q1488.1563,19 1489.4375,18.2188 Q1490.7188,17.4375 1492.5938,17.4375 Q1493.4844,17.4375 1494.1563,17.625 Q1494.8281,17.7969 1495.5156,18.1406 L1494.7031,20.1563 Q1494.0781,19.8438 1493.5313,19.7188 Q1493,19.5938 1492.5156,19.5938 Q1491.3438,19.5938 1490.6406,20.125 Q1489.9375,20.6563 1489.6406,21.6094 Q1489.3438,22.5625 1489.3438,23.8281 Q1489.3438,25.8438 1490.0625,26.8125 Q1490.7813,27.7656 1492.375,27.7656 Q1492.9688,27.7656 1493.5938,27.6094 Q1494.2188,27.4531 1495.0469,27.0781 L1495.0469,29.2969 Q1494.3125,29.6094 1493.5156,29.7656 Q1492.7344,29.9219 1491.9688,29.9219 Z " fill="#000000"/><text fill="#000000" font-family="sans-serif" font-size="14" lengthAdjust="spacing" textLength="74" x="1506.5" y="28.432">BaseModel</text><line style="stroke:#000000;stroke-width:1.5;" x1="1478.5" x2="1582.5" y1="39" y2="39"/><line style="stroke:#000000;stroke-width:1.5;" x1="1478.5" x2="1582.5" y1="47" y2="47"/><!--MD5=[dab94714f3e9c56827fcd7ff6ba63286]
class AbstractCANMessage--><rect codeLine="20" fill="#FFFFFF" filter="url(#f1j0a53snvla44)" height="86.1358" id="AbstractCANMessage" rx="5" ry="5" style="stroke:#000000;stroke-width:1.5;" width="164" x="1081.5" y="124.5"/><ellipse cx="1096.5" cy="140.5" fill="#A9DCDF" rx="11" ry="11" style="stroke:#A80036;stroke-width:1.0;"/><path d="M1091.6719,146.25 L1095.0156,134.0625 L1098.1563,134.0625 L1101.5313,146.25 L1099.0625,146.25 L1098.3281,143.2344 L1094.8125,143.2344 L1094.0625,146.25 L1091.6719,146.25 Z M1096.0781,138.2031 L1095.3281,141.2031 L1097.8438,141.2031 L1097.125,138.2031 Q1096.9844,137.625 1096.8594,137.0781 Q1096.7344,136.5156 1096.5938,135.9375 Q1096.4844,136.5156 1096.3438,137.0781 Q1096.2031,137.625 1096.0781,138.2031 Z " fill="#000000"/><text fill="#000000" font-family="sans-serif" font-size="14" font-style="italic" lengthAdjust="spacing" textLength="132" x="1110.5" y="145.932">AbstractCANMessage</text><line style="stroke:#000000;stroke-width:1.5;" x1="1082.5" x2="1244.5" y1="156.5" y2="156.5"/><text fill="#000000" font-family="sans-serif" font-size="14" lengthAdjust="spacing" textLength="101" x="1087.5" y="175.4659">hash_value: int</text><text fill="#000000" font-family="sans-serif" font-size="14" lengthAdjust="spacing" textLength="99" x="1087.5" y="194.5339">response: bool</text><line style="stroke:#000000;stroke-width:1.5;" x1="1082.5" x2="1244.5" y1="202.6358" y2="202.6358"/><!--MD5=[7e2fffba582559b11639dd929d26a757]
class CANMessage--><rect codeLine="22" fill="#FFFFFF" filter="url(#f1j0a53snvla44)" height="86.1358" id="CANMessage" rx="5" ry="5" style="stroke:#000000;stroke-width:1.5;" width="222" x="1280.5" y="124.5"/><ellipse cx="1342.75" cy="140.5" fill="#ADD1B2" rx="11" ry="11" style="stroke:#A80036;stroke-width:1.0;"/><path d="M1342.2188,147.4219 Q1340.4688,147.4219 1339.3281,146.6875 Q1338.2031,145.9375 1337.6406,144.5938 Q1337.0938,143.2344 1337.0938,141.4375 Q1337.0938,139.4063 1337.75,137.9531 Q1338.4063,136.5 1339.6875,135.7188 Q1340.9688,134.9375 1342.8438,134.9375 Q1343.7344,134.9375 1344.4063,135.125 Q1345.0781,135.2969 1345.7656,135.6406 L1344.9531,137.6563 Q1344.3281,137.3438 1343.7813,137.2188 Q1343.25,137.0938 1342.7656,137.0938 Q1341.5938,137.0938 1340.8906,137.625 Q1340.1875,138.1563 1339.8906,139.1094 Q1339.5938,140.0625 1339.5938,141.3281 Q1339.5938,143.3438 1340.3125,144.3125 Q1341.0313,145.2656 1342.625,145.2656 Q1343.2188,145.2656 1343.8438,145.1094 Q1344.4688,144.9531 1345.2969,144.5781 L1345.2969,146.7969 Q1344.5625,147.1094 1343.7656,147.2656 Q1342.9844,147.4219 1342.2188,147.4219 Z " fill="#000000"/><text fill="#000000" font-family="sans-serif" font-size="14" lengthAdjust="spacing" textLength="89" x="1363.25" y="145.932">CANMessage</text><line style="stroke:#000000;stroke-width:1.5;" x1="1281.5" x2="1501.5" y1="156.5" y2="156.5"/><text fill="#000000" font-family="sans-serif" font-size="14" lengthAdjust="spacing" textLength="210" x="1286.5" y="175.4659">message_id: MessageIdentifier</text><text fill="#000000" font-family="sans-serif" font-size="14" lengthAdjust="spacing" textLength="56" x="1286.5" y="194.5339">data: str</text><line style="stroke:#000000;stroke-width:1.5;" x1="1281.5" x2="1501.5" y1="202.6358" y2="202.6358"/><!--MD5=[99d70f749ab1b015a79e4fc14cb87d50]
class AbstractLocIDCommand--><rect codeLine="32" fill="#FFFFFF" filter="url(#f1j0a53snvla44)" height="105.2038" id="AbstractLocIDCommand" rx="5" ry="5" style="stroke:#000000;stroke-width:1.5;" width="183" x="7" y="328"/><ellipse cx="22" cy="344" fill="#A9DCDF" rx="11" ry="11" style="stroke:#A80036;stroke-width:1.0;"/><path d="M17.1719,349.75 L20.5156,337.5625 L23.6563,337.5625 L27.0313,349.75 L24.5625,349.75 L23.8281,346.7344 L20.3125,346.7344 L19.5625,349.75 L17.1719,349.75 Z M21.5781,341.7031 L20.8281,344.7031 L23.3438,344.7031 L22.625,341.7031 Q22.4844,341.125 22.3594,340.5781 Q22.2344,340.0156 22.0938,339.4375 Q21.9844,340.0156 21.8438,340.5781 Q21.7031,341.125 21.5781,341.7031 Z " fill="#000000"/><text fill="#000000" font-family="sans-serif" font-size="14" font-style="italic" lengthAdjust="spacing" textLength="151" x="36" y="349.432">AbstractLocIDCommand</text><line style="stroke:#000000;stroke-width:1.5;" x1="8" x2="189" y1="360" y2="360"/><text fill="#000000" font-family="sans-serif" font-size="14" lengthAdjust="spacing" textLength="101" x="13" y="378.9659">hash_value: int</text><text fill="#000000" font-family="sans-serif" font-size="14" lengthAdjust="spacing" textLength="99" x="13" y="398.0339">response: bool</text><text fill="#000000" font-family="sans-serif" font-size="14" lengthAdjust="spacing" textLength="64" x="13" y="417.1018">loc_id: int</text><line style="stroke:#000000;stroke-width:1.5;" x1="8" x2="189" y1="425.2038" y2="425.2038"/><!--MD5=[a357793e7ad2066bd48bf012e6322f5a]
class WriteConfigControlByte--><rect codeLine="34" fill="#FFFFFF" filter="url(#f1j0a53snvla44)" height="105.2038" id="WriteConfigControlByte" rx="5" ry="5" style="stroke:#000000;stroke-width:1.5;" width="264" x="1537.5" y="115"/><ellipse cx="1586.25" cy="131" fill="#ADD1B2" rx="11" ry="11" style="stroke:#A80036;stroke-width:1.0;"/><path d="M1585.7188,137.9219 Q1583.9688,137.9219 1582.8281,137.1875 Q1581.7031,136.4375 1581.1406,135.0938 Q1580.5938,133.7344 1580.5938,131.9375 Q1580.5938,129.9063 1581.25,128.4531 Q1581.9063,127 1583.1875,126.2188 Q1584.4688,125.4375 1586.3438,125.4375 Q1587.2344,125.4375 1587.9063,125.625 Q1588.5781,125.7969 1589.2656,126.1406 L1588.4531,128.1563 Q1587.8281,127.8438 1587.2813,127.7188 Q1586.75,127.5938 1586.2656,127.5938 Q1585.0938,127.5938 1584.3906,128.125 Q1583.6875,128.6563 1583.3906,129.6094 Q1583.0938,130.5625 1583.0938,131.8281 Q1583.0938,133.8438 1583.8125,134.8125 Q1584.5313,135.7656 1586.125,135.7656 Q1586.7188,135.7656 1587.3438,135.6094 Q1587.9688,135.4531 1588.7969,135.0781 L1588.7969,137.2969 Q1588.0625,137.6094 1587.2656,137.7656 Q1586.4844,137.9219 1585.7188,137.9219 Z " fill="#000000"/><text fill="#000000" font-family="sans-serif" font-size="14" lengthAdjust="spacing" textLength="158" x="1606.75" y="136.432">WriteConfigControlByte</text><line style="stroke:#000000;stroke-width:1.5;" x1="1538.5" x2="1800.5" y1="147" y2="147"/><text fill="#000000" font-family="sans-serif" font-size="14" lengthAdjust="spacing" textLength="88" x="1543.5" y="165.9659">is_main: bool</text><text fill="#000000" font-family="sans-serif" font-size="14" lengthAdjust="spacing" textLength="124" x="1543.5" y="185.0339">is_multi_byte: bool</text><text fill="#000000" font-family="sans-serif" font-size="14" lengthAdjust="spacing" textLength="252" x="1543.5" y="204.1018">dcc_programming: DCCProgramming</text><line style="stroke:#000000;stroke-width:1.5;" x1="1538.5" x2="1800.5" y1="212.2038" y2="212.2038"/><!--MD5=[09c6c7f22e86d0d5b36b943cdb6a422a]
class WriteConfigResultByte--><rect codeLine="40" fill="#FFFFFF" filter="url(#f1j0a53snvla44)" height="86.1358" id="WriteConfigResultByte" rx="5" ry="5" style="stroke:#000000;stroke-width:1.5;" width="183" x="1837" y="124.5"/><ellipse cx="1852" cy="140.5" fill="#ADD1B2" rx="11" ry="11" style="stroke:#A80036;stroke-width:1.0;"/><path d="M1851.4688,147.4219 Q1849.7188,147.4219 1848.5781,146.6875 Q1847.4531,145.9375 1846.8906,144.5938 Q1846.3438,143.2344 1846.3438,141.4375 Q1846.3438,139.4063 1847,137.9531 Q1847.6563,136.5 1848.9375,135.7188 Q1850.2188,134.9375 1852.0938,134.9375 Q1852.9844,134.9375 1853.6563,135.125 Q1854.3281,135.2969 1855.0156,135.6406 L1854.2031,137.6563 Q1853.5781,137.3438 1853.0313,137.2188 Q1852.5,137.0938 1852.0156,137.0938 Q1850.8438,137.0938 1850.1406,137.625 Q1849.4375,138.1563 1849.1406,139.1094 Q1848.8438,140.0625 1848.8438,141.3281 Q1848.8438,143.3438 1849.5625,144.3125 Q1850.2813,145.2656 1851.875,145.2656 Q1852.4688,145.2656 1853.0938,145.1094 Q1853.7188,144.9531 1854.5469,144.5781 L1854.5469,146.7969 Q1853.8125,147.1094 1853.0156,147.2656 Q1852.2344,147.4219 1851.4688,147.4219 Z " fill="#000000"/><text fill="#000000" font-family="sans-serif" font-size="14" lengthAdjust="spacing" textLength="151" x="1866" y="145.932">WriteConfigResultByte</text><line style="stroke:#000000;stroke-width:1.5;" x1="1838" x2="2019" y1="156.5" y2="156.5"/><text fill="#000000" font-family="sans-serif" font-size="14" lengthAdjust="spacing" textLength="164" x="1843" y="175.4659">is_write_successful: bool</text><text fill="#000000" font-family="sans-serif" font-size="14" lengthAdjust="spacing" textLength="167" x="1843" y="194.5339">is_verify_successful: bool</text><line style="stroke:#000000;stroke-width:1.5;" x1="1838" x2="2019" y1="202.6358" y2="202.6358"/><!--MD5=[47dc0bd163a720d7b6918333282f0ad2]
class AbstractSystemCommand--><rect codeLine="50" fill="#FFFFFF" filter="url(#f1j0a53snvla44)" height="105.2038" id="AbstractSystemCommand" rx="5" ry="5" style="stroke:#000000;stroke-width:1.5;" width="192" x="225.5" y="328"/><ellipse cx="240.5" cy="344" fill="#A9DCDF" rx="11" ry="11" style="stroke:#A80036;stroke-width:1.0;"/><path d="M235.6719,349.75 L239.0156,337.5625 L242.1563,337.5625 L245.5313,349.75 L243.0625,349.75 L242.3281,346.7344 L238.8125,346.7344 L238.0625,349.75 L235.6719,349.75 Z M240.0781,341.7031 L239.3281,344.7031 L241.8438,344.7031 L241.125,341.7031 Q240.9844,341.125 240.8594,340.5781 Q240.7344,340.0156 240.5938,339.4375 Q240.4844,340.0156 240.3438,340.5781 Q240.2031,341.125 240.0781,341.7031 Z " fill="#000000"/><text fill="#000000" font-family="sans-serif" font-size="14" font-style="italic" lengthAdjust="spacing" textLength="160" x="254.5" y="349.432">AbstractSystemCommand</text><line style="stroke:#000000;stroke-width:1.5;" x1="226.5" x2="416.5" y1="360" y2="360"/><text fill="#000000" font-family="sans-serif" font-size="14" lengthAdjust="spacing" textLength="101" x="231.5" y="378.9659">hash_value: int</text><text fill="#000000" font-family="sans-serif" font-size="14" lengthAdjust="spacing" textLength="99" x="231.5" y="398.0339">response: bool</text><text fill="#000000" font-family="sans-serif" font-size="14" lengthAdjust="spacing" textLength="39" x="231.5" y="417.1018">id: int</text><line style="stroke:#000000;stroke-width:1.5;" x1="226.5" x2="416.5" y1="425.2038" y2="425.2038"/><!--MD5=[aa6debfd97bceb6e574855bb9b146c3c]
class ParticipantPingCommand--><rect codeLine="52" fill="#FFFFFF" filter="url(#f1j0a53snvla44)" height="143.3396" id="ParticipantPingCommand" rx="5" ry="5" style="stroke:#000000;stroke-width:1.5;" width="204" x="452.5" y="309"/><ellipse cx="467.5" cy="325" fill="#ADD1B2" rx="11" ry="11" style="stroke:#A80036;stroke-width:1.0;"/><path d="M466.9688,331.9219 Q465.2188,331.9219 464.0781,331.1875 Q462.9531,330.4375 462.3906,329.0938 Q461.8438,327.7344 461.8438,325.9375 Q461.8438,323.9063 462.5,322.4531 Q463.1563,321 464.4375,320.2188 Q465.7188,319.4375 467.5938,319.4375 Q468.4844,319.4375 469.1563,319.625 Q469.8281,319.7969 470.5156,320.1406 L469.7031,322.1563 Q469.0781,321.8438 468.5313,321.7188 Q468,321.5938 467.5156,321.5938 Q466.3438,321.5938 465.6406,322.125 Q464.9375,322.6563 464.6406,323.6094 Q464.3438,324.5625 464.3438,325.8281 Q464.3438,327.8438 465.0625,328.8125 Q465.7813,329.7656 467.375,329.7656 Q467.9688,329.7656 468.5938,329.6094 Q469.2188,329.4531 470.0469,329.0781 L470.0469,331.2969 Q469.3125,331.6094 468.5156,331.7656 Q467.7344,331.9219 466.9688,331.9219 Z " fill="#000000"/><text fill="#000000" font-family="sans-serif" font-size="14" lengthAdjust="spacing" textLength="172" x="481.5" y="330.432">ParticipantPingCommand</text><line style="stroke:#000000;stroke-width:1.5;" x1="453.5" x2="655.5" y1="341" y2="341"/><text fill="#000000" font-family="sans-serif" font-size="14" lengthAdjust="spacing" textLength="101" x="458.5" y="359.9659">hash_value: int</text><text fill="#000000" font-family="sans-serif" font-size="14" lengthAdjust="spacing" textLength="99" x="458.5" y="379.0339">response: bool</text><text fill="#000000" font-family="sans-serif" font-size="14" lengthAdjust="spacing" textLength="92" x="458.5" y="398.1018">sender_id: int</text><text fill="#000000" font-family="sans-serif" font-size="14" lengthAdjust="spacing" textLength="139" x="458.5" y="417.1697">software_version: int</text><text fill="#000000" font-family="sans-serif" font-size="14" lengthAdjust="spacing" textLength="88" x="458.5" y="436.2376">device_id: int</text><line style="stroke:#000000;stroke-width:1.5;" x1="453.5" x2="655.5" y1="444.3396" y2="444.3396"/><!--MD5=[afa66d68f3953b39081404c982051225]
class LocomotiveDiscoveryCommand--><rect codeLine="60" fill="#FFFFFF" filter="url(#f1j0a53snvla44)" height="162.4075" id="LocomotiveDiscoveryCommand" rx="5" ry="5" style="stroke:#000000;stroke-width:1.5;" width="240" x="691.5" y="299.5"/><ellipse cx="706.5" cy="315.5" fill="#ADD1B2" rx="11" ry="11" style="stroke:#A80036;stroke-width:1.0;"/><path d="M705.9688,322.4219 Q704.2188,322.4219 703.0781,321.6875 Q701.9531,320.9375 701.3906,319.5938 Q700.8438,318.2344 700.8438,316.4375 Q700.8438,314.4063 701.5,312.9531 Q702.1563,311.5 703.4375,310.7188 Q704.7188,309.9375 706.5938,309.9375 Q707.4844,309.9375 708.1563,310.125 Q708.8281,310.2969 709.5156,310.6406 L708.7031,312.6563 Q708.0781,312.3438 707.5313,312.2188 Q707,312.0938 706.5156,312.0938 Q705.3438,312.0938 704.6406,312.625 Q703.9375,313.1563 703.6406,314.1094 Q703.3438,315.0625 703.3438,316.3281 Q703.3438,318.3438 704.0625,319.3125 Q704.7813,320.2656 706.375,320.2656 Q706.9688,320.2656 707.5938,320.1094 Q708.2188,319.9531 709.0469,319.5781 L709.0469,321.7969 Q708.3125,322.1094 707.5156,322.2656 Q706.7344,322.4219 705.9688,322.4219 Z " fill="#000000"/><text fill="#000000" font-family="sans-serif" font-size="14" lengthAdjust="spacing" textLength="208" x="720.5" y="320.932">LocomotiveDiscoveryCommand</text><line style="stroke:#000000;stroke-width:1.5;" x1="692.5" x2="930.5" y1="331.5" y2="331.5"/><text fill="#000000" font-family="sans-serif" font-size="14" lengthAdjust="spacing" textLength="101" x="697.5" y="350.4659">hash_value: int</text><text fill="#000000" font-family="sans-serif" font-size="14" lengthAdjust="spacing" textLength="99" x="697.5" y="369.5339">response: bool</text><text fill="#000000" font-family="sans-serif" font-size="14" lengthAdjust="spacing" textLength="64" x="697.5" y="388.6018">loc_id: int</text><text fill="#000000" font-family="sans-serif" font-size="14" lengthAdjust="spacing" textLength="170" x="697.5" y="407.6697">protocol: ProtocolSchema</text><text fill="#000000" font-family="sans-serif" font-size="14" lengthAdjust="spacing" textLength="97" x="697.5" y="426.7376">mfx_range: int</text><text fill="#000000" font-family="sans-serif" font-size="14" lengthAdjust="spacing" textLength="85" x="697.5" y="445.8055">ask_ratio: int</text><line style="stroke:#000000;stroke-width:1.5;" x1="692.5" x2="930.5" y1="453.9075" y2="453.9075"/><!--MD5=[138924c9bfcbdeac3af950c0327c83a2]
class S88EventCommand--><rect codeLine="69" fill="#FFFFFF" filter="url(#f1j0a53snvla44)" height="200.5433" id="S88EventCommand" rx="5" ry="5" style="stroke:#000000;stroke-width:1.5;" width="162" x="966.5" y="280"/><ellipse cx="981.5" cy="296" fill="#ADD1B2" rx="11" ry="11" style="stroke:#A80036;stroke-width:1.0;"/><path d="M980.9688,302.9219 Q979.2188,302.9219 978.0781,302.1875 Q976.9531,301.4375 976.3906,300.0938 Q975.8438,298.7344 975.8438,296.9375 Q975.8438,294.9063 976.5,293.4531 Q977.1563,292 978.4375,291.2188 Q979.7188,290.4375 981.5938,290.4375 Q982.4844,290.4375 983.1563,290.625 Q983.8281,290.7969 984.5156,291.1406 L983.7031,293.1563 Q983.0781,292.8438 982.5313,292.7188 Q982,292.5938 981.5156,292.5938 Q980.3438,292.5938 979.6406,293.125 Q978.9375,293.6563 978.6406,294.6094 Q978.3438,295.5625 978.3438,296.8281 Q978.3438,298.8438 979.0625,299.8125 Q979.7813,300.7656 981.375,300.7656 Q981.9688,300.7656 982.5938,300.6094 Q983.2188,300.4531 984.0469,300.0781 L984.0469,302.2969 Q983.3125,302.6094 982.5156,302.7656 Q981.7344,302.9219 980.9688,302.9219 Z " fill="#000000"/><text fill="#000000" font-family="sans-serif" font-size="14" lengthAdjust="spacing" textLength="130" x="995.5" y="301.432">S88EventCommand</text><line style="stroke:#000000;stroke-width:1.5;" x1="967.5" x2="1127.5" y1="312" y2="312"/><text fill="#000000" font-family="sans-serif" font-size="14" lengthAdjust="spacing" textLength="101" x="972.5" y="330.9659">hash_value: int</text><text fill="#000000" font-family="sans-serif" font-size="14" lengthAdjust="spacing" textLength="99" x="972.5" y="350.0339">response: bool</text><text fill="#000000" font-family="sans-serif" font-size="14" lengthAdjust="spacing" textLength="88" x="972.5" y="369.1018">device_id: int</text><text fill="#000000" font-family="sans-serif" font-size="14" lengthAdjust="spacing" textLength="94" x="972.5" y="388.1697">contact_id: int</text><text fill="#000000" font-family="sans-serif" font-size="14" lengthAdjust="spacing" textLength="97" x="972.5" y="407.2376">parameter: int</text><text fill="#000000" font-family="sans-serif" font-size="14" lengthAdjust="spacing" textLength="86" x="972.5" y="426.3055">state_old: int</text><text fill="#000000" font-family="sans-serif" font-size="14" lengthAdjust="spacing" textLength="93" x="972.5" y="445.3734">state_new: int</text><text fill="#000000" font-family="sans-serif" font-size="14" lengthAdjust="spacing" textLength="56" x="972.5" y="464.4414">time: int</text><line style="stroke:#000000;stroke-width:1.5;" x1="967.5" x2="1127.5" y1="472.5433" y2="472.5433"/><!--MD5=[e82aa419c412f0e18eff3fd4e5b89df3]
class RequestConfigDataCommand--><rect codeLine="80" fill="#FFFFFF" filter="url(#f1j0a53snvla44)" height="105.2038" id="RequestConfigDataCommand" rx="5" ry="5" style="stroke:#000000;stroke-width:1.5;" width="231" x="1164" y="328"/><ellipse cx="1179" cy="344" fill="#ADD1B2" rx="11" ry="11" style="stroke:#A80036;stroke-width:1.0;"/><path d="M1178.4688,350.9219 Q1176.7188,350.9219 1175.5781,350.1875 Q1174.4531,349.4375 1173.8906,348.0938 Q1173.3438,346.7344 1173.3438,344.9375 Q1173.3438,342.9063 1174,341.4531 Q1174.6563,340 1175.9375,339.2188 Q1177.2188,338.4375 1179.0938,338.4375 Q1179.9844,338.4375 1180.6563,338.625 Q1181.3281,338.7969 1182.0156,339.1406 L1181.2031,341.1563 Q1180.5781,340.8438 1180.0313,340.7188 Q1179.5,340.5938 1179.0156,340.5938 Q1177.8438,340.5938 1177.1406,341.125 Q1176.4375,341.6563 1176.1406,342.6094 Q1175.8438,343.5625 1175.8438,344.8281 Q1175.8438,346.8438 1176.5625,347.8125 Q1177.2813,348.7656 1178.875,348.7656 Q1179.4688,348.7656 1180.0938,348.6094 Q1180.7188,348.4531 1181.5469,348.0781 L1181.5469,350.2969 Q1180.8125,350.6094 1180.0156,350.7656 Q1179.2344,350.9219 1178.4688,350.9219 Z " fill="#000000"/><text fill="#000000" font-family="sans-serif" font-size="14" lengthAdjust="spacing" textLength="199" x="1193" y="349.432">RequestConfigDataCommand</text><line style="stroke:#000000;stroke-width:1.5;" x1="1165" x2="1394" y1="360" y2="360"/><text fill="#000000" font-family="sans-serif" font-size="14" lengthAdjust="spacing" textLength="101" x="1170" y="378.9659">hash_value: int</text><text fill="#000000" font-family="sans-serif" font-size="14" lengthAdjust="spacing" textLength="99" x="1170" y="398.0339">response: bool</text><text fill="#000000" font-family="sans-serif" font-size="14" lengthAdjust="spacing" textLength="85" x="1170" y="417.1018">filename: str</text><line style="stroke:#000000;stroke-width:1.5;" x1="1165" x2="1394" y1="425.2038" y2="425.2038"/><!--MD5=[bbe15fab058bee63048e4285ef264af6]
class ServiceStatusDataConfigurationCommand--><rect codeLine="86" fill="#FFFFFF" filter="url(#f1j0a53snvla44)" height="162.4075" id="ServiceStatusDataConfigurationCommand" rx="5" ry="5" style="stroke:#000000;stroke-width:1.5;" width="315" x="1430" y="299.5"/><ellipse cx="1445" cy="315.5" fill="#ADD1B2" rx="11" ry="11" style="stroke:#A80036;stroke-width:1.0;"/><path d="M1444.4688,322.4219 Q1442.7188,322.4219 1441.5781,321.6875 Q1440.4531,320.9375 1439.8906,319.5938 Q1439.3438,318.2344 1439.3438,316.4375 Q1439.3438,314.4063 1440,312.9531 Q1440.6563,311.5 1441.9375,310.7188 Q1443.2188,309.9375 1445.0938,309.9375 Q1445.9844,309.9375 1446.6563,310.125 Q1447.3281,310.2969 1448.0156,310.6406 L1447.2031,312.6563 Q1446.5781,312.3438 1446.0313,312.2188 Q1445.5,312.0938 1445.0156,312.0938 Q1443.8438,312.0938 1443.1406,312.625 Q1442.4375,313.1563 1442.1406,314.1094 Q1441.8438,315.0625 1441.8438,316.3281 Q1441.8438,318.3438 1442.5625,319.3125 Q1443.2813,320.2656 1444.875,320.2656 Q1445.4688,320.2656 1446.0938,320.1094 Q1446.7188,319.9531 1447.5469,319.5781 L1447.5469,321.7969 Q1446.8125,322.1094 1446.0156,322.2656 Q1445.2344,322.4219 1444.4688,322.4219 Z " fill="#000000"/><text fill="#000000" font-family="sans-serif" font-size="14" lengthAdjust="spacing" textLength="283" x="1459" y="320.932">ServiceStatusDataConfigurationCommand</text><line style="stroke:#000000;stroke-width:1.5;" x1="1431" x2="1744" y1="331.5" y2="331.5"/><text fill="#000000" font-family="sans-serif" font-size="14" lengthAdjust="spacing" textLength="101" x="1436" y="350.4659">hash_value: int</text><text fill="#000000" font-family="sans-serif" font-size="14" lengthAdjust="spacing" textLength="99" x="1436" y="369.5339">response: bool</text><text fill="#000000" font-family="sans-serif" font-size="14" lengthAdjust="spacing" textLength="88" x="1436" y="388.6018">device_id: int</text><text fill="#000000" font-family="sans-serif" font-size="14" lengthAdjust="spacing" textLength="63" x="1436" y="407.6697">index: int</text><text fill="#000000" font-family="sans-serif" font-size="14" lengthAdjust="spacing" textLength="64" x="1436" y="426.7376">count: int</text><text fill="#000000" font-family="sans-serif" font-size="14" lengthAdjust="spacing" textLength="56" x="1436" y="445.8055">data: str</text><line style="stroke:#000000;stroke-width:1.5;" x1="1431" x2="1744" y1="453.9075" y2="453.9075"/><!--MD5=[38b59eefe5336e4fa5585b93d66c0e02]
class ConfigDataStreamCommand--><rect codeLine="95" fill="#FFFFFF" filter="url(#f1j0a53snvla44)" height="162.4075" id="ConfigDataStreamCommand" rx="5" ry="5" style="stroke:#000000;stroke-width:1.5;" width="224" x="1780.5" y="299.5"/><ellipse cx="1795.5" cy="315.5" fill="#ADD1B2" rx="11" ry="11" style="stroke:#A80036;stroke-width:1.0;"/><path d="M1794.9688,322.4219 Q1793.2188,322.4219 1792.0781,321.6875 Q1790.9531,320.9375 1790.3906,319.5938 Q1789.8438,318.2344 1789.8438,316.4375 Q1789.8438,314.4063 1790.5,312.9531 Q1791.1563,311.5 1792.4375,310.7188 Q1793.7188,309.9375 1795.5938,309.9375 Q1796.4844,309.9375 1797.1563,310.125 Q1797.8281,310.2969 1798.5156,310.6406 L1797.7031,312.6563 Q1797.0781,312.3438 1796.5313,312.2188 Q1796,312.0938 1795.5156,312.0938 Q1794.3438,312.0938 1793.6406,312.625 Q1792.9375,313.1563 1792.6406,314.1094 Q1792.3438,315.0625 1792.3438,316.3281 Q1792.3438,318.3438 1793.0625,319.3125 Q1793.7813,320.2656 1795.375,320.2656 Q1795.9688,320.2656 1796.5938,320.1094 Q1797.2188,319.9531 1798.0469,319.5781 L1798.0469,321.7969 Q1797.3125,322.1094 1796.5156,322.2656 Q1795.7344,322.4219 1794.9688,322.4219 Z " fill="#000000"/><text fill="#000000" font-family="sans-serif" font-size="14" lengthAdjust="spacing" textLength="192" x="1809.5" y="320.932">ConfigDataStreamCommand</text><line style="stroke:#000000;stroke-width:1.5;" x1="1781.5" x2="2003.5" y1="331.5" y2="331.5"/><text fill="#000000" font-family="sans-serif" font-size="14" lengthAdjust="spacing" textLength="101" x="1786.5" y="350.4659">hash_value: int</text><text fill="#000000" font-family="sans-serif" font-size="14" lengthAdjust="spacing" textLength="99" x="1786.5" y="369.5339">response: bool</text><text fill="#000000" font-family="sans-serif" font-size="14" lengthAdjust="spacing" textLength="97" x="1786.5" y="388.6018">file_length: int</text><text fill="#000000" font-family="sans-serif" font-size="14" lengthAdjust="spacing" textLength="46" x="1786.5" y="407.6697">crc: int</text><text fill="#000000" font-family="sans-serif" font-size="14" lengthAdjust="spacing" textLength="63" x="1786.5" y="426.7376">byte6: int</text><text fill="#000000" font-family="sans-serif" font-size="14" lengthAdjust="spacing" textLength="56" x="1786.5" y="445.8055">data: str</text><line style="stroke:#000000;stroke-width:1.5;" x1="1781.5" x2="2003.5" y1="453.9075" y2="453.9075"/><!--MD5=[1c290703994e982cfca79a44c54c7a3d]
class BootloaderCANBoundCommand--><rect codeLine="104" fill="#FFFFFF" filter="url(#f1j0a53snvla44)" height="105.2038" id="BootloaderCANBoundCommand" rx="5" ry="5" style="stroke:#000000;stroke-width:1.5;" width="247" x="2040" y="328"/><ellipse cx="2055" cy="344" fill="#ADD1B2" rx="11" ry="11" style="stroke:#A80036;stroke-width:1.0;"/><path d="M2054.4688,350.9219 Q2052.7188,350.9219 2051.5781,350.1875 Q2050.4531,349.4375 2049.8906,348.0938 Q2049.3438,346.7344 2049.3438,344.9375 Q2049.3438,342.9063 2050,341.4531 Q2050.6563,340 2051.9375,339.2188 Q2053.2188,338.4375 2055.0938,338.4375 Q2055.9844,338.4375 2056.6563,338.625 Q2057.3281,338.7969 2058.0156,339.1406 L2057.2031,341.1563 Q2056.5781,340.8438 2056.0313,340.7188 Q2055.5,340.5938 2055.0156,340.5938 Q2053.8438,340.5938 2053.1406,341.125 Q2052.4375,341.6563 2052.1406,342.6094 Q2051.8438,343.5625 2051.8438,344.8281 Q2051.8438,346.8438 2052.5625,347.8125 Q2053.2813,348.7656 2054.875,348.7656 Q2055.4688,348.7656 2056.0938,348.6094 Q2056.7188,348.4531 2057.5469,348.0781 L2057.5469,350.2969 Q2056.8125,350.6094 2056.0156,350.7656 Q2055.2344,350.9219 2054.4688,350.9219 Z " fill="#000000"/><text fill="#000000" font-family="sans-serif" font-size="14" lengthAdjust="spacing" textLength="215" x="2069" y="349.432">BootloaderCANBoundCommand</text><line style="stroke:#000000;stroke-width:1.5;" x1="2041" x2="2286" y1="360" y2="360"/><text fill="#000000" font-family="sans-serif" font-size="14" lengthAdjust="spacing" textLength="101" x="2046" y="378.9659">hash_value: int</text><text fill="#000000" font-family="sans-serif" font-size="14" lengthAdjust="spacing" textLength="99" x="2046" y="398.0339">response: bool</text><text fill="#000000" font-family="sans-serif" font-size="14" lengthAdjust="spacing" textLength="56" x="2046" y="417.1018">data: str</text><line style="stroke:#000000;stroke-width:1.5;" x1="2041" x2="2286" y1="425.2038" y2="425.2038"/><!--MD5=[f64d1af2664f9db47f246b880c1f092f]
class AbstractMfxCommand--><rect codeLine="116" fill="#FFFFFF" filter="url(#f1j0a53snvla44)" height="124.2717" id="AbstractMfxCommand" rx="5" ry="5" style="stroke:#000000;stroke-width:1.5;" width="171" x="2322" y="318.5"/><ellipse cx="2337" cy="334.5" fill="#A9DCDF" rx="11" ry="11" style="stroke:#A80036;stroke-width:1.0;"/><path d="M2332.1719,340.25 L2335.5156,328.0625 L2338.6563,328.0625 L2342.0313,340.25 L2339.5625,340.25 L2338.8281,337.2344 L2335.3125,337.2344 L2334.5625,340.25 L2332.1719,340.25 Z M2336.5781,332.2031 L2335.8281,335.2031 L2338.3438,335.2031 L2337.625,332.2031 Q2337.4844,331.625 2337.3594,331.0781 Q2337.2344,330.5156 2337.0938,329.9375 Q2336.9844,330.5156 2336.8438,331.0781 Q2336.7031,331.625 2336.5781,332.2031 Z " fill="#000000"/><text fill="#000000" font-family="sans-serif" font-size="14" font-style="italic" lengthAdjust="spacing" textLength="139" x="2351" y="339.932">AbstractMfxCommand</text><line style="stroke:#000000;stroke-width:1.5;" x1="2323" x2="2492" y1="350.5" y2="350.5"/><text fill="#000000" font-family="sans-serif" font-size="14" lengthAdjust="spacing" textLength="101" x="2328" y="369.4659">hash_value: int</text><text fill="#000000" font-family="sans-serif" font-size="14" lengthAdjust="spacing" textLength="99" x="2328" y="388.5339">response: bool</text><text fill="#000000" font-family="sans-serif" font-size="14" lengthAdjust="spacing" textLength="79" x="2328" y="407.6018">mfx_uid: int</text><text fill="#000000" font-family="sans-serif" font-size="14" lengthAdjust="spacing" textLength="77" x="2328" y="426.6697">mfx_sid: int</text><line style="stroke:#000000;stroke-width:1.5;" x1="2323" x2="2492" y1="434.7717" y2="434.7717"/><!--MD5=[08cdb516d3d70bb5b90ea2cc558cce9b]
reverse link BaseModel to AbstractCANMessage--><path codeLine="21" d="M1457.14,31 C1457.14,31 1163.5,31 1163.5,31 C1163.5,31 1163.5,84.32 1163.5,124.31 " fill="none" id="BaseModel-backto-AbstractCANMessage" style="stroke:#000000;stroke-width:2.0;"/><polygon fill="none" points="1457.14,24,1477.14,31,1457.14,38,1457.14,24" style="stroke:#000000;stroke-width:2.0;"/><!--MD5=[85ed7c46c0b96e5b0c47d46d0cc9dc40]
reverse link BaseModel to CANMessage--><path codeLine="26" d="M1490,75.09 C1490,75.09 1490,124.35 1490,124.35 " fill="none" id="BaseModel-backto-CANMessage" style="stroke:#000000;stroke-width:2.0;"/><polygon fill="none" points="1483,75.09,1490,55.09,1497,75.09,1483,75.09" style="stroke:#000000;stroke-width:2.0;"/><!--MD5=[1da29c2da2ede1972ce5293fd9163843]
reverse link AbstractCANMessage to AbstractLocIDCommand--><path codeLine="33" d="M1061.26,142 C1061.26,142 98.5,142 98.5,142 C98.5,142 98.5,257.63 98.5,327.86 " fill="none" id="AbstractCANMessage-backto-AbstractLocIDCommand" style="stroke:#000000;stroke-width:2.0;"/><polygon fill="none" points="1061.26,135,1081.26,142,1061.26,149,1061.26,135" style="stroke:#000000;stroke-width:2.0;"/><!--MD5=[dd3724e3bdeb813ead72de833b89910c]
reverse link BaseModel to WriteConfigControlByte--><path codeLine="39" d="M1560.5,75.09 C1560.5,75.09 1560.5,114.8 1560.5,114.8 " fill="none" id="BaseModel-backto-WriteConfigControlByte" style="stroke:#000000;stroke-width:2.0;"/><polygon fill="none" points="1553.5,75.09,1560.5,55.09,1567.5,75.09,1553.5,75.09" style="stroke:#000000;stroke-width:2.0;"/><!--MD5=[0130431f9d3163f59d63d797aff318ab]
reverse link BaseModel to WriteConfigResultByte--><path codeLine="44" d="M1603.76,31 C1603.76,31 1928.5,31 1928.5,31 C1928.5,31 1928.5,84.32 1928.5,124.31 " fill="none" id="BaseModel-backto-WriteConfigResultByte" style="stroke:#000000;stroke-width:2.0;"/><polygon fill="none" points="1603.76,38,1583.76,31,1603.76,24,1603.76,38" style="stroke:#000000;stroke-width:2.0;"/><!--MD5=[7c3f3ae1239c6addabffd6220f3701ab]
reverse link AbstractCANMessage to AbstractSystemCommand--><path codeLine="51" d="M1061.23,159 C1061.23,159 321.5,159 321.5,159 C321.5,159 321.5,262.21 321.5,327.73 " fill="none" id="AbstractCANMessage-backto-AbstractSystemCommand" style="stroke:#000000;stroke-width:2.0;"/><polygon fill="none" points="1061.23,152,1081.23,159,1061.23,166,1061.23,152" style="stroke:#000000;stroke-width:2.0;"/><!--MD5=[022324c73948a8e24401abfdebbfd6f7]
reverse link AbstractCANMessage to ParticipantPingCommand--><path codeLine="59" d="M1061.37,177 C1061.37,177 554.5,177 554.5,177 C554.5,177 554.5,250.16 554.5,308.75 " fill="none" id="AbstractCANMessage-backto-ParticipantPingCommand" style="stroke:#000000;stroke-width:2.0;"/><polygon fill="none" points="1061.37,170,1081.37,177,1061.37,184,1061.37,170" style="stroke:#000000;stroke-width:2.0;"/><!--MD5=[bfcb060f8b363a238bfd3d9b8c7ca9bc]
reverse link AbstractCANMessage to LocomotiveDiscoveryCommand--><path codeLine="68" d="M1061.42,194 C1061.42,194 811.5,194 811.5,194 C811.5,194 811.5,248.98 811.5,299.24 " fill="none" id="AbstractCANMessage-backto-LocomotiveDiscoveryCommand" style="stroke:#000000;stroke-width:2.0;"/><polygon fill="none" points="1061.42,187,1081.42,194,1061.42,201,1061.42,187" style="stroke:#000000;stroke-width:2.0;"/><!--MD5=[af44c54efe84a015357e6fd7c633079c]
reverse link AbstractCANMessage to S88EventCommand--><path codeLine="79" d="M1105,230.6 C1105,230.6 1105,279.8 1105,279.8 " fill="none" id="AbstractCANMessage-backto-S88EventCommand" style="stroke:#000000;stroke-width:2.0;"/><polygon fill="none" points="1098,230.6,1105,210.6,1112,230.6,1098,230.6" style="stroke:#000000;stroke-width:2.0;"/><!--MD5=[cedea613714ece2938537460627860d2]
reverse link AbstractCANMessage to RequestConfigDataCommand--><path codeLine="85" d="M1177.58,230.6 C1177.58,230.6 1177.58,327.65 1177.58,327.65 " fill="none" id="AbstractCANMessage-backto-RequestConfigDataCommand" style="stroke:#000000;stroke-width:2.0;"/><polygon fill="none" points="1170.58,230.6,1177.58,210.6,1184.58,230.6,1170.58,230.6" style="stroke:#000000;stroke-width:2.0;"/><!--MD5=[cca97c524d1803342ca8003260df1b93]
reverse link AbstractCANMessage to ServiceStatusDataConfigurationCommand--><path codeLine="94" d="M1191.17,230.66 C1191.17,230.66 1191.17,314 1191.17,314 C1191.17,314 1319.2,314 1429.72,314 " fill="none" id="AbstractCANMessage-backto-ServiceStatusDataConfigurationCommand" style="stroke:#000000;stroke-width:2.0;"/><polygon fill="none" points="1184.17,230.66,1191.17,210.66,1198.17,230.66,1184.17,230.66" style="stroke:#000000;stroke-width:2.0;"/><!--MD5=[7790f4f942ab3b2816c258c2d630bde7]
reverse link AbstractCANMessage to ConfigDataStreamCommand--><path codeLine="103" d="M1204.75,230.55 C1204.75,230.55 1204.75,265 1204.75,265 C1204.75,265 1791,265 1791,265 C1791,265 1791,280.08 1791,299.34 " fill="none" id="AbstractCANMessage-backto-ConfigDataStreamCommand" style="stroke:#000000;stroke-width:2.0;"/><polygon fill="none" points="1197.75,230.55,1204.75,210.55,1211.75,230.55,1197.75,230.55" style="stroke:#000000;stroke-width:2.0;"/><!--MD5=[d1d47b0682299c8bf9af33cc63b06104]
reverse link AbstractCANMessage to BootloaderCANBoundCommand--><path codeLine="109" d="M1218.33,230.68 C1218.33,230.68 1218.33,250 1218.33,250 C1218.33,250 2163.5,250 2163.5,250 C2163.5,250 2163.5,291.58 2163.5,327.8 " fill="none" id="AbstractCANMessage-backto-BootloaderCANBoundCommand" style="stroke:#000000;stroke-width:2.0;"/><polygon fill="none" points="1211.33,230.68,1218.33,210.68,1225.33,230.68,1211.33,230.68" style="stroke:#000000;stroke-width:2.0;"/><!--MD5=[e1e33c1be2e2075310f4c685e3c6a64b]
reverse link AbstractCANMessage to AbstractMfxCommand--><path codeLine="117" d="M1231.92,230.63 C1231.92,230.63 1231.92,235 1231.92,235 C1231.92,235 2407.5,235 2407.5,235 C2407.5,235 2407.5,278.83 2407.5,318.37 " fill="none" id="AbstractCANMessage-backto-AbstractMfxCommand" style="stroke:#000000;stroke-width:2.0;"/><polygon fill="none" points="1224.92,230.63,1231.92,210.63,1238.92,230.63,1224.92,230.63" style="stroke:#000000;stroke-width:2.0;"/><!--MD5=[cce87585b042bf30de57e88dcea63c5b]
@startuml
skinparam useBetaStyle true
skinparam linetype ortho

<style>
    classDiagram{
        FontColor Black
        BackgroundColor White
        LineThickness 2
        LineColor Black
        RoundCorner 10
    }
</style>

class BaseModel {
}
class AbstractCANMessage {
hash_value: int
response: bool
}
abstract class AbstractCANMessage
BaseModel <|- - AbstractCANMessage
class CANMessage {
message_id: MessageIdentifier
data: str
}
BaseModel <|- - CANMessage
class AbstractLocIDCommand {
hash_value: int
response: bool
loc_id: int
}
abstract class AbstractLocIDCommand
AbstractCANMessage <|- - AbstractLocIDCommand
class WriteConfigControlByte {
is_main: bool
is_multi_byte: bool
dcc_programming: DCCProgramming
}
BaseModel <|- - WriteConfigControlByte
class WriteConfigResultByte {
is_write_successful: bool
is_verify_successful: bool
}
BaseModel <|- - WriteConfigResultByte
class AbstractSystemCommand {
hash_value: int
response: bool
id: int
}
abstract class AbstractSystemCommand
AbstractCANMessage <|- - AbstractSystemCommand
class ParticipantPingCommand {
hash_value: int
response: bool
sender_id: int
software_version: int
device_id: int
}
AbstractCANMessage <|- - ParticipantPingCommand
class LocomotiveDiscoveryCommand {
hash_value: int
response: bool
loc_id: int
protocol: ProtocolSchema
mfx_range: int
ask_ratio: int
}
AbstractCANMessage <|- - LocomotiveDiscoveryCommand
class S88EventCommand {
hash_value: int
response: bool
device_id: int
contact_id: int
parameter: int
state_old: int
state_new: int
time: int
}
AbstractCANMessage <|- - S88EventCommand
class RequestConfigDataCommand {
hash_value: int
response: bool
filename: str
}
AbstractCANMessage <|- - RequestConfigDataCommand
class ServiceStatusDataConfigurationCommand {
hash_value: int
response: bool
device_id: int
index: int
count: int
data: str
}
AbstractCANMessage <|- - ServiceStatusDataConfigurationCommand
class ConfigDataStreamCommand {
hash_value: int
response: bool
file_length: int
crc: int
byte6: int
data: str
}
AbstractCANMessage <|- - ConfigDataStreamCommand
class BootloaderCANBoundCommand {
hash_value: int
response: bool
data: str
}
AbstractCANMessage <|- - BootloaderCANBoundCommand
class AbstractMfxCommand {
hash_value: int
response: bool
mfx_uid: int
mfx_sid: int
}
abstract class AbstractMfxCommand
AbstractCANMessage <|- - AbstractMfxCommand
@enduml

PlantUML version 1.2021.16(Wed Dec 08 18:25:22 CET 2021)
(GPL source distribution)
Java Runtime: OpenJDK Runtime Environment
JVM: OpenJDK 64-Bit Server VM
Default Encoding: UTF-8
Language: en
Country: US
--></g></svg>